  0
SECTION
  2
HEADER
  9
$ACADVER
  1
AC1009
  0
ENDSEC
  0
SECTION
  2
ENTITIES
  0
POLYLINE
  5
90
  8
Layer_0
  62
0
  66
1
  10
0
  20
0
  30
0
  0
VERTEX
  5
90
  8
Layer_0
  10
211.4256
  20
254.7283
  0
VERTEX
  5
91
  8
Layer_0
  10
211.4442
  20
254.8215
  0
VERTEX
  5
92
  8
Layer_0
  10
211.49701
  20
254.9006
  0
VERTEX
  5
93
  8
Layer_0
  10
211.57611
  20
254.9534
  0
VERTEX
  5
94
  8
Layer_0
  10
211.6694
  20
254.972
  0
VERTEX
  5
95
  8
Layer_0
  10
212.15691
  20
254.972
  0
VERTEX
  5
96
  8
Layer_0
  10
212.2502
  20
254.9534
  0
VERTEX
  5
97
  8
Layer_0
  10
212.32919
  20
254.9006
  0
VERTEX
  5
98
  8
Layer_0
  10
212.38211
  20
254.8215
  0
VERTEX
  5
99
  8
Layer_0
  10
212.4006
  20
254.7283
  0
VERTEX
  5
9a
  8
Layer_0
  10
212.4006
  20
253.8158
  0
VERTEX
  5
9b
  8
Layer_0
  10
212.38211
  20
253.7225
  0
VERTEX
  5
9c
  8
Layer_0
  10
212.32919
  20
253.6434
  0
VERTEX
  5
9d
  8
Layer_0
  10
212.2502
  20
253.59061
  0
VERTEX
  5
9e
  8
Layer_0
  10
212.15691
  20
253.57201
  0
VERTEX
  5
9f
  8
Layer_0
  10
211.6694
  20
253.57201
  0
VERTEX
  5
a0
  8
Layer_0
  10
211.57611
  20
253.59061
  0
VERTEX
  5
a1
  8
Layer_0
  10
211.49701
  20
253.6434
  0
VERTEX
  5
a2
  8
Layer_0
  10
211.4442
  20
253.7225
  0
VERTEX
  5
a3
  8
Layer_0
  10
211.4256
  20
253.8158
  0
VERTEX
  5
a4
  8
Layer_0
  10
211.4256
  20
254.7283
  0
SEQEND
  0
POLYLINE
  5
a6
  8
Layer_0
  62
0
  66
1
  10
0
  20
0
  30
0
  0
VERTEX
  5
a6
  8
Layer_0
  10
213.3006
  20
254.7283
  0
VERTEX
  5
a7
  8
Layer_0
  10
213.3192
  20
254.8215
  0
VERTEX
  5
a8
  8
Layer_0
  10
213.37201
  20
254.9006
  0
VERTEX
  5
a9
  8
Layer_0
  10
213.45111
  20
254.9534
  0
VERTEX
  5
aa
  8
Layer_0
  10
213.5444
  20
254.972
  0
VERTEX
  5
ab
  8
Layer_0
  10
214.03191
  20
254.972
  0
VERTEX
  5
ac
  8
Layer_0
  10
214.1252
  20
254.9534
  0
VERTEX
  5
ad
  8
Layer_0
  10
214.20419
  20
254.9006
  0
VERTEX
  5
ae
  8
Layer_0
  10
214.25711
  20
254.8215
  0
VERTEX
  5
af
  8
Layer_0
  10
214.2756
  20
254.7283
  0
VERTEX
  5
b0
  8
Layer_0
  10
214.2756
  20
253.8158
  0
VERTEX
  5
b1
  8
Layer_0
  10
214.25711
  20
253.7225
  0
VERTEX
  5
b2
  8
Layer_0
  10
214.20419
  20
253.6434
  0
VERTEX
  5
b3
  8
Layer_0
  10
214.1252
  20
253.59061
  0
VERTEX
  5
b4
  8
Layer_0
  10
214.03191
  20
253.57201
  0
VERTEX
  5
b5
  8
Layer_0
  10
213.5444
  20
253.57201
  0
VERTEX
  5
b6
  8
Layer_0
  10
213.45111
  20
253.59061
  0
VERTEX
  5
b7
  8
Layer_0
  10
213.37201
  20
253.6434
  0
VERTEX
  5
b8
  8
Layer_0
  10
213.3192
  20
253.7225
  0
VERTEX
  5
b9
  8
Layer_0
  10
213.3006
  20
253.8158
  0
VERTEX
  5
ba
  8
Layer_0
  10
213.3006
  20
254.7283
  0
SEQEND
  0
POLYLINE
  5
bc
  8
Layer_0
  62
0
  66
1
  10
0
  20
0
  30
0
  0
VERTEX
  5
bc
  8
Layer_0
  10
230.44681
  20
228.54791
  0
VERTEX
  5
bd
  8
Layer_0
  10
230.4653
  20
228.6412
  0
VERTEX
  5
be
  8
Layer_0
  10
230.5181
  20
228.72031
  0
VERTEX
  5
bf
  8
Layer_0
  10
230.5972
  20
228.7731
  0
VERTEX
  5
c0
  8
Layer_0
  10
230.69051
  20
228.7917
  0
VERTEX
  5
c1
  8
Layer_0
  10
231.17801
  20
228.7917
  0
VERTEX
  5
c2
  8
Layer_0
  10
231.2713
  20
228.7731
  0
VERTEX
  5
c3
  8
Layer_0
  10
231.3504
  20
228.72031
  0
VERTEX
  5
c4
  8
Layer_0
  10
231.4032
  20
228.6412
  0
VERTEX
  5
c5
  8
Layer_0
  10
231.4218
  20
228.54791
  0
VERTEX
  5
c6
  8
Layer_0
  10
231.4218
  20
227.63541
  0
VERTEX
  5
c7
  8
Layer_0
  10
231.4032
  20
227.5421
  0
VERTEX
  5
c8
  8
Layer_0
  10
231.3504
  20
227.4631
  0
VERTEX
  5
c9
  8
Layer_0
  10
231.2713
  20
227.4102
  0
VERTEX
  5
ca
  8
Layer_0
  10
231.17801
  20
227.39171
  0
VERTEX
  5
cb
  8
Layer_0
  10
230.69051
  20
227.39171
  0
VERTEX
  5
cc
  8
Layer_0
  10
230.5972
  20
227.4102
  0
VERTEX
  5
cd
  8
Layer_0
  10
230.5181
  20
227.4631
  0
VERTEX
  5
ce
  8
Layer_0
  10
230.4653
  20
227.5421
  0
VERTEX
  5
cf
  8
Layer_0
  10
230.44681
  20
227.63541
  0
VERTEX
  5
d0
  8
Layer_0
  10
230.44681
  20
228.54791
  0
SEQEND
  0
POLYLINE
  5
d2
  8
Layer_0
  62
0
  66
1
  10
0
  20
0
  30
0
  0
VERTEX
  5
d2
  8
Layer_0
  10
232.32181
  20
228.54791
  0
VERTEX
  5
d3
  8
Layer_0
  10
232.3403
  20
228.6412
  0
VERTEX
  5
d4
  8
Layer_0
  10
232.3931
  20
228.72031
  0
VERTEX
  5
d5
  8
Layer_0
  10
232.4722
  20
228.7731
  0
VERTEX
  5
d6
  8
Layer_0
  10
232.56551
  20
228.7917
  0
VERTEX
  5
d7
  8
Layer_0
  10
233.05301
  20
228.7917
  0
VERTEX
  5
d8
  8
Layer_0
  10
233.1463
  20
228.7731
  0
VERTEX
  5
d9
  8
Layer_0
  10
233.2254
  20
228.72031
  0
VERTEX
  5
da
  8
Layer_0
  10
233.2782
  20
228.6412
  0
VERTEX
  5
db
  8
Layer_0
  10
233.2968
  20
228.54791
  0
VERTEX
  5
dc
  8
Layer_0
  10
233.2968
  20
227.63541
  0
VERTEX
  5
dd
  8
Layer_0
  10
233.2782
  20
227.5421
  0
VERTEX
  5
de
  8
Layer_0
  10
233.2254
  20
227.4631
  0
VERTEX
  5
df
  8
Layer_0
  10
233.1463
  20
227.4102
  0
VERTEX
  5
e0
  8
Layer_0
  10
233.05301
  20
227.39171
  0
VERTEX
  5
e1
  8
Layer_0
  10
232.56551
  20
227.39171
  0
VERTEX
  5
e2
  8
Layer_0
  10
232.4722
  20
227.4102
  0
VERTEX
  5
e3
  8
Layer_0
  10
232.3931
  20
227.4631
  0
VERTEX
  5
e4
  8
Layer_0
  10
232.3403
  20
227.5421
  0
VERTEX
  5
e5
  8
Layer_0
  10
232.32181
  20
227.63541
  0
VERTEX
  5
e6
  8
Layer_0
  10
232.32181
  20
228.54791
  0
SEQEND
  0
POLYLINE
  5
e8
  8
Layer_0
  62
0
  66
1
  10
0
  20
0
  30
0
  0
VERTEX
  5
e8
  8
Layer_0
  10
234.269
  20
248.27521
  0
VERTEX
  5
e9
  8
Layer_0
  10
234.28799
  20
248.3708
  0
VERTEX
  5
ea
  8
Layer_0
  10
234.34219
  20
248.452
  0
VERTEX
  5
eb
  8
Layer_0
  10
234.42331
  20
248.5061
  0
VERTEX
  5
ec
  8
Layer_0
  10
234.519
  20
248.52521
  0
VERTEX
  5
ed
  8
Layer_0
  10
235.04401
  20
248.52521
  0
VERTEX
  5
ee
  8
Layer_0
  10
235.13971
  20
248.5061
  0
VERTEX
  5
ef
  8
Layer_0
  10
235.22079
  20
248.452
  0
VERTEX
  5
f0
  8
Layer_0
  10
235.27499
  20
248.3708
  0
VERTEX
  5
f1
  8
Layer_0
  10
235.29401
  20
248.27521
  0
VERTEX
  5
f2
  8
Layer_0
  10
235.29401
  20
247.3752
  0
VERTEX
  5
f3
  8
Layer_0
  10
235.27499
  20
247.27951
  0
VERTEX
  5
f4
  8
Layer_0
  10
235.22079
  20
247.19839
  0
VERTEX
  5
f5
  8
Layer_0
  10
235.13971
  20
247.1442
  0
VERTEX
  5
f6
  8
Layer_0
  10
235.04401
  20
247.1252
  0
VERTEX
  5
f7
  8
Layer_0
  10
234.519
  20
247.1252
  0
VERTEX
  5
f8
  8
Layer_0
  10
234.42331
  20
247.1442
  0
VERTEX
  5
f9
  8
Layer_0
  10
234.34219
  20
247.19839
  0
VERTEX
  5
fa
  8
Layer_0
  10
234.28799
  20
247.27951
  0
VERTEX
  5
fb
  8
Layer_0
  10
234.269
  20
247.3752
  0
VERTEX
  5
fc
  8
Layer_0
  10
234.269
  20
248.27521
  0
SEQEND
  0
POLYLINE
  5
fe
  8
Layer_0
  62
0
  66
1
  10
0
  20
0
  30
0
  0
VERTEX
  5
fe
  8
Layer_0
  10
236.09399
  20
248.27521
  0
VERTEX
  5
ff
  8
Layer_0
  10
236.11301
  20
248.3708
  0
VERTEX
  5
100
  8
Layer_0
  10
236.16721
  20
248.452
  0
VERTEX
  5
101
  8
Layer_0
  10
236.24829
  20
248.5061
  0
VERTEX
  5
102
  8
Layer_0
  10
236.34399
  20
248.52521
  0
VERTEX
  5
103
  8
Layer_0
  10
236.869
  20
248.52521
  0
VERTEX
  5
104
  8
Layer_0
  10
236.96469
  20
248.5061
  0
VERTEX
  5
105
  8
Layer_0
  10
237.04581
  20
248.452
  0
VERTEX
  5
106
  8
Layer_0
  10
237.10001
  20
248.3708
  0
VERTEX
  5
107
  8
Layer_0
  10
237.119
  20
248.27521
  0
VERTEX
  5
108
  8
Layer_0
  10
237.119
  20
247.3752
  0
VERTEX
  5
109
  8
Layer_0
  10
237.10001
  20
247.27951
  0
VERTEX
  5
10a
  8
Layer_0
  10
237.04581
  20
247.19839
  0
VERTEX
  5
10b
  8
Layer_0
  10
236.96469
  20
247.1442
  0
VERTEX
  5
10c
  8
Layer_0
  10
236.869
  20
247.1252
  0
VERTEX
  5
10d
  8
Layer_0
  10
236.34399
  20
247.1252
  0
VERTEX
  5
10e
  8
Layer_0
  10
236.24829
  20
247.1442
  0
VERTEX
  5
10f
  8
Layer_0
  10
236.16721
  20
247.19839
  0
VERTEX
  5
110
  8
Layer_0
  10
236.11301
  20
247.27951
  0
VERTEX
  5
111
  8
Layer_0
  10
236.09399
  20
247.3752
  0
VERTEX
  5
112
  8
Layer_0
  10
236.09399
  20
248.27521
  0
SEQEND
  0
POLYLINE
  5
114
  8
Layer_0
  62
0
  66
1
  10
0
  20
0
  30
0
  0
VERTEX
  5
114
  8
Layer_0
  10
195.15649
  20
235.772
  0
VERTEX
  5
115
  8
Layer_0
  10
195.1736
  20
235.85811
  0
VERTEX
  5
116
  8
Layer_0
  10
195.2224
  20
235.93111
  0
VERTEX
  5
117
  8
Layer_0
  10
195.29541
  20
235.9799
  0
VERTEX
  5
118
  8
Layer_0
  10
195.3815
  20
235.99701
  0
VERTEX
  5
119
  8
Layer_0
  10
195.8315
  20
235.99701
  0
VERTEX
  5
11a
  8
Layer_0
  10
195.9176
  20
235.9799
  0
VERTEX
  5
11b
  8
Layer_0
  10
195.9906
  20
235.93111
  0
VERTEX
  5
11c
  8
Layer_0
  10
196.0394
  20
235.85811
  0
VERTEX
  5
11d
  8
Layer_0
  10
196.0565
  20
235.772
  0
VERTEX
  5
11e
  8
Layer_0
  10
196.0565
  20
235.272
  0
VERTEX
  5
11f
  8
Layer_0
  10
196.0394
  20
235.1859
  0
VERTEX
  5
120
  8
Layer_0
  10
195.9906
  20
235.1129
  0
VERTEX
  5
121
  8
Layer_0
  10
195.9176
  20
235.0641
  0
VERTEX
  5
122
  8
Layer_0
  10
195.8315
  20
235.047
  0
VERTEX
  5
123
  8
Layer_0
  10
195.3815
  20
235.047
  0
VERTEX
  5
124
  8
Layer_0
  10
195.29541
  20
235.0641
  0
VERTEX
  5
125
  8
Layer_0
  10
195.2224
  20
235.1129
  0
VERTEX
  5
126
  8
Layer_0
  10
195.1736
  20
235.1859
  0
VERTEX
  5
127
  8
Layer_0
  10
195.15649
  20
235.272
  0
VERTEX
  5
128
  8
Layer_0
  10
195.15649
  20
235.772
  0
SEQEND
  0
POLYLINE
  5
12a
  8
Layer_0
  62
0
  66
1
  10
0
  20
0
  30
0
  0
VERTEX
  5
12a
  8
Layer_0
  10
196.7065
  20
235.772
  0
VERTEX
  5
12b
  8
Layer_0
  10
196.7236
  20
235.85811
  0
VERTEX
  5
12c
  8
Layer_0
  10
196.7724
  20
235.93111
  0
VERTEX
  5
12d
  8
Layer_0
  10
196.8454
  20
235.9799
  0
VERTEX
  5
12e
  8
Layer_0
  10
196.9315
  20
235.99701
  0
VERTEX
  5
12f
  8
Layer_0
  10
197.3815
  20
235.99701
  0
VERTEX
  5
130
  8
Layer_0
  10
197.46761
  20
235.9799
  0
VERTEX
  5
131
  8
Layer_0
  10
197.5406
  20
235.93111
  0
VERTEX
  5
132
  8
Layer_0
  10
197.5894
  20
235.85811
  0
VERTEX
  5
133
  8
Layer_0
  10
197.60651
  20
235.772
  0
VERTEX
  5
134
  8
Layer_0
  10
197.60651
  20
235.272
  0
VERTEX
  5
135
  8
Layer_0
  10
197.5894
  20
235.1859
  0
VERTEX
  5
136
  8
Layer_0
  10
197.5406
  20
235.1129
  0
VERTEX
  5
137
  8
Layer_0
  10
197.46761
  20
235.0641
  0
VERTEX
  5
138
  8
Layer_0
  10
197.3815
  20
235.047
  0
VERTEX
  5
139
  8
Layer_0
  10
196.9315
  20
235.047
  0
VERTEX
  5
13a
  8
Layer_0
  10
196.8454
  20
235.0641
  0
VERTEX
  5
13b
  8
Layer_0
  10
196.7724
  20
235.1129
  0
VERTEX
  5
13c
  8
Layer_0
  10
196.7236
  20
235.1859
  0
VERTEX
  5
13d
  8
Layer_0
  10
196.7065
  20
235.272
  0
VERTEX
  5
13e
  8
Layer_0
  10
196.7065
  20
235.772
  0
SEQEND
  0
POLYLINE
  5
140
  8
Layer_0
  62
0
  66
1
  10
0
  20
0
  30
0
  0
VERTEX
  5
140
  8
Layer_0
  10
211.4256
  20
242.3676
  0
VERTEX
  5
141
  8
Layer_0
  10
211.4442
  20
242.46091
  0
VERTEX
  5
142
  8
Layer_0
  10
211.49701
  20
242.5399
  0
VERTEX
  5
143
  8
Layer_0
  10
211.57611
  20
242.5928
  0
VERTEX
  5
144
  8
Layer_0
  10
211.6694
  20
242.6113
  0
VERTEX
  5
145
  8
Layer_0
  10
212.15691
  20
242.6113
  0
VERTEX
  5
146
  8
Layer_0
  10
212.2502
  20
242.5928
  0
VERTEX
  5
147
  8
Layer_0
  10
212.32919
  20
242.5399
  0
VERTEX
  5
148
  8
Layer_0
  10
212.38211
  20
242.46091
  0
VERTEX
  5
149
  8
Layer_0
  10
212.4006
  20
242.3676
  0
VERTEX
  5
14a
  8
Layer_0
  10
212.4006
  20
241.45511
  0
VERTEX
  5
14b
  8
Layer_0
  10
212.38211
  20
241.3618
  0
VERTEX
  5
14c
  8
Layer_0
  10
212.32919
  20
241.2827
  0
VERTEX
  5
14d
  8
Layer_0
  10
212.2502
  20
241.2299
  0
VERTEX
  5
14e
  8
Layer_0
  10
212.15691
  20
241.2113
  0
VERTEX
  5
14f
  8
Layer_0
  10
211.6694
  20
241.2113
  0
VERTEX
  5
150
  8
Layer_0
  10
211.57611
  20
241.2299
  0
VERTEX
  5
151
  8
Layer_0
  10
211.49701
  20
241.2827
  0
VERTEX
  5
152
  8
Layer_0
  10
211.4442
  20
241.3618
  0
VERTEX
  5
153
  8
Layer_0
  10
211.4256
  20
241.45511
  0
VERTEX
  5
154
  8
Layer_0
  10
211.4256
  20
242.3676
  0
SEQEND
  0
POLYLINE
  5
156
  8
Layer_0
  62
0
  66
1
  10
0
  20
0
  30
0
  0
VERTEX
  5
156
  8
Layer_0
  10
213.3006
  20
242.3676
  0
VERTEX
  5
157
  8
Layer_0
  10
213.3192
  20
242.46091
  0
VERTEX
  5
158
  8
Layer_0
  10
213.37201
  20
242.5399
  0
VERTEX
  5
159
  8
Layer_0
  10
213.45111
  20
242.5928
  0
VERTEX
  5
15a
  8
Layer_0
  10
213.5444
  20
242.6113
  0
VERTEX
  5
15b
  8
Layer_0
  10
214.03191
  20
242.6113
  0
VERTEX
  5
15c
  8
Layer_0
  10
214.1252
  20
242.5928
  0
VERTEX
  5
15d
  8
Layer_0
  10
214.20419
  20
242.5399
  0
VERTEX
  5
15e
  8
Layer_0
  10
214.25711
  20
242.46091
  0
VERTEX
  5
15f
  8
Layer_0
  10
214.2756
  20
242.3676
  0
VERTEX
  5
160
  8
Layer_0
  10
214.2756
  20
241.45511
  0
VERTEX
  5
161
  8
Layer_0
  10
214.25711
  20
241.3618
  0
VERTEX
  5
162
  8
Layer_0
  10
214.20419
  20
241.2827
  0
VERTEX
  5
163
  8
Layer_0
  10
214.1252
  20
241.2299
  0
VERTEX
  5
164
  8
Layer_0
  10
214.03191
  20
241.2113
  0
VERTEX
  5
165
  8
Layer_0
  10
213.5444
  20
241.2113
  0
VERTEX
  5
166
  8
Layer_0
  10
213.45111
  20
241.2299
  0
VERTEX
  5
167
  8
Layer_0
  10
213.37201
  20
241.2827
  0
VERTEX
  5
168
  8
Layer_0
  10
213.3192
  20
241.3618
  0
VERTEX
  5
169
  8
Layer_0
  10
213.3006
  20
241.45511
  0
VERTEX
  5
16a
  8
Layer_0
  10
213.3006
  20
242.3676
  0
SEQEND
  0
POLYLINE
  5
16c
  8
Layer_0
  62
0
  66
1
  10
0
  20
0
  30
0
  0
VERTEX
  5
16c
  8
Layer_0
  10
195.15649
  20
238.772
  0
VERTEX
  5
16d
  8
Layer_0
  10
195.1736
  20
238.85811
  0
VERTEX
  5
16e
  8
Layer_0
  10
195.2224
  20
238.93111
  0
VERTEX
  5
16f
  8
Layer_0
  10
195.29541
  20
238.9799
  0
VERTEX
  5
170
  8
Layer_0
  10
195.3815
  20
238.99701
  0
VERTEX
  5
171
  8
Layer_0
  10
195.8315
  20
238.99701
  0
VERTEX
  5
172
  8
Layer_0
  10
195.9176
  20
238.9799
  0
VERTEX
  5
173
  8
Layer_0
  10
195.9906
  20
238.93111
  0
VERTEX
  5
174
  8
Layer_0
  10
196.0394
  20
238.85811
  0
VERTEX
  5
175
  8
Layer_0
  10
196.0565
  20
238.772
  0
VERTEX
  5
176
  8
Layer_0
  10
196.0565
  20
238.272
  0
VERTEX
  5
177
  8
Layer_0
  10
196.0394
  20
238.1859
  0
VERTEX
  5
178
  8
Layer_0
  10
195.9906
  20
238.1129
  0
VERTEX
  5
179
  8
Layer_0
  10
195.9176
  20
238.0641
  0
VERTEX
  5
17a
  8
Layer_0
  10
195.8315
  20
238.047
  0
VERTEX
  5
17b
  8
Layer_0
  10
195.3815
  20
238.047
  0
VERTEX
  5
17c
  8
Layer_0
  10
195.29541
  20
238.0641
  0
VERTEX
  5
17d
  8
Layer_0
  10
195.2224
  20
238.1129
  0
VERTEX
  5
17e
  8
Layer_0
  10
195.1736
  20
238.1859
  0
VERTEX
  5
17f
  8
Layer_0
  10
195.15649
  20
238.272
  0
VERTEX
  5
180
  8
Layer_0
  10
195.15649
  20
238.772
  0
SEQEND
  0
POLYLINE
  5
182
  8
Layer_0
  62
0
  66
1
  10
0
  20
0
  30
0
  0
VERTEX
  5
182
  8
Layer_0
  10
196.7065
  20
238.772
  0
VERTEX
  5
183
  8
Layer_0
  10
196.7236
  20
238.85811
  0
VERTEX
  5
184
  8
Layer_0
  10
196.7724
  20
238.93111
  0
VERTEX
  5
185
  8
Layer_0
  10
196.8454
  20
238.9799
  0
VERTEX
  5
186
  8
Layer_0
  10
196.9315
  20
238.99701
  0
VERTEX
  5
187
  8
Layer_0
  10
197.3815
  20
238.99701
  0
VERTEX
  5
188
  8
Layer_0
  10
197.46761
  20
238.9799
  0
VERTEX
  5
189
  8
Layer_0
  10
197.5406
  20
238.93111
  0
VERTEX
  5
18a
  8
Layer_0
  10
197.5894
  20
238.85811
  0
VERTEX
  5
18b
  8
Layer_0
  10
197.60651
  20
238.772
  0
VERTEX
  5
18c
  8
Layer_0
  10
197.60651
  20
238.272
  0
VERTEX
  5
18d
  8
Layer_0
  10
197.5894
  20
238.1859
  0
VERTEX
  5
18e
  8
Layer_0
  10
197.5406
  20
238.1129
  0
VERTEX
  5
18f
  8
Layer_0
  10
197.46761
  20
238.0641
  0
VERTEX
  5
190
  8
Layer_0
  10
197.3815
  20
238.047
  0
VERTEX
  5
191
  8
Layer_0
  10
196.9315
  20
238.047
  0
VERTEX
  5
192
  8
Layer_0
  10
196.8454
  20
238.0641
  0
VERTEX
  5
193
  8
Layer_0
  10
196.7724
  20
238.1129
  0
VERTEX
  5
194
  8
Layer_0
  10
196.7236
  20
238.1859
  0
VERTEX
  5
195
  8
Layer_0
  10
196.7065
  20
238.272
  0
VERTEX
  5
196
  8
Layer_0
  10
196.7065
  20
238.772
  0
SEQEND
  0
POLYLINE
  5
198
  8
Layer_0
  62
0
  66
1
  10
0
  20
0
  30
0
  0
VERTEX
  5
198
  8
Layer_0
  10
189.40649
  20
232.397
  0
VERTEX
  5
199
  8
Layer_0
  10
189.3875
  20
232.3013
  0
VERTEX
  5
19a
  8
Layer_0
  10
189.3333
  20
232.2202
  0
VERTEX
  5
19b
  8
Layer_0
  10
189.2522
  20
232.166
  0
VERTEX
  5
19c
  8
Layer_0
  10
189.15649
  20
232.147
  0
VERTEX
  5
19d
  8
Layer_0
  10
188.53149
  20
232.147
  0
VERTEX
  5
19e
  8
Layer_0
  10
188.43581
  20
232.166
  0
VERTEX
  5
19f
  8
Layer_0
  10
188.35471
  20
232.2202
  0
VERTEX
  5
1a0
  8
Layer_0
  10
188.30051
  20
232.3013
  0
VERTEX
  5
1a1
  8
Layer_0
  10
188.28149
  20
232.397
  0
VERTEX
  5
1a2
  8
Layer_0
  10
188.28149
  20
233.647
  0
VERTEX
  5
1a3
  8
Layer_0
  10
188.30051
  20
233.74271
  0
VERTEX
  5
1a4
  8
Layer_0
  10
188.35471
  20
233.82381
  0
VERTEX
  5
1a5
  8
Layer_0
  10
188.43581
  20
233.87801
  0
VERTEX
  5
1a6
  8
Layer_0
  10
188.53149
  20
233.897
  0
VERTEX
  5
1a7
  8
Layer_0
  10
189.15649
  20
233.897
  0
VERTEX
  5
1a8
  8
Layer_0
  10
189.2522
  20
233.87801
  0
VERTEX
  5
1a9
  8
Layer_0
  10
189.3333
  20
233.82381
  0
VERTEX
  5
1aa
  8
Layer_0
  10
189.3875
  20
233.74271
  0
VERTEX
  5
1ab
  8
Layer_0
  10
189.40649
  20
233.647
  0
VERTEX
  5
1ac
  8
Layer_0
  10
189.40649
  20
232.397
  0
SEQEND
  0
POLYLINE
  5
1ae
  8
Layer_0
  62
0
  66
1
  10
0
  20
0
  30
0
  0
VERTEX
  5
1ae
  8
Layer_0
  10
186.48151
  20
232.397
  0
VERTEX
  5
1af
  8
Layer_0
  10
186.46251
  20
232.3013
  0
VERTEX
  5
1b0
  8
Layer_0
  10
186.40829
  20
232.2202
  0
VERTEX
  5
1b1
  8
Layer_0
  10
186.32721
  20
232.166
  0
VERTEX
  5
1b2
  8
Layer_0
  10
186.23151
  20
232.147
  0
VERTEX
  5
1b3
  8
Layer_0
  10
185.60651
  20
232.147
  0
VERTEX
  5
1b4
  8
Layer_0
  10
185.5108
  20
232.166
  0
VERTEX
  5
1b5
  8
Layer_0
  10
185.4297
  20
232.2202
  0
VERTEX
  5
1b6
  8
Layer_0
  10
185.3755
  20
232.3013
  0
VERTEX
  5
1b7
  8
Layer_0
  10
185.35651
  20
232.397
  0
VERTEX
  5
1b8
  8
Layer_0
  10
185.35651
  20
233.647
  0
VERTEX
  5
1b9
  8
Layer_0
  10
185.3755
  20
233.74271
  0
VERTEX
  5
1ba
  8
Layer_0
  10
185.4297
  20
233.82381
  0
VERTEX
  5
1bb
  8
Layer_0
  10
185.5108
  20
233.87801
  0
VERTEX
  5
1bc
  8
Layer_0
  10
185.60651
  20
233.897
  0
VERTEX
  5
1bd
  8
Layer_0
  10
186.23151
  20
233.897
  0
VERTEX
  5
1be
  8
Layer_0
  10
186.32721
  20
233.87801
  0
VERTEX
  5
1bf
  8
Layer_0
  10
186.40829
  20
233.82381
  0
VERTEX
  5
1c0
  8
Layer_0
  10
186.46251
  20
233.74271
  0
VERTEX
  5
1c1
  8
Layer_0
  10
186.48151
  20
233.647
  0
VERTEX
  5
1c2
  8
Layer_0
  10
186.48151
  20
232.397
  0
SEQEND
  0
POLYLINE
  5
1c4
  8
Layer_0
  62
0
  66
1
  10
0
  20
0
  30
0
  0
VERTEX
  5
1c4
  8
Layer_0
  10
249.4679
  20
254.7283
  0
VERTEX
  5
1c5
  8
Layer_0
  10
249.4864
  20
254.8215
  0
VERTEX
  5
1c6
  8
Layer_0
  10
249.53931
  20
254.9006
  0
VERTEX
  5
1c7
  8
Layer_0
  10
249.61841
  20
254.9534
  0
VERTEX
  5
1c8
  8
Layer_0
  10
249.71161
  20
254.972
  0
VERTEX
  5
1c9
  8
Layer_0
  10
250.1991
  20
254.972
  0
VERTEX
  5
1ca
  8
Layer_0
  10
250.2924
  20
254.9534
  0
VERTEX
  5
1cb
  8
Layer_0
  10
250.37151
  20
254.9006
  0
VERTEX
  5
1cc
  8
Layer_0
  10
250.4243
  20
254.8215
  0
VERTEX
  5
1cd
  8
Layer_0
  10
250.4429
  20
254.7283
  0
VERTEX
  5
1ce
  8
Layer_0
  10
250.4429
  20
253.8158
  0
VERTEX
  5
1cf
  8
Layer_0
  10
250.4243
  20
253.7225
  0
VERTEX
  5
1d0
  8
Layer_0
  10
250.37151
  20
253.6434
  0
VERTEX
  5
1d1
  8
Layer_0
  10
250.2924
  20
253.59061
  0
VERTEX
  5
1d2
  8
Layer_0
  10
250.1991
  20
253.57201
  0
VERTEX
  5
1d3
  8
Layer_0
  10
249.71161
  20
253.57201
  0
VERTEX
  5
1d4
  8
Layer_0
  10
249.61841
  20
253.59061
  0
VERTEX
  5
1d5
  8
Layer_0
  10
249.53931
  20
253.6434
  0
VERTEX
  5
1d6
  8
Layer_0
  10
249.4864
  20
253.7225
  0
VERTEX
  5
1d7
  8
Layer_0
  10
249.4679
  20
253.8158
  0
VERTEX
  5
1d8
  8
Layer_0
  10
249.4679
  20
254.7283
  0
SEQEND
  0
POLYLINE
  5
1da
  8
Layer_0
  62
0
  66
1
  10
0
  20
0
  30
0
  0
VERTEX
  5
1da
  8
Layer_0
  10
251.3429
  20
254.7283
  0
VERTEX
  5
1db
  8
Layer_0
  10
251.3614
  20
254.8215
  0
VERTEX
  5
1dc
  8
Layer_0
  10
251.41431
  20
254.9006
  0
VERTEX
  5
1dd
  8
Layer_0
  10
251.49341
  20
254.9534
  0
VERTEX
  5
1de
  8
Layer_0
  10
251.58661
  20
254.972
  0
VERTEX
  5
1df
  8
Layer_0
  10
252.0741
  20
254.972
  0
VERTEX
  5
1e0
  8
Layer_0
  10
252.1674
  20
254.9534
  0
VERTEX
  5
1e1
  8
Layer_0
  10
252.24651
  20
254.9006
  0
VERTEX
  5
1e2
  8
Layer_0
  10
252.2993
  20
254.8215
  0
VERTEX
  5
1e3
  8
Layer_0
  10
252.3179
  20
254.7283
  0
VERTEX
  5
1e4
  8
Layer_0
  10
252.3179
  20
253.8158
  0
VERTEX
  5
1e5
  8
Layer_0
  10
252.2993
  20
253.7225
  0
VERTEX
  5
1e6
  8
Layer_0
  10
252.24651
  20
253.6434
  0
VERTEX
  5
1e7
  8
Layer_0
  10
252.1674
  20
253.59061
  0
VERTEX
  5
1e8
  8
Layer_0
  10
252.0741
  20
253.57201
  0
VERTEX
  5
1e9
  8
Layer_0
  10
251.58661
  20
253.57201
  0
VERTEX
  5
1ea
  8
Layer_0
  10
251.49341
  20
253.59061
  0
VERTEX
  5
1eb
  8
Layer_0
  10
251.41431
  20
253.6434
  0
VERTEX
  5
1ec
  8
Layer_0
  10
251.3614
  20
253.7225
  0
VERTEX
  5
1ed
  8
Layer_0
  10
251.3429
  20
253.8158
  0
VERTEX
  5
1ee
  8
Layer_0
  10
251.3429
  20
254.7283
  0
SEQEND
  0
POLYLINE
  5
1f0
  8
Layer_0
  62
0
  66
1
  10
0
  20
0
  30
0
  0
VERTEX
  5
1f0
  8
Layer_0
  10
242.2025
  20
232.3676
  0
VERTEX
  5
1f1
  8
Layer_0
  10
242.22101
  20
232.46091
  0
VERTEX
  5
1f2
  8
Layer_0
  10
242.2739
  20
232.5399
  0
VERTEX
  5
1f3
  8
Layer_0
  10
242.35291
  20
232.5928
  0
VERTEX
  5
1f4
  8
Layer_0
  10
242.4462
  20
232.6113
  0
VERTEX
  5
1f5
  8
Layer_0
  10
242.9337
  20
232.6113
  0
VERTEX
  5
1f6
  8
Layer_0
  10
243.02701
  20
232.5928
  0
VERTEX
  5
1f7
  8
Layer_0
  10
243.10611
  20
232.5399
  0
VERTEX
  5
1f8
  8
Layer_0
  10
243.15891
  20
232.46091
  0
VERTEX
  5
1f9
  8
Layer_0
  10
243.17751
  20
232.3676
  0
VERTEX
  5
1fa
  8
Layer_0
  10
243.17751
  20
231.45511
  0
VERTEX
  5
1fb
  8
Layer_0
  10
243.15891
  20
231.3618
  0
VERTEX
  5
1fc
  8
Layer_0
  10
243.10611
  20
231.2827
  0
VERTEX
  5
1fd
  8
Layer_0
  10
243.02701
  20
231.2299
  0
VERTEX
  5
1fe
  8
Layer_0
  10
242.9337
  20
231.2113
  0
VERTEX
  5
1ff
  8
Layer_0
  10
242.4462
  20
231.2113
  0
VERTEX
  5
200
  8
Layer_0
  10
242.35291
  20
231.2299
  0
VERTEX
  5
201
  8
Layer_0
  10
242.2739
  20
231.2827
  0
VERTEX
  5
202
  8
Layer_0
  10
242.22101
  20
231.3618
  0
VERTEX
  5
203
  8
Layer_0
  10
242.2025
  20
231.45511
  0
VERTEX
  5
204
  8
Layer_0
  10
242.2025
  20
232.3676
  0
SEQEND
  0
POLYLINE
  5
206
  8
Layer_0
  62
0
  66
1
  10
0
  20
0
  30
0
  0
VERTEX
  5
206
  8
Layer_0
  10
244.0775
  20
232.3676
  0
VERTEX
  5
207
  8
Layer_0
  10
244.09601
  20
232.46091
  0
VERTEX
  5
208
  8
Layer_0
  10
244.1489
  20
232.5399
  0
VERTEX
  5
209
  8
Layer_0
  10
244.22791
  20
232.5928
  0
VERTEX
  5
20a
  8
Layer_0
  10
244.3212
  20
232.6113
  0
VERTEX
  5
20b
  8
Layer_0
  10
244.8087
  20
232.6113
  0
VERTEX
  5
20c
  8
Layer_0
  10
244.90201
  20
232.5928
  0
VERTEX
  5
20d
  8
Layer_0
  10
244.98111
  20
232.5399
  0
VERTEX
  5
20e
  8
Layer_0
  10
245.03391
  20
232.46091
  0
VERTEX
  5
20f
  8
Layer_0
  10
245.05251
  20
232.3676
  0
VERTEX
  5
210
  8
Layer_0
  10
245.05251
  20
231.45511
  0
VERTEX
  5
211
  8
Layer_0
  10
245.03391
  20
231.3618
  0
VERTEX
  5
212
  8
Layer_0
  10
244.98111
  20
231.2827
  0
VERTEX
  5
213
  8
Layer_0
  10
244.90201
  20
231.2299
  0
VERTEX
  5
214
  8
Layer_0
  10
244.8087
  20
231.2113
  0
VERTEX
  5
215
  8
Layer_0
  10
244.3212
  20
231.2113
  0
VERTEX
  5
216
  8
Layer_0
  10
244.22791
  20
231.2299
  0
VERTEX
  5
217
  8
Layer_0
  10
244.1489
  20
231.2827
  0
VERTEX
  5
218
  8
Layer_0
  10
244.09601
  20
231.3618
  0
VERTEX
  5
219
  8
Layer_0
  10
244.0775
  20
231.45511
  0
VERTEX
  5
21a
  8
Layer_0
  10
244.0775
  20
232.3676
  0
SEQEND
  0
POLYLINE
  5
21c
  8
Layer_0
  62
0
  66
1
  10
0
  20
0
  30
0
  0
VERTEX
  5
21c
  8
Layer_0
  10
230.269
  20
248.2814
  0
VERTEX
  5
21d
  8
Layer_0
  10
230.2876
  20
248.37469
  0
VERTEX
  5
21e
  8
Layer_0
  10
230.34039
  20
248.4538
  0
VERTEX
  5
21f
  8
Layer_0
  10
230.41949
  20
248.50661
  0
VERTEX
  5
220
  8
Layer_0
  10
230.5127
  20
248.52521
  0
VERTEX
  5
221
  8
Layer_0
  10
231.00031
  20
248.52521
  0
VERTEX
  5
222
  8
Layer_0
  10
231.09351
  20
248.50661
  0
VERTEX
  5
223
  8
Layer_0
  10
231.17261
  20
248.4538
  0
VERTEX
  5
224
  8
Layer_0
  10
231.2254
  20
248.37469
  0
VERTEX
  5
225
  8
Layer_0
  10
231.244
  20
248.2814
  0
VERTEX
  5
226
  8
Layer_0
  10
231.244
  20
247.3689
  0
VERTEX
  5
227
  8
Layer_0
  10
231.2254
  20
247.2756
  0
VERTEX
  5
228
  8
Layer_0
  10
231.17261
  20
247.19659
  0
VERTEX
  5
229
  8
Layer_0
  10
231.09351
  20
247.14371
  0
VERTEX
  5
22a
  8
Layer_0
  10
231.00031
  20
247.1252
  0
VERTEX
  5
22b
  8
Layer_0
  10
230.5127
  20
247.1252
  0
VERTEX
  5
22c
  8
Layer_0
  10
230.41949
  20
247.14371
  0
VERTEX
  5
22d
  8
Layer_0
  10
230.34039
  20
247.19659
  0
VERTEX
  5
22e
  8
Layer_0
  10
230.2876
  20
247.2756
  0
VERTEX
  5
22f
  8
Layer_0
  10
230.269
  20
247.3689
  0
VERTEX
  5
230
  8
Layer_0
  10
230.269
  20
248.2814
  0
SEQEND
  0
POLYLINE
  5
232
  8
Layer_0
  62
0
  66
1
  10
0
  20
0
  30
0
  0
VERTEX
  5
232
  8
Layer_0
  10
232.144
  20
248.2814
  0
VERTEX
  5
233
  8
Layer_0
  10
232.1626
  20
248.37469
  0
VERTEX
  5
234
  8
Layer_0
  10
232.21539
  20
248.4538
  0
VERTEX
  5
235
  8
Layer_0
  10
232.29449
  20
248.50661
  0
VERTEX
  5
236
  8
Layer_0
  10
232.3877
  20
248.52521
  0
VERTEX
  5
237
  8
Layer_0
  10
232.87531
  20
248.52521
  0
VERTEX
  5
238
  8
Layer_0
  10
232.96851
  20
248.50661
  0
VERTEX
  5
239
  8
Layer_0
  10
233.04761
  20
248.4538
  0
VERTEX
  5
23a
  8
Layer_0
  10
233.1004
  20
248.37469
  0
VERTEX
  5
23b
  8
Layer_0
  10
233.119
  20
248.2814
  0
VERTEX
  5
23c
  8
Layer_0
  10
233.119
  20
247.3689
  0
VERTEX
  5
23d
  8
Layer_0
  10
233.1004
  20
247.2756
  0
VERTEX
  5
23e
  8
Layer_0
  10
233.04761
  20
247.19659
  0
VERTEX
  5
23f
  8
Layer_0
  10
232.96851
  20
247.14371
  0
VERTEX
  5
240
  8
Layer_0
  10
232.87531
  20
247.1252
  0
VERTEX
  5
241
  8
Layer_0
  10
232.3877
  20
247.1252
  0
VERTEX
  5
242
  8
Layer_0
  10
232.29449
  20
247.14371
  0
VERTEX
  5
243
  8
Layer_0
  10
232.21539
  20
247.19659
  0
VERTEX
  5
244
  8
Layer_0
  10
232.1626
  20
247.2756
  0
VERTEX
  5
245
  8
Layer_0
  10
232.144
  20
247.3689
  0
VERTEX
  5
246
  8
Layer_0
  10
232.144
  20
248.2814
  0
SEQEND
  0
POLYLINE
  5
248
  8
Layer_0
  62
0
  66
1
  10
0
  20
0
  30
0
  0
VERTEX
  5
248
  8
Layer_0
  10
239.42331
  20
236.13991
  0
VERTEX
  5
249
  8
Layer_0
  10
239.44229
  20
236.2356
  0
VERTEX
  5
24a
  8
Layer_0
  10
239.49651
  20
236.31671
  0
VERTEX
  5
24b
  8
Layer_0
  10
239.57761
  20
236.37091
  0
VERTEX
  5
24c
  8
Layer_0
  10
239.67331
  20
236.38991
  0
VERTEX
  5
24d
  8
Layer_0
  10
240.1983
  20
236.38991
  0
VERTEX
  5
24e
  8
Layer_0
  10
240.2939
  20
236.37091
  0
VERTEX
  5
24f
  8
Layer_0
  10
240.37509
  20
236.31671
  0
VERTEX
  5
250
  8
Layer_0
  10
240.4292
  20
236.2356
  0
VERTEX
  5
251
  8
Layer_0
  10
240.4483
  20
236.13991
  0
VERTEX
  5
252
  8
Layer_0
  10
240.4483
  20
235.2399
  0
VERTEX
  5
253
  8
Layer_0
  10
240.4292
  20
235.1443
  0
VERTEX
  5
254
  8
Layer_0
  10
240.37509
  20
235.06311
  0
VERTEX
  5
255
  8
Layer_0
  10
240.2939
  20
235.009
  0
VERTEX
  5
256
  8
Layer_0
  10
240.1983
  20
234.9899
  0
VERTEX
  5
257
  8
Layer_0
  10
239.67331
  20
234.9899
  0
VERTEX
  5
258
  8
Layer_0
  10
239.57761
  20
235.009
  0
VERTEX
  5
259
  8
Layer_0
  10
239.49651
  20
235.06311
  0
VERTEX
  5
25a
  8
Layer_0
  10
239.44229
  20
235.1443
  0
VERTEX
  5
25b
  8
Layer_0
  10
239.42331
  20
235.2399
  0
VERTEX
  5
25c
  8
Layer_0
  10
239.42331
  20
236.13991
  0
SEQEND
  0
POLYLINE
  5
25e
  8
Layer_0
  62
0
  66
1
  10
0
  20
0
  30
0
  0
VERTEX
  5
25e
  8
Layer_0
  10
241.24829
  20
236.13991
  0
VERTEX
  5
25f
  8
Layer_0
  10
241.2673
  20
236.2356
  0
VERTEX
  5
260
  8
Layer_0
  10
241.3215
  20
236.31671
  0
VERTEX
  5
261
  8
Layer_0
  10
241.4026
  20
236.37091
  0
VERTEX
  5
262
  8
Layer_0
  10
241.49829
  20
236.38991
  0
VERTEX
  5
263
  8
Layer_0
  10
242.0233
  20
236.38991
  0
VERTEX
  5
264
  8
Layer_0
  10
242.1189
  20
236.37091
  0
VERTEX
  5
265
  8
Layer_0
  10
242.2001
  20
236.31671
  0
VERTEX
  5
266
  8
Layer_0
  10
242.25421
  20
236.2356
  0
VERTEX
  5
267
  8
Layer_0
  10
242.2733
  20
236.13991
  0
VERTEX
  5
268
  8
Layer_0
  10
242.2733
  20
235.2399
  0
VERTEX
  5
269
  8
Layer_0
  10
242.25421
  20
235.1443
  0
VERTEX
  5
26a
  8
Layer_0
  10
242.2001
  20
235.06311
  0
VERTEX
  5
26b
  8
Layer_0
  10
242.1189
  20
235.009
  0
VERTEX
  5
26c
  8
Layer_0
  10
242.0233
  20
234.9899
  0
VERTEX
  5
26d
  8
Layer_0
  10
241.49829
  20
234.9899
  0
VERTEX
  5
26e
  8
Layer_0
  10
241.4026
  20
235.009
  0
VERTEX
  5
26f
  8
Layer_0
  10
241.3215
  20
235.06311
  0
VERTEX
  5
270
  8
Layer_0
  10
241.2673
  20
235.1443
  0
VERTEX
  5
271
  8
Layer_0
  10
241.24829
  20
235.2399
  0
VERTEX
  5
272
  8
Layer_0
  10
241.24829
  20
236.13991
  0
SEQEND
  0
POLYLINE
  5
274
  8
Layer_0
  62
0
  66
1
  10
0
  20
0
  30
0
  0
VERTEX
  5
274
  8
Layer_0
  10
218.69101
  20
232.3676
  0
VERTEX
  5
275
  8
Layer_0
  10
218.70959
  20
232.46091
  0
VERTEX
  5
276
  8
Layer_0
  10
218.76241
  20
232.5399
  0
VERTEX
  5
277
  8
Layer_0
  10
218.84151
  20
232.5928
  0
VERTEX
  5
278
  8
Layer_0
  10
218.9348
  20
232.6113
  0
VERTEX
  5
279
  8
Layer_0
  10
219.4223
  20
232.6113
  0
VERTEX
  5
27a
  8
Layer_0
  10
219.51559
  20
232.5928
  0
VERTEX
  5
27b
  8
Layer_0
  10
219.5947
  20
232.5399
  0
VERTEX
  5
27c
  8
Layer_0
  10
219.64751
  20
232.46091
  0
VERTEX
  5
27d
  8
Layer_0
  10
219.666
  20
232.3676
  0
VERTEX
  5
27e
  8
Layer_0
  10
219.666
  20
231.45511
  0
VERTEX
  5
27f
  8
Layer_0
  10
219.64751
  20
231.3618
  0
VERTEX
  5
280
  8
Layer_0
  10
219.5947
  20
231.2827
  0
VERTEX
  5
281
  8
Layer_0
  10
219.51559
  20
231.2299
  0
VERTEX
  5
282
  8
Layer_0
  10
219.4223
  20
231.2113
  0
VERTEX
  5
283
  8
Layer_0
  10
218.9348
  20
231.2113
  0
VERTEX
  5
284
  8
Layer_0
  10
218.84151
  20
231.2299
  0
VERTEX
  5
285
  8
Layer_0
  10
218.76241
  20
231.2827
  0
VERTEX
  5
286
  8
Layer_0
  10
218.70959
  20
231.3618
  0
VERTEX
  5
287
  8
Layer_0
  10
218.69101
  20
231.45511
  0
VERTEX
  5
288
  8
Layer_0
  10
218.69101
  20
232.3676
  0
SEQEND
  0
POLYLINE
  5
28a
  8
Layer_0
  62
0
  66
1
  10
0
  20
0
  30
0
  0
VERTEX
  5
28a
  8
Layer_0
  10
220.56601
  20
232.3676
  0
VERTEX
  5
28b
  8
Layer_0
  10
220.58459
  20
232.46091
  0
VERTEX
  5
28c
  8
Layer_0
  10
220.63741
  20
232.5399
  0
VERTEX
  5
28d
  8
Layer_0
  10
220.71651
  20
232.5928
  0
VERTEX
  5
28e
  8
Layer_0
  10
220.8098
  20
232.6113
  0
VERTEX
  5
28f
  8
Layer_0
  10
221.2973
  20
232.6113
  0
VERTEX
  5
290
  8
Layer_0
  10
221.39059
  20
232.5928
  0
VERTEX
  5
291
  8
Layer_0
  10
221.4697
  20
232.5399
  0
VERTEX
  5
292
  8
Layer_0
  10
221.52251
  20
232.46091
  0
VERTEX
  5
293
  8
Layer_0
  10
221.541
  20
232.3676
  0
VERTEX
  5
294
  8
Layer_0
  10
221.541
  20
231.45511
  0
VERTEX
  5
295
  8
Layer_0
  10
221.52251
  20
231.3618
  0
VERTEX
  5
296
  8
Layer_0
  10
221.4697
  20
231.2827
  0
VERTEX
  5
297
  8
Layer_0
  10
221.39059
  20
231.2299
  0
VERTEX
  5
298
  8
Layer_0
  10
221.2973
  20
231.2113
  0
VERTEX
  5
299
  8
Layer_0
  10
220.8098
  20
231.2113
  0
VERTEX
  5
29a
  8
Layer_0
  10
220.71651
  20
231.2299
  0
VERTEX
  5
29b
  8
Layer_0
  10
220.63741
  20
231.2827
  0
VERTEX
  5
29c
  8
Layer_0
  10
220.58459
  20
231.3618
  0
VERTEX
  5
29d
  8
Layer_0
  10
220.56601
  20
231.45511
  0
VERTEX
  5
29e
  8
Layer_0
  10
220.56601
  20
232.3676
  0
SEQEND
  0
POLYLINE
  5
2a0
  8
Layer_0
  62
0
  66
1
  10
0
  20
0
  30
0
  0
VERTEX
  5
2a0
  8
Layer_0
  10
203.6015
  20
233.707
  0
VERTEX
  5
2a1
  8
Layer_0
  10
203.6118
  20
233.7587
  0
VERTEX
  5
2a2
  8
Layer_0
  10
203.64101
  20
233.80251
  0
VERTEX
  5
2a3
  8
Layer_0
  10
203.6848
  20
233.8317
  0
VERTEX
  5
2a4
  8
Layer_0
  10
203.73651
  20
233.84201
  0
VERTEX
  5
2a5
  8
Layer_0
  10
204.0065
  20
233.84201
  0
VERTEX
  5
2a6
  8
Layer_0
  10
204.0582
  20
233.8317
  0
VERTEX
  5
2a7
  8
Layer_0
  10
204.10201
  20
233.80251
  0
VERTEX
  5
2a8
  8
Layer_0
  10
204.1312
  20
233.7587
  0
VERTEX
  5
2a9
  8
Layer_0
  10
204.14151
  20
233.707
  0
VERTEX
  5
2aa
  8
Layer_0
  10
204.14151
  20
233.33701
  0
VERTEX
  5
2ab
  8
Layer_0
  10
204.1312
  20
233.28531
  0
VERTEX
  5
2ac
  8
Layer_0
  10
204.10201
  20
233.2415
  0
VERTEX
  5
2ad
  8
Layer_0
  10
204.0582
  20
233.21231
  0
VERTEX
  5
2ae
  8
Layer_0
  10
204.0065
  20
233.202
  0
VERTEX
  5
2af
  8
Layer_0
  10
203.73651
  20
233.202
  0
VERTEX
  5
2b0
  8
Layer_0
  10
203.6848
  20
233.21231
  0
VERTEX
  5
2b1
  8
Layer_0
  10
203.64101
  20
233.2415
  0
VERTEX
  5
2b2
  8
Layer_0
  10
203.6118
  20
233.28531
  0
VERTEX
  5
2b3
  8
Layer_0
  10
203.6015
  20
233.33701
  0
VERTEX
  5
2b4
  8
Layer_0
  10
203.6015
  20
233.707
  0
SEQEND
  0
POLYLINE
  5
2b6
  8
Layer_0
  62
0
  66
1
  10
0
  20
0
  30
0
  0
VERTEX
  5
2b6
  8
Layer_0
  10
204.62151
  20
233.707
  0
VERTEX
  5
2b7
  8
Layer_0
  10
204.63181
  20
233.7587
  0
VERTEX
  5
2b8
  8
Layer_0
  10
204.66101
  20
233.80251
  0
VERTEX
  5
2b9
  8
Layer_0
  10
204.7048
  20
233.8317
  0
VERTEX
  5
2ba
  8
Layer_0
  10
204.7565
  20
233.84201
  0
VERTEX
  5
2bb
  8
Layer_0
  10
205.0265
  20
233.84201
  0
VERTEX
  5
2bc
  8
Layer_0
  10
205.0782
  20
233.8317
  0
VERTEX
  5
2bd
  8
Layer_0
  10
205.12201
  20
233.80251
  0
VERTEX
  5
2be
  8
Layer_0
  10
205.1512
  20
233.7587
  0
VERTEX
  5
2bf
  8
Layer_0
  10
205.1615
  20
233.707
  0
VERTEX
  5
2c0
  8
Layer_0
  10
205.1615
  20
233.33701
  0
VERTEX
  5
2c1
  8
Layer_0
  10
205.1512
  20
233.28531
  0
VERTEX
  5
2c2
  8
Layer_0
  10
205.12201
  20
233.2415
  0
VERTEX
  5
2c3
  8
Layer_0
  10
205.0782
  20
233.21231
  0
VERTEX
  5
2c4
  8
Layer_0
  10
205.0265
  20
233.202
  0
VERTEX
  5
2c5
  8
Layer_0
  10
204.7565
  20
233.202
  0
VERTEX
  5
2c6
  8
Layer_0
  10
204.7048
  20
233.21231
  0
VERTEX
  5
2c7
  8
Layer_0
  10
204.66101
  20
233.2415
  0
VERTEX
  5
2c8
  8
Layer_0
  10
204.63181
  20
233.28531
  0
VERTEX
  5
2c9
  8
Layer_0
  10
204.62151
  20
233.33701
  0
VERTEX
  5
2ca
  8
Layer_0
  10
204.62151
  20
233.707
  0
SEQEND
  0
POLYLINE
  5
2cc
  8
Layer_0
  62
0
  66
1
  10
0
  20
0
  30
0
  0
VERTEX
  5
2cc
  8
Layer_0
  10
244.8723
  20
252.9104
  0
VERTEX
  5
2cd
  8
Layer_0
  10
244.8914
  20
253.0061
  0
VERTEX
  5
2ce
  8
Layer_0
  10
244.9456
  20
253.0872
  0
VERTEX
  5
2cf
  8
Layer_0
  10
245.0267
  20
253.1414
  0
VERTEX
  5
2d0
  8
Layer_0
  10
245.1223
  20
253.1604
  0
VERTEX
  5
2d1
  8
Layer_0
  10
245.64731
  20
253.1604
  0
VERTEX
  5
2d2
  8
Layer_0
  10
245.74301
  20
253.1414
  0
VERTEX
  5
2d3
  8
Layer_0
  10
245.8241
  20
253.0872
  0
VERTEX
  5
2d4
  8
Layer_0
  10
245.8783
  20
253.0061
  0
VERTEX
  5
2d5
  8
Layer_0
  10
245.89731
  20
252.9104
  0
VERTEX
  5
2d6
  8
Layer_0
  10
245.89731
  20
252.01041
  0
VERTEX
  5
2d7
  8
Layer_0
  10
245.8783
  20
251.91479
  0
VERTEX
  5
2d8
  8
Layer_0
  10
245.8241
  20
251.83371
  0
VERTEX
  5
2d9
  8
Layer_0
  10
245.74301
  20
251.77951
  0
VERTEX
  5
2da
  8
Layer_0
  10
245.64731
  20
251.76041
  0
VERTEX
  5
2db
  8
Layer_0
  10
245.1223
  20
251.76041
  0
VERTEX
  5
2dc
  8
Layer_0
  10
245.0267
  20
251.77951
  0
VERTEX
  5
2dd
  8
Layer_0
  10
244.9456
  20
251.83371
  0
VERTEX
  5
2de
  8
Layer_0
  10
244.8914
  20
251.91479
  0
VERTEX
  5
2df
  8
Layer_0
  10
244.8723
  20
252.01041
  0
VERTEX
  5
2e0
  8
Layer_0
  10
244.8723
  20
252.9104
  0
SEQEND
  0
POLYLINE
  5
2e2
  8
Layer_0
  62
0
  66
1
  10
0
  20
0
  30
0
  0
VERTEX
  5
2e2
  8
Layer_0
  10
246.6973
  20
252.9104
  0
VERTEX
  5
2e3
  8
Layer_0
  10
246.7164
  20
253.0061
  0
VERTEX
  5
2e4
  8
Layer_0
  10
246.7706
  20
253.0872
  0
VERTEX
  5
2e5
  8
Layer_0
  10
246.8517
  20
253.1414
  0
VERTEX
  5
2e6
  8
Layer_0
  10
246.9473
  20
253.1604
  0
VERTEX
  5
2e7
  8
Layer_0
  10
247.47231
  20
253.1604
  0
VERTEX
  5
2e8
  8
Layer_0
  10
247.56799
  20
253.1414
  0
VERTEX
  5
2e9
  8
Layer_0
  10
247.64911
  20
253.0872
  0
VERTEX
  5
2ea
  8
Layer_0
  10
247.70331
  20
253.0061
  0
VERTEX
  5
2eb
  8
Layer_0
  10
247.72231
  20
252.9104
  0
VERTEX
  5
2ec
  8
Layer_0
  10
247.72231
  20
252.01041
  0
VERTEX
  5
2ed
  8
Layer_0
  10
247.70331
  20
251.91479
  0
VERTEX
  5
2ee
  8
Layer_0
  10
247.64911
  20
251.83371
  0
VERTEX
  5
2ef
  8
Layer_0
  10
247.56799
  20
251.77951
  0
VERTEX
  5
2f0
  8
Layer_0
  10
247.47231
  20
251.76041
  0
VERTEX
  5
2f1
  8
Layer_0
  10
246.9473
  20
251.76041
  0
VERTEX
  5
2f2
  8
Layer_0
  10
246.8517
  20
251.77951
  0
VERTEX
  5
2f3
  8
Layer_0
  10
246.7706
  20
251.83371
  0
VERTEX
  5
2f4
  8
Layer_0
  10
246.7164
  20
251.91479
  0
VERTEX
  5
2f5
  8
Layer_0
  10
246.6973
  20
252.01041
  0
VERTEX
  5
2f6
  8
Layer_0
  10
246.6973
  20
252.9104
  0
SEQEND
  0
POLYLINE
  5
2f8
  8
Layer_0
  62
0
  66
1
  10
0
  20
0
  30
0
  0
VERTEX
  5
2f8
  8
Layer_0
  10
185.35651
  20
237.147
  0
VERTEX
  5
2f9
  8
Layer_0
  10
185.3755
  20
237.24271
  0
VERTEX
  5
2fa
  8
Layer_0
  10
185.4297
  20
237.32381
  0
VERTEX
  5
2fb
  8
Layer_0
  10
185.5108
  20
237.37801
  0
VERTEX
  5
2fc
  8
Layer_0
  10
185.60651
  20
237.397
  0
VERTEX
  5
2fd
  8
Layer_0
  10
186.23151
  20
237.397
  0
VERTEX
  5
2fe
  8
Layer_0
  10
186.32721
  20
237.37801
  0
VERTEX
  5
2ff
  8
Layer_0
  10
186.40829
  20
237.32381
  0
VERTEX
  5
300
  8
Layer_0
  10
186.46251
  20
237.24271
  0
VERTEX
  5
301
  8
Layer_0
  10
186.48151
  20
237.147
  0
VERTEX
  5
302
  8
Layer_0
  10
186.48151
  20
235.897
  0
VERTEX
  5
303
  8
Layer_0
  10
186.46251
  20
235.8013
  0
VERTEX
  5
304
  8
Layer_0
  10
186.40829
  20
235.7202
  0
VERTEX
  5
305
  8
Layer_0
  10
186.32721
  20
235.666
  0
VERTEX
  5
306
  8
Layer_0
  10
186.23151
  20
235.647
  0
VERTEX
  5
307
  8
Layer_0
  10
185.60651
  20
235.647
  0
VERTEX
  5
308
  8
Layer_0
  10
185.5108
  20
235.666
  0
VERTEX
  5
309
  8
Layer_0
  10
185.4297
  20
235.7202
  0
VERTEX
  5
30a
  8
Layer_0
  10
185.3755
  20
235.8013
  0
VERTEX
  5
30b
  8
Layer_0
  10
185.35651
  20
235.897
  0
VERTEX
  5
30c
  8
Layer_0
  10
185.35651
  20
237.147
  0
SEQEND
  0
POLYLINE
  5
30e
  8
Layer_0
  62
0
  66
1
  10
0
  20
0
  30
0
  0
VERTEX
  5
30e
  8
Layer_0
  10
188.28149
  20
237.147
  0
VERTEX
  5
30f
  8
Layer_0
  10
188.30051
  20
237.24271
  0
VERTEX
  5
310
  8
Layer_0
  10
188.35471
  20
237.32381
  0
VERTEX
  5
311
  8
Layer_0
  10
188.43581
  20
237.37801
  0
VERTEX
  5
312
  8
Layer_0
  10
188.53149
  20
237.397
  0
VERTEX
  5
313
  8
Layer_0
  10
189.15649
  20
237.397
  0
VERTEX
  5
314
  8
Layer_0
  10
189.2522
  20
237.37801
  0
VERTEX
  5
315
  8
Layer_0
  10
189.3333
  20
237.32381
  0
VERTEX
  5
316
  8
Layer_0
  10
189.3875
  20
237.24271
  0
VERTEX
  5
317
  8
Layer_0
  10
189.40649
  20
237.147
  0
VERTEX
  5
318
  8
Layer_0
  10
189.40649
  20
235.897
  0
VERTEX
  5
319
  8
Layer_0
  10
189.3875
  20
235.8013
  0
VERTEX
  5
31a
  8
Layer_0
  10
189.3333
  20
235.7202
  0
VERTEX
  5
31b
  8
Layer_0
  10
189.2522
  20
235.666
  0
VERTEX
  5
31c
  8
Layer_0
  10
189.15649
  20
235.647
  0
VERTEX
  5
31d
  8
Layer_0
  10
188.53149
  20
235.647
  0
VERTEX
  5
31e
  8
Layer_0
  10
188.43581
  20
235.666
  0
VERTEX
  5
31f
  8
Layer_0
  10
188.35471
  20
235.7202
  0
VERTEX
  5
320
  8
Layer_0
  10
188.30051
  20
235.8013
  0
VERTEX
  5
321
  8
Layer_0
  10
188.28149
  20
235.897
  0
VERTEX
  5
322
  8
Layer_0
  10
188.28149
  20
237.147
  0
SEQEND
  0
POLYLINE
  5
324
  8
Layer_0
  62
0
  66
1
  10
0
  20
0
  30
0
  0
VERTEX
  5
324
  8
Layer_0
  10
205.2999
  20
261.75951
  0
VERTEX
  5
325
  8
Layer_0
  10
205.20419
  20
261.7785
  0
VERTEX
  5
326
  8
Layer_0
  10
205.12311
  20
261.8327
  0
VERTEX
  5
327
  8
Layer_0
  10
205.06891
  20
261.9138
  0
VERTEX
  5
328
  8
Layer_0
  10
205.0499
  20
262.00951
  0
VERTEX
  5
329
  8
Layer_0
  10
205.0499
  20
262.5345
  0
VERTEX
  5
32a
  8
Layer_0
  10
205.06891
  20
262.6302
  0
VERTEX
  5
32b
  8
Layer_0
  10
205.12311
  20
262.7113
  0
VERTEX
  5
32c
  8
Layer_0
  10
205.20419
  20
262.7655
  0
VERTEX
  5
32d
  8
Layer_0
  10
205.2999
  20
262.7845
  0
VERTEX
  5
32e
  8
Layer_0
  10
206.19991
  20
262.7845
  0
VERTEX
  5
32f
  8
Layer_0
  10
206.2955
  20
262.7655
  0
VERTEX
  5
330
  8
Layer_0
  10
206.37671
  20
262.7113
  0
VERTEX
  5
331
  8
Layer_0
  10
206.4308
  20
262.6302
  0
VERTEX
  5
332
  8
Layer_0
  10
206.44991
  20
262.5345
  0
VERTEX
  5
333
  8
Layer_0
  10
206.44991
  20
262.00951
  0
VERTEX
  5
334
  8
Layer_0
  10
206.4308
  20
261.9138
  0
VERTEX
  5
335
  8
Layer_0
  10
206.37671
  20
261.8327
  0
VERTEX
  5
336
  8
Layer_0
  10
206.2955
  20
261.7785
  0
VERTEX
  5
337
  8
Layer_0
  10
206.19991
  20
261.75951
  0
VERTEX
  5
338
  8
Layer_0
  10
205.2999
  20
261.75951
  0
SEQEND
  0
POLYLINE
  5
33a
  8
Layer_0
  62
0
  66
1
  10
0
  20
0
  30
0
  0
VERTEX
  5
33a
  8
Layer_0
  10
205.2999
  20
263.5845
  0
VERTEX
  5
33b
  8
Layer_0
  10
205.20419
  20
263.6035
  0
VERTEX
  5
33c
  8
Layer_0
  10
205.12311
  20
263.6577
  0
VERTEX
  5
33d
  8
Layer_0
  10
205.06891
  20
263.7388
  0
VERTEX
  5
33e
  8
Layer_0
  10
205.0499
  20
263.8345
  0
VERTEX
  5
33f
  8
Layer_0
  10
205.0499
  20
264.3595
  0
VERTEX
  5
340
  8
Layer_0
  10
205.06891
  20
264.4552
  0
VERTEX
  5
341
  8
Layer_0
  10
205.12311
  20
264.5363
  0
VERTEX
  5
342
  8
Layer_0
  10
205.20419
  20
264.5905
  0
VERTEX
  5
343
  8
Layer_0
  10
205.2999
  20
264.6095
  0
VERTEX
  5
344
  8
Layer_0
  10
206.19991
  20
264.6095
  0
VERTEX
  5
345
  8
Layer_0
  10
206.2955
  20
264.5905
  0
VERTEX
  5
346
  8
Layer_0
  10
206.37671
  20
264.5363
  0
VERTEX
  5
347
  8
Layer_0
  10
206.4308
  20
264.4552
  0
VERTEX
  5
348
  8
Layer_0
  10
206.44991
  20
264.3595
  0
VERTEX
  5
349
  8
Layer_0
  10
206.44991
  20
263.8345
  0
VERTEX
  5
34a
  8
Layer_0
  10
206.4308
  20
263.7388
  0
VERTEX
  5
34b
  8
Layer_0
  10
206.37671
  20
263.6577
  0
VERTEX
  5
34c
  8
Layer_0
  10
206.2955
  20
263.6035
  0
VERTEX
  5
34d
  8
Layer_0
  10
206.19991
  20
263.5845
  0
VERTEX
  5
34e
  8
Layer_0
  10
205.2999
  20
263.5845
  0
SEQEND
  0
POLYLINE
  5
350
  8
Layer_0
  62
0
  66
1
  10
0
  20
0
  30
0
  0
VERTEX
  5
350
  8
Layer_0
  10
216.3407
  20
252.9104
  0
VERTEX
  5
351
  8
Layer_0
  10
216.35971
  20
253.0061
  0
VERTEX
  5
352
  8
Layer_0
  10
216.41391
  20
253.0872
  0
VERTEX
  5
353
  8
Layer_0
  10
216.495
  20
253.1414
  0
VERTEX
  5
354
  8
Layer_0
  10
216.5907
  20
253.1604
  0
VERTEX
  5
355
  8
Layer_0
  10
217.11571
  20
253.1604
  0
VERTEX
  5
356
  8
Layer_0
  10
217.2113
  20
253.1414
  0
VERTEX
  5
357
  8
Layer_0
  10
217.2924
  20
253.0872
  0
VERTEX
  5
358
  8
Layer_0
  10
217.3466
  20
253.0061
  0
VERTEX
  5
359
  8
Layer_0
  10
217.36571
  20
252.9104
  0
VERTEX
  5
35a
  8
Layer_0
  10
217.36571
  20
252.01041
  0
VERTEX
  5
35b
  8
Layer_0
  10
217.3466
  20
251.91479
  0
VERTEX
  5
35c
  8
Layer_0
  10
217.2924
  20
251.83371
  0
VERTEX
  5
35d
  8
Layer_0
  10
217.2113
  20
251.77951
  0
VERTEX
  5
35e
  8
Layer_0
  10
217.11571
  20
251.76041
  0
VERTEX
  5
35f
  8
Layer_0
  10
216.5907
  20
251.76041
  0
VERTEX
  5
360
  8
Layer_0
  10
216.495
  20
251.77951
  0
VERTEX
  5
361
  8
Layer_0
  10
216.41391
  20
251.83371
  0
VERTEX
  5
362
  8
Layer_0
  10
216.35971
  20
251.91479
  0
VERTEX
  5
363
  8
Layer_0
  10
216.3407
  20
252.01041
  0
VERTEX
  5
364
  8
Layer_0
  10
216.3407
  20
252.9104
  0
SEQEND
  0
POLYLINE
  5
366
  8
Layer_0
  62
0
  66
1
  10
0
  20
0
  30
0
  0
VERTEX
  5
366
  8
Layer_0
  10
218.16571
  20
252.9104
  0
VERTEX
  5
367
  8
Layer_0
  10
218.18471
  20
253.0061
  0
VERTEX
  5
368
  8
Layer_0
  10
218.23891
  20
253.0872
  0
VERTEX
  5
369
  8
Layer_0
  10
218.32001
  20
253.1414
  0
VERTEX
  5
36a
  8
Layer_0
  10
218.41571
  20
253.1604
  0
VERTEX
  5
36b
  8
Layer_0
  10
218.9407
  20
253.1604
  0
VERTEX
  5
36c
  8
Layer_0
  10
219.0363
  20
253.1414
  0
VERTEX
  5
36d
  8
Layer_0
  10
219.1174
  20
253.0872
  0
VERTEX
  5
36e
  8
Layer_0
  10
219.1716
  20
253.0061
  0
VERTEX
  5
36f
  8
Layer_0
  10
219.1907
  20
252.9104
  0
VERTEX
  5
370
  8
Layer_0
  10
219.1907
  20
252.01041
  0
VERTEX
  5
371
  8
Layer_0
  10
219.1716
  20
251.91479
  0
VERTEX
  5
372
  8
Layer_0
  10
219.1174
  20
251.83371
  0
VERTEX
  5
373
  8
Layer_0
  10
219.0363
  20
251.77951
  0
VERTEX
  5
374
  8
Layer_0
  10
218.9407
  20
251.76041
  0
VERTEX
  5
375
  8
Layer_0
  10
218.41571
  20
251.76041
  0
VERTEX
  5
376
  8
Layer_0
  10
218.32001
  20
251.77951
  0
VERTEX
  5
377
  8
Layer_0
  10
218.23891
  20
251.83371
  0
VERTEX
  5
378
  8
Layer_0
  10
218.18471
  20
251.91479
  0
VERTEX
  5
379
  8
Layer_0
  10
218.16571
  20
252.01041
  0
VERTEX
  5
37a
  8
Layer_0
  10
218.16571
  20
252.9104
  0
SEQEND
  0
POLYLINE
  5
37c
  8
Layer_0
  62
0
  66
1
  10
0
  20
0
  30
0
  0
VERTEX
  5
37c
  8
Layer_0
  10
218.69101
  20
264.7283
  0
VERTEX
  5
37d
  8
Layer_0
  10
218.70959
  20
264.8215
  0
VERTEX
  5
37e
  8
Layer_0
  10
218.76241
  20
264.9006
  0
VERTEX
  5
37f
  8
Layer_0
  10
218.84151
  20
264.9534
  0
VERTEX
  5
380
  8
Layer_0
  10
218.9348
  20
264.972
  0
VERTEX
  5
381
  8
Layer_0
  10
219.4223
  20
264.972
  0
VERTEX
  5
382
  8
Layer_0
  10
219.51559
  20
264.9534
  0
VERTEX
  5
383
  8
Layer_0
  10
219.5947
  20
264.9006
  0
VERTEX
  5
384
  8
Layer_0
  10
219.64751
  20
264.8215
  0
VERTEX
  5
385
  8
Layer_0
  10
219.666
  20
264.7283
  0
VERTEX
  5
386
  8
Layer_0
  10
219.666
  20
263.8157
  0
VERTEX
  5
387
  8
Layer_0
  10
219.64751
  20
263.7225
  0
VERTEX
  5
388
  8
Layer_0
  10
219.5947
  20
263.6434
  0
VERTEX
  5
389
  8
Layer_0
  10
219.51559
  20
263.59061
  0
VERTEX
  5
38a
  8
Layer_0
  10
219.4223
  20
263.57201
  0
VERTEX
  5
38b
  8
Layer_0
  10
218.9348
  20
263.57201
  0
VERTEX
  5
38c
  8
Layer_0
  10
218.84151
  20
263.59061
  0
VERTEX
  5
38d
  8
Layer_0
  10
218.76241
  20
263.6434
  0
VERTEX
  5
38e
  8
Layer_0
  10
218.70959
  20
263.7225
  0
VERTEX
  5
38f
  8
Layer_0
  10
218.69101
  20
263.8157
  0
VERTEX
  5
390
  8
Layer_0
  10
218.69101
  20
264.7283
  0
SEQEND
  0
POLYLINE
  5
392
  8
Layer_0
  62
0
  66
1
  10
0
  20
0
  30
0
  0
VERTEX
  5
392
  8
Layer_0
  10
220.56601
  20
264.7283
  0
VERTEX
  5
393
  8
Layer_0
  10
220.58459
  20
264.8215
  0
VERTEX
  5
394
  8
Layer_0
  10
220.63741
  20
264.9006
  0
VERTEX
  5
395
  8
Layer_0
  10
220.71651
  20
264.9534
  0
VERTEX
  5
396
  8
Layer_0
  10
220.8098
  20
264.972
  0
VERTEX
  5
397
  8
Layer_0
  10
221.2973
  20
264.972
  0
VERTEX
  5
398
  8
Layer_0
  10
221.39059
  20
264.9534
  0
VERTEX
  5
399
  8
Layer_0
  10
221.4697
  20
264.9006
  0
VERTEX
  5
39a
  8
Layer_0
  10
221.52251
  20
264.8215
  0
VERTEX
  5
39b
  8
Layer_0
  10
221.541
  20
264.7283
  0
VERTEX
  5
39c
  8
Layer_0
  10
221.541
  20
263.8157
  0
VERTEX
  5
39d
  8
Layer_0
  10
221.52251
  20
263.7225
  0
VERTEX
  5
39e
  8
Layer_0
  10
221.4697
  20
263.6434
  0
VERTEX
  5
39f
  8
Layer_0
  10
221.39059
  20
263.59061
  0
VERTEX
  5
3a0
  8
Layer_0
  10
221.2973
  20
263.57201
  0
VERTEX
  5
3a1
  8
Layer_0
  10
220.8098
  20
263.57201
  0
VERTEX
  5
3a2
  8
Layer_0
  10
220.71651
  20
263.59061
  0
VERTEX
  5
3a3
  8
Layer_0
  10
220.63741
  20
263.6434
  0
VERTEX
  5
3a4
  8
Layer_0
  10
220.58459
  20
263.7225
  0
VERTEX
  5
3a5
  8
Layer_0
  10
220.56601
  20
263.8157
  0
VERTEX
  5
3a6
  8
Layer_0
  10
220.56601
  20
264.7283
  0
SEQEND
  0
POLYLINE
  5
3a8
  8
Layer_0
  62
0
  66
1
  10
0
  20
0
  30
0
  0
VERTEX
  5
3a8
  8
Layer_0
  10
224.1255
  20
249.24701
  0
VERTEX
  5
3a9
  8
Layer_0
  10
224.22121
  20
249.228
  0
VERTEX
  5
3aa
  8
Layer_0
  10
224.30231
  20
249.1738
  0
VERTEX
  5
3ab
  8
Layer_0
  10
224.35651
  20
249.0927
  0
VERTEX
  5
3ac
  8
Layer_0
  10
224.3755
  20
248.99701
  0
VERTEX
  5
3ad
  8
Layer_0
  10
224.3755
  20
248.472
  0
VERTEX
  5
3ae
  8
Layer_0
  10
224.35651
  20
248.37631
  0
VERTEX
  5
3af
  8
Layer_0
  10
224.30231
  20
248.2952
  0
VERTEX
  5
3b0
  8
Layer_0
  10
224.22121
  20
248.241
  0
VERTEX
  5
3b1
  8
Layer_0
  10
224.1255
  20
248.222
  0
VERTEX
  5
3b2
  8
Layer_0
  10
223.22549
  20
248.222
  0
VERTEX
  5
3b3
  8
Layer_0
  10
223.12981
  20
248.241
  0
VERTEX
  5
3b4
  8
Layer_0
  10
223.04871
  20
248.2952
  0
VERTEX
  5
3b5
  8
Layer_0
  10
222.99451
  20
248.37631
  0
VERTEX
  5
3b6
  8
Layer_0
  10
222.97549
  20
248.472
  0
VERTEX
  5
3b7
  8
Layer_0
  10
222.97549
  20
248.99701
  0
VERTEX
  5
3b8
  8
Layer_0
  10
222.99451
  20
249.0927
  0
VERTEX
  5
3b9
  8
Layer_0
  10
223.04871
  20
249.1738
  0
VERTEX
  5
3ba
  8
Layer_0
  10
223.12981
  20
249.228
  0
VERTEX
  5
3bb
  8
Layer_0
  10
223.22549
  20
249.24701
  0
VERTEX
  5
3bc
  8
Layer_0
  10
224.1255
  20
249.24701
  0
SEQEND
  0
POLYLINE
  5
3be
  8
Layer_0
  62
0
  66
1
  10
0
  20
0
  30
0
  0
VERTEX
  5
3be
  8
Layer_0
  10
224.1255
  20
247.422
  0
VERTEX
  5
3bf
  8
Layer_0
  10
224.22121
  20
247.403
  0
VERTEX
  5
3c0
  8
Layer_0
  10
224.30231
  20
247.3488
  0
VERTEX
  5
3c1
  8
Layer_0
  10
224.35651
  20
247.2677
  0
VERTEX
  5
3c2
  8
Layer_0
  10
224.3755
  20
247.172
  0
VERTEX
  5
3c3
  8
Layer_0
  10
224.3755
  20
246.647
  0
VERTEX
  5
3c4
  8
Layer_0
  10
224.35651
  20
246.5513
  0
VERTEX
  5
3c5
  8
Layer_0
  10
224.30231
  20
246.4702
  0
VERTEX
  5
3c6
  8
Layer_0
  10
224.22121
  20
246.416
  0
VERTEX
  5
3c7
  8
Layer_0
  10
224.1255
  20
246.397
  0
VERTEX
  5
3c8
  8
Layer_0
  10
223.22549
  20
246.397
  0
VERTEX
  5
3c9
  8
Layer_0
  10
223.12981
  20
246.416
  0
VERTEX
  5
3ca
  8
Layer_0
  10
223.04871
  20
246.4702
  0
VERTEX
  5
3cb
  8
Layer_0
  10
222.99451
  20
246.5513
  0
VERTEX
  5
3cc
  8
Layer_0
  10
222.97549
  20
246.647
  0
VERTEX
  5
3cd
  8
Layer_0
  10
222.97549
  20
247.172
  0
VERTEX
  5
3ce
  8
Layer_0
  10
222.99451
  20
247.2677
  0
VERTEX
  5
3cf
  8
Layer_0
  10
223.04871
  20
247.3488
  0
VERTEX
  5
3d0
  8
Layer_0
  10
223.12981
  20
247.403
  0
VERTEX
  5
3d1
  8
Layer_0
  10
223.22549
  20
247.422
  0
VERTEX
  5
3d2
  8
Layer_0
  10
224.1255
  20
247.422
  0
SEQEND
  0
POLYLINE
  5
3d4
  8
Layer_0
  62
0
  66
1
  10
0
  20
0
  30
0
  0
VERTEX
  5
3d4
  8
Layer_0
  10
203.6015
  20
238.707
  0
VERTEX
  5
3d5
  8
Layer_0
  10
203.6118
  20
238.7587
  0
VERTEX
  5
3d6
  8
Layer_0
  10
203.64101
  20
238.80251
  0
VERTEX
  5
3d7
  8
Layer_0
  10
203.6848
  20
238.8317
  0
VERTEX
  5
3d8
  8
Layer_0
  10
203.73651
  20
238.84201
  0
VERTEX
  5
3d9
  8
Layer_0
  10
204.0065
  20
238.84201
  0
VERTEX
  5
3da
  8
Layer_0
  10
204.0582
  20
238.8317
  0
VERTEX
  5
3db
  8
Layer_0
  10
204.10201
  20
238.80251
  0
VERTEX
  5
3dc
  8
Layer_0
  10
204.1312
  20
238.7587
  0
VERTEX
  5
3dd
  8
Layer_0
  10
204.14151
  20
238.707
  0
VERTEX
  5
3de
  8
Layer_0
  10
204.14151
  20
238.33701
  0
VERTEX
  5
3df
  8
Layer_0
  10
204.1312
  20
238.28531
  0
VERTEX
  5
3e0
  8
Layer_0
  10
204.10201
  20
238.2415
  0
VERTEX
  5
3e1
  8
Layer_0
  10
204.0582
  20
238.21231
  0
VERTEX
  5
3e2
  8
Layer_0
  10
204.0065
  20
238.202
  0
VERTEX
  5
3e3
  8
Layer_0
  10
203.73651
  20
238.202
  0
VERTEX
  5
3e4
  8
Layer_0
  10
203.6848
  20
238.21231
  0
VERTEX
  5
3e5
  8
Layer_0
  10
203.64101
  20
238.2415
  0
VERTEX
  5
3e6
  8
Layer_0
  10
203.6118
  20
238.28531
  0
VERTEX
  5
3e7
  8
Layer_0
  10
203.6015
  20
238.33701
  0
VERTEX
  5
3e8
  8
Layer_0
  10
203.6015
  20
238.707
  0
SEQEND
  0
POLYLINE
  5
3ea
  8
Layer_0
  62
0
  66
1
  10
0
  20
0
  30
0
  0
VERTEX
  5
3ea
  8
Layer_0
  10
204.62151
  20
238.707
  0
VERTEX
  5
3eb
  8
Layer_0
  10
204.63181
  20
238.7587
  0
VERTEX
  5
3ec
  8
Layer_0
  10
204.66101
  20
238.80251
  0
VERTEX
  5
3ed
  8
Layer_0
  10
204.7048
  20
238.8317
  0
VERTEX
  5
3ee
  8
Layer_0
  10
204.7565
  20
238.84201
  0
VERTEX
  5
3ef
  8
Layer_0
  10
205.0265
  20
238.84201
  0
VERTEX
  5
3f0
  8
Layer_0
  10
205.0782
  20
238.8317
  0
VERTEX
  5
3f1
  8
Layer_0
  10
205.12201
  20
238.80251
  0
VERTEX
  5
3f2
  8
Layer_0
  10
205.1512
  20
238.7587
  0
VERTEX
  5
3f3
  8
Layer_0
  10
205.1615
  20
238.707
  0
VERTEX
  5
3f4
  8
Layer_0
  10
205.1615
  20
238.33701
  0
VERTEX
  5
3f5
  8
Layer_0
  10
205.1512
  20
238.28531
  0
VERTEX
  5
3f6
  8
Layer_0
  10
205.12201
  20
238.2415
  0
VERTEX
  5
3f7
  8
Layer_0
  10
205.0782
  20
238.21231
  0
VERTEX
  5
3f8
  8
Layer_0
  10
205.0265
  20
238.202
  0
VERTEX
  5
3f9
  8
Layer_0
  10
204.7565
  20
238.202
  0
VERTEX
  5
3fa
  8
Layer_0
  10
204.7048
  20
238.21231
  0
VERTEX
  5
3fb
  8
Layer_0
  10
204.66101
  20
238.2415
  0
VERTEX
  5
3fc
  8
Layer_0
  10
204.63181
  20
238.28531
  0
VERTEX
  5
3fd
  8
Layer_0
  10
204.62151
  20
238.33701
  0
VERTEX
  5
3fe
  8
Layer_0
  10
204.62151
  20
238.707
  0
SEQEND
  0
POLYLINE
  5
400
  8
Layer_0
  62
0
  66
1
  10
0
  20
0
  30
0
  0
VERTEX
  5
400
  8
Layer_0
  10
189.40649
  20
239.397
  0
VERTEX
  5
401
  8
Layer_0
  10
189.3875
  20
239.3013
  0
VERTEX
  5
402
  8
Layer_0
  10
189.3333
  20
239.2202
  0
VERTEX
  5
403
  8
Layer_0
  10
189.2522
  20
239.166
  0
VERTEX
  5
404
  8
Layer_0
  10
189.15649
  20
239.147
  0
VERTEX
  5
405
  8
Layer_0
  10
188.53149
  20
239.147
  0
VERTEX
  5
406
  8
Layer_0
  10
188.43581
  20
239.166
  0
VERTEX
  5
407
  8
Layer_0
  10
188.35471
  20
239.2202
  0
VERTEX
  5
408
  8
Layer_0
  10
188.30051
  20
239.3013
  0
VERTEX
  5
409
  8
Layer_0
  10
188.28149
  20
239.397
  0
VERTEX
  5
40a
  8
Layer_0
  10
188.28149
  20
240.647
  0
VERTEX
  5
40b
  8
Layer_0
  10
188.30051
  20
240.74271
  0
VERTEX
  5
40c
  8
Layer_0
  10
188.35471
  20
240.82381
  0
VERTEX
  5
40d
  8
Layer_0
  10
188.43581
  20
240.87801
  0
VERTEX
  5
40e
  8
Layer_0
  10
188.53149
  20
240.897
  0
VERTEX
  5
40f
  8
Layer_0
  10
189.15649
  20
240.897
  0
VERTEX
  5
410
  8
Layer_0
  10
189.2522
  20
240.87801
  0
VERTEX
  5
411
  8
Layer_0
  10
189.3333
  20
240.82381
  0
VERTEX
  5
412
  8
Layer_0
  10
189.3875
  20
240.74271
  0
VERTEX
  5
413
  8
Layer_0
  10
189.40649
  20
240.647
  0
VERTEX
  5
414
  8
Layer_0
  10
189.40649
  20
239.397
  0
SEQEND
  0
POLYLINE
  5
416
  8
Layer_0
  62
0
  66
1
  10
0
  20
0
  30
0
  0
VERTEX
  5
416
  8
Layer_0
  10
186.48151
  20
239.397
  0
VERTEX
  5
417
  8
Layer_0
  10
186.46251
  20
239.3013
  0
VERTEX
  5
418
  8
Layer_0
  10
186.40829
  20
239.2202
  0
VERTEX
  5
419
  8
Layer_0
  10
186.32721
  20
239.166
  0
VERTEX
  5
41a
  8
Layer_0
  10
186.23151
  20
239.147
  0
VERTEX
  5
41b
  8
Layer_0
  10
185.60651
  20
239.147
  0
VERTEX
  5
41c
  8
Layer_0
  10
185.5108
  20
239.166
  0
VERTEX
  5
41d
  8
Layer_0
  10
185.4297
  20
239.2202
  0
VERTEX
  5
41e
  8
Layer_0
  10
185.3755
  20
239.3013
  0
VERTEX
  5
41f
  8
Layer_0
  10
185.35651
  20
239.397
  0
VERTEX
  5
420
  8
Layer_0
  10
185.35651
  20
240.647
  0
VERTEX
  5
421
  8
Layer_0
  10
185.3755
  20
240.74271
  0
VERTEX
  5
422
  8
Layer_0
  10
185.4297
  20
240.82381
  0
VERTEX
  5
423
  8
Layer_0
  10
185.5108
  20
240.87801
  0
VERTEX
  5
424
  8
Layer_0
  10
185.60651
  20
240.897
  0
VERTEX
  5
425
  8
Layer_0
  10
186.23151
  20
240.897
  0
VERTEX
  5
426
  8
Layer_0
  10
186.32721
  20
240.87801
  0
VERTEX
  5
427
  8
Layer_0
  10
186.40829
  20
240.82381
  0
VERTEX
  5
428
  8
Layer_0
  10
186.46251
  20
240.74271
  0
VERTEX
  5
429
  8
Layer_0
  10
186.48151
  20
240.647
  0
VERTEX
  5
42a
  8
Layer_0
  10
186.48151
  20
239.397
  0
SEQEND
  0
POLYLINE
  5
42c
  8
Layer_0
  62
0
  66
1
  10
0
  20
0
  30
0
  0
VERTEX
  5
42c
  8
Layer_0
  10
230.60651
  20
263.27521
  0
VERTEX
  5
42d
  8
Layer_0
  10
230.6255
  20
263.3708
  0
VERTEX
  5
42e
  8
Layer_0
  10
230.6797
  20
263.452
  0
VERTEX
  5
42f
  8
Layer_0
  10
230.7608
  20
263.5061
  0
VERTEX
  5
430
  8
Layer_0
  10
230.85651
  20
263.52521
  0
VERTEX
  5
431
  8
Layer_0
  10
231.3815
  20
263.52521
  0
VERTEX
  5
432
  8
Layer_0
  10
231.4772
  20
263.5061
  0
VERTEX
  5
433
  8
Layer_0
  10
231.5583
  20
263.452
  0
VERTEX
  5
434
  8
Layer_0
  10
231.6125
  20
263.3708
  0
VERTEX
  5
435
  8
Layer_0
  10
231.6315
  20
263.27521
  0
VERTEX
  5
436
  8
Layer_0
  10
231.6315
  20
262.3752
  0
VERTEX
  5
437
  8
Layer_0
  10
231.6125
  20
262.27951
  0
VERTEX
  5
438
  8
Layer_0
  10
231.5583
  20
262.19839
  0
VERTEX
  5
439
  8
Layer_0
  10
231.4772
  20
262.1442
  0
VERTEX
  5
43a
  8
Layer_0
  10
231.3815
  20
262.1252
  0
VERTEX
  5
43b
  8
Layer_0
  10
230.85651
  20
262.1252
  0
VERTEX
  5
43c
  8
Layer_0
  10
230.7608
  20
262.1442
  0
VERTEX
  5
43d
  8
Layer_0
  10
230.6797
  20
262.19839
  0
VERTEX
  5
43e
  8
Layer_0
  10
230.6255
  20
262.27951
  0
VERTEX
  5
43f
  8
Layer_0
  10
230.60651
  20
262.3752
  0
VERTEX
  5
440
  8
Layer_0
  10
230.60651
  20
263.27521
  0
SEQEND
  0
POLYLINE
  5
442
  8
Layer_0
  62
0
  66
1
  10
0
  20
0
  30
0
  0
VERTEX
  5
442
  8
Layer_0
  10
232.4315
  20
263.27521
  0
VERTEX
  5
443
  8
Layer_0
  10
232.4505
  20
263.3708
  0
VERTEX
  5
444
  8
Layer_0
  10
232.5047
  20
263.452
  0
VERTEX
  5
445
  8
Layer_0
  10
232.5858
  20
263.5061
  0
VERTEX
  5
446
  8
Layer_0
  10
232.6815
  20
263.52521
  0
VERTEX
  5
447
  8
Layer_0
  10
233.2065
  20
263.52521
  0
VERTEX
  5
448
  8
Layer_0
  10
233.3022
  20
263.5061
  0
VERTEX
  5
449
  8
Layer_0
  10
233.3833
  20
263.452
  0
VERTEX
  5
44a
  8
Layer_0
  10
233.4375
  20
263.3708
  0
VERTEX
  5
44b
  8
Layer_0
  10
233.4565
  20
263.27521
  0
VERTEX
  5
44c
  8
Layer_0
  10
233.4565
  20
262.3752
  0
VERTEX
  5
44d
  8
Layer_0
  10
233.4375
  20
262.27951
  0
VERTEX
  5
44e
  8
Layer_0
  10
233.3833
  20
262.19839
  0
VERTEX
  5
44f
  8
Layer_0
  10
233.3022
  20
262.1442
  0
VERTEX
  5
450
  8
Layer_0
  10
233.2065
  20
262.1252
  0
VERTEX
  5
451
  8
Layer_0
  10
232.6815
  20
262.1252
  0
VERTEX
  5
452
  8
Layer_0
  10
232.5858
  20
262.1442
  0
VERTEX
  5
453
  8
Layer_0
  10
232.5047
  20
262.19839
  0
VERTEX
  5
454
  8
Layer_0
  10
232.4505
  20
262.27951
  0
VERTEX
  5
455
  8
Layer_0
  10
232.4315
  20
262.3752
  0
VERTEX
  5
456
  8
Layer_0
  10
232.4315
  20
263.27521
  0
SEQEND
  0
POLYLINE
  5
458
  8
Layer_0
  62
0
  66
1
  10
0
  20
0
  30
0
  0
VERTEX
  5
458
  8
Layer_0
  10
200.40649
  20
257.7688
  0
VERTEX
  5
459
  8
Layer_0
  10
200.31081
  20
257.7879
  0
VERTEX
  5
45a
  8
Layer_0
  10
200.22971
  20
257.84201
  0
VERTEX
  5
45b
  8
Layer_0
  10
200.17551
  20
257.9232
  0
VERTEX
  5
45c
  8
Layer_0
  10
200.15649
  20
258.0188
  0
VERTEX
  5
45d
  8
Layer_0
  10
200.15649
  20
258.5188
  0
VERTEX
  5
45e
  8
Layer_0
  10
200.17551
  20
258.6145
  0
VERTEX
  5
45f
  8
Layer_0
  10
200.22971
  20
258.6956
  0
VERTEX
  5
460
  8
Layer_0
  10
200.31081
  20
258.7498
  0
VERTEX
  5
461
  8
Layer_0
  10
200.40649
  20
258.7688
  0
VERTEX
  5
462
  8
Layer_0
  10
201.35651
  20
258.7688
  0
VERTEX
  5
463
  8
Layer_0
  10
201.45221
  20
258.7498
  0
VERTEX
  5
464
  8
Layer_0
  10
201.53329
  20
258.6956
  0
VERTEX
  5
465
  8
Layer_0
  10
201.58749
  20
258.6145
  0
VERTEX
  5
466
  8
Layer_0
  10
201.60651
  20
258.5188
  0
VERTEX
  5
467
  8
Layer_0
  10
201.60651
  20
258.0188
  0
VERTEX
  5
468
  8
Layer_0
  10
201.58749
  20
257.9232
  0
VERTEX
  5
469
  8
Layer_0
  10
201.53329
  20
257.84201
  0
VERTEX
  5
46a
  8
Layer_0
  10
201.45221
  20
257.7879
  0
VERTEX
  5
46b
  8
Layer_0
  10
201.35651
  20
257.7688
  0
VERTEX
  5
46c
  8
Layer_0
  10
200.40649
  20
257.7688
  0
SEQEND
  0
POLYLINE
  5
46e
  8
Layer_0
  62
0
  66
1
  10
0
  20
0
  30
0
  0
VERTEX
  5
46e
  8
Layer_0
  10
200.40649
  20
259.66881
  0
VERTEX
  5
46f
  8
Layer_0
  10
200.31081
  20
259.6879
  0
VERTEX
  5
470
  8
Layer_0
  10
200.22971
  20
259.742
  0
VERTEX
  5
471
  8
Layer_0
  10
200.17551
  20
259.82321
  0
VERTEX
  5
472
  8
Layer_0
  10
200.15649
  20
259.91881
  0
VERTEX
  5
473
  8
Layer_0
  10
200.15649
  20
260.41881
  0
VERTEX
  5
474
  8
Layer_0
  10
200.17551
  20
260.5145
  0
VERTEX
  5
475
  8
Layer_0
  10
200.22971
  20
260.59561
  0
VERTEX
  5
476
  8
Layer_0
  10
200.31081
  20
260.64981
  0
VERTEX
  5
477
  8
Layer_0
  10
200.40649
  20
260.66881
  0
VERTEX
  5
478
  8
Layer_0
  10
201.35651
  20
260.66881
  0
VERTEX
  5
479
  8
Layer_0
  10
201.45221
  20
260.64981
  0
VERTEX
  5
47a
  8
Layer_0
  10
201.53329
  20
260.59561
  0
VERTEX
  5
47b
  8
Layer_0
  10
201.58749
  20
260.5145
  0
VERTEX
  5
47c
  8
Layer_0
  10
201.60651
  20
260.41881
  0
VERTEX
  5
47d
  8
Layer_0
  10
201.60651
  20
259.91881
  0
VERTEX
  5
47e
  8
Layer_0
  10
201.58749
  20
259.82321
  0
VERTEX
  5
47f
  8
Layer_0
  10
201.53329
  20
259.742
  0
VERTEX
  5
480
  8
Layer_0
  10
201.45221
  20
259.6879
  0
VERTEX
  5
481
  8
Layer_0
  10
201.35651
  20
259.66881
  0
VERTEX
  5
482
  8
Layer_0
  10
200.40649
  20
259.66881
  0
SEQEND
  0
POLYLINE
  5
484
  8
Layer_0
  62
0
  66
1
  10
0
  20
0
  30
0
  0
VERTEX
  5
484
  8
Layer_0
  10
249.4679
  20
242.3676
  0
VERTEX
  5
485
  8
Layer_0
  10
249.4864
  20
242.46091
  0
VERTEX
  5
486
  8
Layer_0
  10
249.53931
  20
242.5399
  0
VERTEX
  5
487
  8
Layer_0
  10
249.61841
  20
242.5928
  0
VERTEX
  5
488
  8
Layer_0
  10
249.71161
  20
242.6113
  0
VERTEX
  5
489
  8
Layer_0
  10
250.1991
  20
242.6113
  0
VERTEX
  5
48a
  8
Layer_0
  10
250.2924
  20
242.5928
  0
VERTEX
  5
48b
  8
Layer_0
  10
250.37151
  20
242.5399
  0
VERTEX
  5
48c
  8
Layer_0
  10
250.4243
  20
242.46091
  0
VERTEX
  5
48d
  8
Layer_0
  10
250.4429
  20
242.3676
  0
VERTEX
  5
48e
  8
Layer_0
  10
250.4429
  20
241.45511
  0
VERTEX
  5
48f
  8
Layer_0
  10
250.4243
  20
241.3618
  0
VERTEX
  5
490
  8
Layer_0
  10
250.37151
  20
241.2827
  0
VERTEX
  5
491
  8
Layer_0
  10
250.2924
  20
241.2299
  0
VERTEX
  5
492
  8
Layer_0
  10
250.1991
  20
241.2113
  0
VERTEX
  5
493
  8
Layer_0
  10
249.71161
  20
241.2113
  0
VERTEX
  5
494
  8
Layer_0
  10
249.61841
  20
241.2299
  0
VERTEX
  5
495
  8
Layer_0
  10
249.53931
  20
241.2827
  0
VERTEX
  5
496
  8
Layer_0
  10
249.4864
  20
241.3618
  0
VERTEX
  5
497
  8
Layer_0
  10
249.4679
  20
241.45511
  0
VERTEX
  5
498
  8
Layer_0
  10
249.4679
  20
242.3676
  0
SEQEND
  0
POLYLINE
  5
49a
  8
Layer_0
  62
0
  66
1
  10
0
  20
0
  30
0
  0
VERTEX
  5
49a
  8
Layer_0
  10
251.3429
  20
242.3676
  0
VERTEX
  5
49b
  8
Layer_0
  10
251.3614
  20
242.46091
  0
VERTEX
  5
49c
  8
Layer_0
  10
251.41431
  20
242.5399
  0
VERTEX
  5
49d
  8
Layer_0
  10
251.49341
  20
242.5928
  0
VERTEX
  5
49e
  8
Layer_0
  10
251.58661
  20
242.6113
  0
VERTEX
  5
49f
  8
Layer_0
  10
252.0741
  20
242.6113
  0
VERTEX
  5
4a0
  8
Layer_0
  10
252.1674
  20
242.5928
  0
VERTEX
  5
4a1
  8
Layer_0
  10
252.24651
  20
242.5399
  0
VERTEX
  5
4a2
  8
Layer_0
  10
252.2993
  20
242.46091
  0
VERTEX
  5
4a3
  8
Layer_0
  10
252.3179
  20
242.3676
  0
VERTEX
  5
4a4
  8
Layer_0
  10
252.3179
  20
241.45511
  0
VERTEX
  5
4a5
  8
Layer_0
  10
252.2993
  20
241.3618
  0
VERTEX
  5
4a6
  8
Layer_0
  10
252.24651
  20
241.2827
  0
VERTEX
  5
4a7
  8
Layer_0
  10
252.1674
  20
241.2299
  0
VERTEX
  5
4a8
  8
Layer_0
  10
252.0741
  20
241.2113
  0
VERTEX
  5
4a9
  8
Layer_0
  10
251.58661
  20
241.2113
  0
VERTEX
  5
4aa
  8
Layer_0
  10
251.49341
  20
241.2299
  0
VERTEX
  5
4ab
  8
Layer_0
  10
251.41431
  20
241.2827
  0
VERTEX
  5
4ac
  8
Layer_0
  10
251.3614
  20
241.3618
  0
VERTEX
  5
4ad
  8
Layer_0
  10
251.3429
  20
241.45511
  0
VERTEX
  5
4ae
  8
Layer_0
  10
251.3429
  20
242.3676
  0
SEQEND
  0
POLYLINE
  5
4b0
  8
Layer_0
  62
0
  66
1
  10
0
  20
0
  30
0
  0
VERTEX
  5
4b0
  8
Layer_0
  10
225.8215
  20
248.472
  0
VERTEX
  5
4b1
  8
Layer_0
  10
225.8215
  20
249.07201
  0
VERTEX
  5
4b2
  8
Layer_0
  10
226.62151
  20
249.07201
  0
VERTEX
  5
4b3
  8
Layer_0
  10
226.62151
  20
248.472
  0
VERTEX
  5
4b4
  8
Layer_0
  10
225.8215
  20
248.472
  0
SEQEND
  0
POLYLINE
  5
4b6
  8
Layer_0
  62
0
  66
1
  10
0
  20
0
  30
0
  0
VERTEX
  5
4b6
  8
Layer_0
  10
225.8215
  20
246.57201
  0
VERTEX
  5
4b7
  8
Layer_0
  10
225.8215
  20
247.172
  0
VERTEX
  5
4b8
  8
Layer_0
  10
226.62151
  20
247.172
  0
VERTEX
  5
4b9
  8
Layer_0
  10
226.62151
  20
246.57201
  0
VERTEX
  5
4ba
  8
Layer_0
  10
225.8215
  20
246.57201
  0
SEQEND
  0
POLYLINE
  5
4bc
  8
Layer_0
  62
0
  66
1
  10
0
  20
0
  30
0
  0
VERTEX
  5
4bc
  8
Layer_0
  10
227.84151
  20
247.522
  0
VERTEX
  5
4bd
  8
Layer_0
  10
227.84151
  20
248.12201
  0
VERTEX
  5
4be
  8
Layer_0
  10
228.64151
  20
248.12201
  0
VERTEX
  5
4bf
  8
Layer_0
  10
228.64151
  20
247.522
  0
VERTEX
  5
4c0
  8
Layer_0
  10
227.84151
  20
247.522
  0
SEQEND
  0
POLYLINE
  5
4c2
  8
Layer_0
  62
0
  66
1
  10
0
  20
0
  30
0
  0
VERTEX
  5
4c2
  8
Layer_0
  10
219.1907
  20
242.7399
  0
VERTEX
  5
4c3
  8
Layer_0
  10
219.1716
  20
242.6443
  0
VERTEX
  5
4c4
  8
Layer_0
  10
219.1174
  20
242.56311
  0
VERTEX
  5
4c5
  8
Layer_0
  10
219.0363
  20
242.509
  0
VERTEX
  5
4c6
  8
Layer_0
  10
218.9407
  20
242.4899
  0
VERTEX
  5
4c7
  8
Layer_0
  10
218.41571
  20
242.4899
  0
VERTEX
  5
4c8
  8
Layer_0
  10
218.32001
  20
242.509
  0
VERTEX
  5
4c9
  8
Layer_0
  10
218.23891
  20
242.56311
  0
VERTEX
  5
4ca
  8
Layer_0
  10
218.18471
  20
242.6443
  0
VERTEX
  5
4cb
  8
Layer_0
  10
218.16571
  20
242.7399
  0
VERTEX
  5
4cc
  8
Layer_0
  10
218.16571
  20
243.63991
  0
VERTEX
  5
4cd
  8
Layer_0
  10
218.18471
  20
243.7356
  0
VERTEX
  5
4ce
  8
Layer_0
  10
218.23891
  20
243.81671
  0
VERTEX
  5
4cf
  8
Layer_0
  10
218.32001
  20
243.87091
  0
VERTEX
  5
4d0
  8
Layer_0
  10
218.41571
  20
243.88991
  0
VERTEX
  5
4d1
  8
Layer_0
  10
218.9407
  20
243.88991
  0
VERTEX
  5
4d2
  8
Layer_0
  10
219.0363
  20
243.87091
  0
VERTEX
  5
4d3
  8
Layer_0
  10
219.1174
  20
243.81671
  0
VERTEX
  5
4d4
  8
Layer_0
  10
219.1716
  20
243.7356
  0
VERTEX
  5
4d5
  8
Layer_0
  10
219.1907
  20
243.63991
  0
VERTEX
  5
4d6
  8
Layer_0
  10
219.1907
  20
242.7399
  0
SEQEND
  0
POLYLINE
  5
4d8
  8
Layer_0
  62
0
  66
1
  10
0
  20
0
  30
0
  0
VERTEX
  5
4d8
  8
Layer_0
  10
217.36571
  20
242.7399
  0
VERTEX
  5
4d9
  8
Layer_0
  10
217.3466
  20
242.6443
  0
VERTEX
  5
4da
  8
Layer_0
  10
217.2924
  20
242.56311
  0
VERTEX
  5
4db
  8
Layer_0
  10
217.2113
  20
242.509
  0
VERTEX
  5
4dc
  8
Layer_0
  10
217.11571
  20
242.4899
  0
VERTEX
  5
4dd
  8
Layer_0
  10
216.5907
  20
242.4899
  0
VERTEX
  5
4de
  8
Layer_0
  10
216.495
  20
242.509
  0
VERTEX
  5
4df
  8
Layer_0
  10
216.41391
  20
242.56311
  0
VERTEX
  5
4e0
  8
Layer_0
  10
216.35971
  20
242.6443
  0
VERTEX
  5
4e1
  8
Layer_0
  10
216.3407
  20
242.7399
  0
VERTEX
  5
4e2
  8
Layer_0
  10
216.3407
  20
243.63991
  0
VERTEX
  5
4e3
  8
Layer_0
  10
216.35971
  20
243.7356
  0
VERTEX
  5
4e4
  8
Layer_0
  10
216.41391
  20
243.81671
  0
VERTEX
  5
4e5
  8
Layer_0
  10
216.495
  20
243.87091
  0
VERTEX
  5
4e6
  8
Layer_0
  10
216.5907
  20
243.88991
  0
VERTEX
  5
4e7
  8
Layer_0
  10
217.11571
  20
243.88991
  0
VERTEX
  5
4e8
  8
Layer_0
  10
217.2113
  20
243.87091
  0
VERTEX
  5
4e9
  8
Layer_0
  10
217.2924
  20
243.81671
  0
VERTEX
  5
4ea
  8
Layer_0
  10
217.3466
  20
243.7356
  0
VERTEX
  5
4eb
  8
Layer_0
  10
217.36571
  20
243.63991
  0
VERTEX
  5
4ec
  8
Layer_0
  10
217.36571
  20
242.7399
  0
SEQEND
  0
POLYLINE
  5
4ee
  8
Layer_0
  62
0
  66
1
  10
0
  20
0
  30
0
  0
VERTEX
  5
4ee
  8
Layer_0
  10
195.15649
  20
232.772
  0
VERTEX
  5
4ef
  8
Layer_0
  10
195.1736
  20
232.85811
  0
VERTEX
  5
4f0
  8
Layer_0
  10
195.2224
  20
232.93111
  0
VERTEX
  5
4f1
  8
Layer_0
  10
195.29541
  20
232.9799
  0
VERTEX
  5
4f2
  8
Layer_0
  10
195.3815
  20
232.99701
  0
VERTEX
  5
4f3
  8
Layer_0
  10
195.8315
  20
232.99701
  0
VERTEX
  5
4f4
  8
Layer_0
  10
195.9176
  20
232.9799
  0
VERTEX
  5
4f5
  8
Layer_0
  10
195.9906
  20
232.93111
  0
VERTEX
  5
4f6
  8
Layer_0
  10
196.0394
  20
232.85811
  0
VERTEX
  5
4f7
  8
Layer_0
  10
196.0565
  20
232.772
  0
VERTEX
  5
4f8
  8
Layer_0
  10
196.0565
  20
232.272
  0
VERTEX
  5
4f9
  8
Layer_0
  10
196.0394
  20
232.1859
  0
VERTEX
  5
4fa
  8
Layer_0
  10
195.9906
  20
232.1129
  0
VERTEX
  5
4fb
  8
Layer_0
  10
195.9176
  20
232.0641
  0
VERTEX
  5
4fc
  8
Layer_0
  10
195.8315
  20
232.047
  0
VERTEX
  5
4fd
  8
Layer_0
  10
195.3815
  20
232.047
  0
VERTEX
  5
4fe
  8
Layer_0
  10
195.29541
  20
232.0641
  0
VERTEX
  5
4ff
  8
Layer_0
  10
195.2224
  20
232.1129
  0
VERTEX
  5
500
  8
Layer_0
  10
195.1736
  20
232.1859
  0
VERTEX
  5
501
  8
Layer_0
  10
195.15649
  20
232.272
  0
VERTEX
  5
502
  8
Layer_0
  10
195.15649
  20
232.772
  0
SEQEND
  0
POLYLINE
  5
504
  8
Layer_0
  62
0
  66
1
  10
0
  20
0
  30
0
  0
VERTEX
  5
504
  8
Layer_0
  10
196.7065
  20
232.772
  0
VERTEX
  5
505
  8
Layer_0
  10
196.7236
  20
232.85811
  0
VERTEX
  5
506
  8
Layer_0
  10
196.7724
  20
232.93111
  0
VERTEX
  5
507
  8
Layer_0
  10
196.8454
  20
232.9799
  0
VERTEX
  5
508
  8
Layer_0
  10
196.9315
  20
232.99701
  0
VERTEX
  5
509
  8
Layer_0
  10
197.3815
  20
232.99701
  0
VERTEX
  5
50a
  8
Layer_0
  10
197.46761
  20
232.9799
  0
VERTEX
  5
50b
  8
Layer_0
  10
197.5406
  20
232.93111
  0
VERTEX
  5
50c
  8
Layer_0
  10
197.5894
  20
232.85811
  0
VERTEX
  5
50d
  8
Layer_0
  10
197.60651
  20
232.772
  0
VERTEX
  5
50e
  8
Layer_0
  10
197.60651
  20
232.272
  0
VERTEX
  5
50f
  8
Layer_0
  10
197.5894
  20
232.1859
  0
VERTEX
  5
510
  8
Layer_0
  10
197.5406
  20
232.1129
  0
VERTEX
  5
511
  8
Layer_0
  10
197.46761
  20
232.0641
  0
VERTEX
  5
512
  8
Layer_0
  10
197.3815
  20
232.047
  0
VERTEX
  5
513
  8
Layer_0
  10
196.9315
  20
232.047
  0
VERTEX
  5
514
  8
Layer_0
  10
196.8454
  20
232.0641
  0
VERTEX
  5
515
  8
Layer_0
  10
196.7724
  20
232.1129
  0
VERTEX
  5
516
  8
Layer_0
  10
196.7236
  20
232.1859
  0
VERTEX
  5
517
  8
Layer_0
  10
196.7065
  20
232.272
  0
VERTEX
  5
518
  8
Layer_0
  10
196.7065
  20
232.772
  0
SEQEND
  0
POLYLINE
  5
51a
  8
Layer_0
  62
0
  66
1
  10
0
  20
0
  30
0
  0
VERTEX
  5
51a
  8
Layer_0
  10
205.1615
  20
235.83701
  0
VERTEX
  5
51b
  8
Layer_0
  10
205.1512
  20
235.78531
  0
VERTEX
  5
51c
  8
Layer_0
  10
205.12201
  20
235.7415
  0
VERTEX
  5
51d
  8
Layer_0
  10
205.0782
  20
235.71231
  0
VERTEX
  5
51e
  8
Layer_0
  10
205.0265
  20
235.702
  0
VERTEX
  5
51f
  8
Layer_0
  10
204.7565
  20
235.702
  0
VERTEX
  5
520
  8
Layer_0
  10
204.7048
  20
235.71231
  0
VERTEX
  5
521
  8
Layer_0
  10
204.66101
  20
235.7415
  0
VERTEX
  5
522
  8
Layer_0
  10
204.63181
  20
235.78531
  0
VERTEX
  5
523
  8
Layer_0
  10
204.62151
  20
235.83701
  0
VERTEX
  5
524
  8
Layer_0
  10
204.62151
  20
236.207
  0
VERTEX
  5
525
  8
Layer_0
  10
204.63181
  20
236.2587
  0
VERTEX
  5
526
  8
Layer_0
  10
204.66101
  20
236.30251
  0
VERTEX
  5
527
  8
Layer_0
  10
204.7048
  20
236.3317
  0
VERTEX
  5
528
  8
Layer_0
  10
204.7565
  20
236.34201
  0
VERTEX
  5
529
  8
Layer_0
  10
205.0265
  20
236.34201
  0
VERTEX
  5
52a
  8
Layer_0
  10
205.0782
  20
236.3317
  0
VERTEX
  5
52b
  8
Layer_0
  10
205.12201
  20
236.30251
  0
VERTEX
  5
52c
  8
Layer_0
  10
205.1512
  20
236.2587
  0
VERTEX
  5
52d
  8
Layer_0
  10
205.1615
  20
236.207
  0
VERTEX
  5
52e
  8
Layer_0
  10
205.1615
  20
235.83701
  0
SEQEND
  0
POLYLINE
  5
530
  8
Layer_0
  62
0
  66
1
  10
0
  20
0
  30
0
  0
VERTEX
  5
530
  8
Layer_0
  10
204.14151
  20
235.83701
  0
VERTEX
  5
531
  8
Layer_0
  10
204.1312
  20
235.78531
  0
VERTEX
  5
532
  8
Layer_0
  10
204.10201
  20
235.7415
  0
VERTEX
  5
533
  8
Layer_0
  10
204.0582
  20
235.71231
  0
VERTEX
  5
534
  8
Layer_0
  10
204.0065
  20
235.702
  0
VERTEX
  5
535
  8
Layer_0
  10
203.73651
  20
235.702
  0
VERTEX
  5
536
  8
Layer_0
  10
203.6848
  20
235.71231
  0
VERTEX
  5
537
  8
Layer_0
  10
203.64101
  20
235.7415
  0
VERTEX
  5
538
  8
Layer_0
  10
203.6118
  20
235.78531
  0
VERTEX
  5
539
  8
Layer_0
  10
203.6015
  20
235.83701
  0
VERTEX
  5
53a
  8
Layer_0
  10
203.6015
  20
236.207
  0
VERTEX
  5
53b
  8
Layer_0
  10
203.6118
  20
236.2587
  0
VERTEX
  5
53c
  8
Layer_0
  10
203.64101
  20
236.30251
  0
VERTEX
  5
53d
  8
Layer_0
  10
203.6848
  20
236.3317
  0
VERTEX
  5
53e
  8
Layer_0
  10
203.73651
  20
236.34201
  0
VERTEX
  5
53f
  8
Layer_0
  10
204.0065
  20
236.34201
  0
VERTEX
  5
540
  8
Layer_0
  10
204.0582
  20
236.3317
  0
VERTEX
  5
541
  8
Layer_0
  10
204.10201
  20
236.30251
  0
VERTEX
  5
542
  8
Layer_0
  10
204.1312
  20
236.2587
  0
VERTEX
  5
543
  8
Layer_0
  10
204.14151
  20
236.207
  0
VERTEX
  5
544
  8
Layer_0
  10
204.14151
  20
235.83701
  0
SEQEND
  0
POLYLINE
  5
546
  8
Layer_0
  62
0
  66
1
  10
0
  20
0
  30
0
  0
VERTEX
  5
546
  8
Layer_0
  10
233.4565
  20
232.3752
  0
VERTEX
  5
547
  8
Layer_0
  10
233.4375
  20
232.27951
  0
VERTEX
  5
548
  8
Layer_0
  10
233.3833
  20
232.19839
  0
VERTEX
  5
549
  8
Layer_0
  10
233.3022
  20
232.1442
  0
VERTEX
  5
54a
  8
Layer_0
  10
233.2065
  20
232.1252
  0
VERTEX
  5
54b
  8
Layer_0
  10
232.6815
  20
232.1252
  0
VERTEX
  5
54c
  8
Layer_0
  10
232.5858
  20
232.1442
  0
VERTEX
  5
54d
  8
Layer_0
  10
232.5047
  20
232.19839
  0
VERTEX
  5
54e
  8
Layer_0
  10
232.4505
  20
232.27951
  0
VERTEX
  5
54f
  8
Layer_0
  10
232.4315
  20
232.3752
  0
VERTEX
  5
550
  8
Layer_0
  10
232.4315
  20
233.27521
  0
VERTEX
  5
551
  8
Layer_0
  10
232.4505
  20
233.3708
  0
VERTEX
  5
552
  8
Layer_0
  10
232.5047
  20
233.452
  0
VERTEX
  5
553
  8
Layer_0
  10
232.5858
  20
233.5061
  0
VERTEX
  5
554
  8
Layer_0
  10
232.6815
  20
233.52521
  0
VERTEX
  5
555
  8
Layer_0
  10
233.2065
  20
233.52521
  0
VERTEX
  5
556
  8
Layer_0
  10
233.3022
  20
233.5061
  0
VERTEX
  5
557
  8
Layer_0
  10
233.3833
  20
233.452
  0
VERTEX
  5
558
  8
Layer_0
  10
233.4375
  20
233.3708
  0
VERTEX
  5
559
  8
Layer_0
  10
233.4565
  20
233.27521
  0
VERTEX
  5
55a
  8
Layer_0
  10
233.4565
  20
232.3752
  0
SEQEND
  0
POLYLINE
  5
55c
  8
Layer_0
  62
0
  66
1
  10
0
  20
0
  30
0
  0
VERTEX
  5
55c
  8
Layer_0
  10
231.6315
  20
232.3752
  0
VERTEX
  5
55d
  8
Layer_0
  10
231.6125
  20
232.27951
  0
VERTEX
  5
55e
  8
Layer_0
  10
231.5583
  20
232.19839
  0
VERTEX
  5
55f
  8
Layer_0
  10
231.4772
  20
232.1442
  0
VERTEX
  5
560
  8
Layer_0
  10
231.3815
  20
232.1252
  0
VERTEX
  5
561
  8
Layer_0
  10
230.85651
  20
232.1252
  0
VERTEX
  5
562
  8
Layer_0
  10
230.7608
  20
232.1442
  0
VERTEX
  5
563
  8
Layer_0
  10
230.6797
  20
232.19839
  0
VERTEX
  5
564
  8
Layer_0
  10
230.6255
  20
232.27951
  0
VERTEX
  5
565
  8
Layer_0
  10
230.60651
  20
232.3752
  0
VERTEX
  5
566
  8
Layer_0
  10
230.60651
  20
233.27521
  0
VERTEX
  5
567
  8
Layer_0
  10
230.6255
  20
233.3708
  0
VERTEX
  5
568
  8
Layer_0
  10
230.6797
  20
233.452
  0
VERTEX
  5
569
  8
Layer_0
  10
230.7608
  20
233.5061
  0
VERTEX
  5
56a
  8
Layer_0
  10
230.85651
  20
233.52521
  0
VERTEX
  5
56b
  8
Layer_0
  10
231.3815
  20
233.52521
  0
VERTEX
  5
56c
  8
Layer_0
  10
231.4772
  20
233.5061
  0
VERTEX
  5
56d
  8
Layer_0
  10
231.5583
  20
233.452
  0
VERTEX
  5
56e
  8
Layer_0
  10
231.6125
  20
233.3708
  0
VERTEX
  5
56f
  8
Layer_0
  10
231.6315
  20
233.27521
  0
VERTEX
  5
570
  8
Layer_0
  10
231.6315
  20
232.3752
  0
SEQEND
  0
POLYLINE
  5
572
  8
Layer_0
  62
0
  66
1
  10
0
  20
0
  30
0
  0
VERTEX
  5
572
  8
Layer_0
  10
242.2025
  20
264.7283
  0
VERTEX
  5
573
  8
Layer_0
  10
242.22101
  20
264.8215
  0
VERTEX
  5
574
  8
Layer_0
  10
242.2739
  20
264.9006
  0
VERTEX
  5
575
  8
Layer_0
  10
242.35291
  20
264.9534
  0
VERTEX
  5
576
  8
Layer_0
  10
242.4462
  20
264.972
  0
VERTEX
  5
577
  8
Layer_0
  10
242.9337
  20
264.972
  0
VERTEX
  5
578
  8
Layer_0
  10
243.02701
  20
264.9534
  0
VERTEX
  5
579
  8
Layer_0
  10
243.10611
  20
264.9006
  0
VERTEX
  5
57a
  8
Layer_0
  10
243.15891
  20
264.8215
  0
VERTEX
  5
57b
  8
Layer_0
  10
243.17751
  20
264.7283
  0
VERTEX
  5
57c
  8
Layer_0
  10
243.17751
  20
263.8157
  0
VERTEX
  5
57d
  8
Layer_0
  10
243.15891
  20
263.7225
  0
VERTEX
  5
57e
  8
Layer_0
  10
243.10611
  20
263.6434
  0
VERTEX
  5
57f
  8
Layer_0
  10
243.02701
  20
263.59061
  0
VERTEX
  5
580
  8
Layer_0
  10
242.9337
  20
263.57201
  0
VERTEX
  5
581
  8
Layer_0
  10
242.4462
  20
263.57201
  0
VERTEX
  5
582
  8
Layer_0
  10
242.35291
  20
263.59061
  0
VERTEX
  5
583
  8
Layer_0
  10
242.2739
  20
263.6434
  0
VERTEX
  5
584
  8
Layer_0
  10
242.22101
  20
263.7225
  0
VERTEX
  5
585
  8
Layer_0
  10
242.2025
  20
263.8157
  0
VERTEX
  5
586
  8
Layer_0
  10
242.2025
  20
264.7283
  0
SEQEND
  0
POLYLINE
  5
588
  8
Layer_0
  62
0
  66
1
  10
0
  20
0
  30
0
  0
VERTEX
  5
588
  8
Layer_0
  10
244.0775
  20
264.7283
  0
VERTEX
  5
589
  8
Layer_0
  10
244.09601
  20
264.8215
  0
VERTEX
  5
58a
  8
Layer_0
  10
244.1489
  20
264.9006
  0
VERTEX
  5
58b
  8
Layer_0
  10
244.22791
  20
264.9534
  0
VERTEX
  5
58c
  8
Layer_0
  10
244.3212
  20
264.972
  0
VERTEX
  5
58d
  8
Layer_0
  10
244.8087
  20
264.972
  0
VERTEX
  5
58e
  8
Layer_0
  10
244.90201
  20
264.9534
  0
VERTEX
  5
58f
  8
Layer_0
  10
244.98111
  20
264.9006
  0
VERTEX
  5
590
  8
Layer_0
  10
245.03391
  20
264.8215
  0
VERTEX
  5
591
  8
Layer_0
  10
245.05251
  20
264.7283
  0
VERTEX
  5
592
  8
Layer_0
  10
245.05251
  20
263.8157
  0
VERTEX
  5
593
  8
Layer_0
  10
245.03391
  20
263.7225
  0
VERTEX
  5
594
  8
Layer_0
  10
244.98111
  20
263.6434
  0
VERTEX
  5
595
  8
Layer_0
  10
244.90201
  20
263.59061
  0
VERTEX
  5
596
  8
Layer_0
  10
244.8087
  20
263.57201
  0
VERTEX
  5
597
  8
Layer_0
  10
244.3212
  20
263.57201
  0
VERTEX
  5
598
  8
Layer_0
  10
244.22791
  20
263.59061
  0
VERTEX
  5
599
  8
Layer_0
  10
244.1489
  20
263.6434
  0
VERTEX
  5
59a
  8
Layer_0
  10
244.09601
  20
263.7225
  0
VERTEX
  5
59b
  8
Layer_0
  10
244.0775
  20
263.8157
  0
VERTEX
  5
59c
  8
Layer_0
  10
244.0775
  20
264.7283
  0
SEQEND
  0
POLYLINE
  5
59e
  8
Layer_0
  62
0
  66
1
  10
0
  20
0
  30
0
  0
VERTEX
  5
59e
  8
Layer_0
  10
200.4315
  20
261.847
  0
VERTEX
  5
59f
  8
Layer_0
  10
200.3358
  20
261.866
  0
VERTEX
  5
5a0
  8
Layer_0
  10
200.2547
  20
261.9202
  0
VERTEX
  5
5a1
  8
Layer_0
  10
200.2005
  20
262.0013
  0
VERTEX
  5
5a2
  8
Layer_0
  10
200.1815
  20
262.097
  0
VERTEX
  5
5a3
  8
Layer_0
  10
200.1815
  20
262.62201
  0
VERTEX
  5
5a4
  8
Layer_0
  10
200.2005
  20
262.7177
  0
VERTEX
  5
5a5
  8
Layer_0
  10
200.2547
  20
262.7988
  0
VERTEX
  5
5a6
  8
Layer_0
  10
200.3358
  20
262.853
  0
VERTEX
  5
5a7
  8
Layer_0
  10
200.4315
  20
262.87201
  0
VERTEX
  5
5a8
  8
Layer_0
  10
201.3315
  20
262.87201
  0
VERTEX
  5
5a9
  8
Layer_0
  10
201.4272
  20
262.853
  0
VERTEX
  5
5aa
  8
Layer_0
  10
201.5083
  20
262.7988
  0
VERTEX
  5
5ab
  8
Layer_0
  10
201.5625
  20
262.7177
  0
VERTEX
  5
5ac
  8
Layer_0
  10
201.5815
  20
262.62201
  0
VERTEX
  5
5ad
  8
Layer_0
  10
201.5815
  20
262.097
  0
VERTEX
  5
5ae
  8
Layer_0
  10
201.5625
  20
262.0013
  0
VERTEX
  5
5af
  8
Layer_0
  10
201.5083
  20
261.9202
  0
VERTEX
  5
5b0
  8
Layer_0
  10
201.4272
  20
261.866
  0
VERTEX
  5
5b1
  8
Layer_0
  10
201.3315
  20
261.847
  0
VERTEX
  5
5b2
  8
Layer_0
  10
200.4315
  20
261.847
  0
SEQEND
  0
POLYLINE
  5
5b4
  8
Layer_0
  62
0
  66
1
  10
0
  20
0
  30
0
  0
VERTEX
  5
5b4
  8
Layer_0
  10
200.4315
  20
263.672
  0
VERTEX
  5
5b5
  8
Layer_0
  10
200.3358
  20
263.69101
  0
VERTEX
  5
5b6
  8
Layer_0
  10
200.2547
  20
263.74521
  0
VERTEX
  5
5b7
  8
Layer_0
  10
200.2005
  20
263.82631
  0
VERTEX
  5
5b8
  8
Layer_0
  10
200.1815
  20
263.922
  0
VERTEX
  5
5b9
  8
Layer_0
  10
200.1815
  20
264.44701
  0
VERTEX
  5
5ba
  8
Layer_0
  10
200.2005
  20
264.54271
  0
VERTEX
  5
5bb
  8
Layer_0
  10
200.2547
  20
264.62381
  0
VERTEX
  5
5bc
  8
Layer_0
  10
200.3358
  20
264.67801
  0
VERTEX
  5
5bd
  8
Layer_0
  10
200.4315
  20
264.69701
  0
VERTEX
  5
5be
  8
Layer_0
  10
201.3315
  20
264.69701
  0
VERTEX
  5
5bf
  8
Layer_0
  10
201.4272
  20
264.67801
  0
VERTEX
  5
5c0
  8
Layer_0
  10
201.5083
  20
264.62381
  0
VERTEX
  5
5c1
  8
Layer_0
  10
201.5625
  20
264.54271
  0
VERTEX
  5
5c2
  8
Layer_0
  10
201.5815
  20
264.44701
  0
VERTEX
  5
5c3
  8
Layer_0
  10
201.5815
  20
263.922
  0
VERTEX
  5
5c4
  8
Layer_0
  10
201.5625
  20
263.82631
  0
VERTEX
  5
5c5
  8
Layer_0
  10
201.5083
  20
263.74521
  0
VERTEX
  5
5c6
  8
Layer_0
  10
201.4272
  20
263.69101
  0
VERTEX
  5
5c7
  8
Layer_0
  10
201.3315
  20
263.672
  0
VERTEX
  5
5c8
  8
Layer_0
  10
200.4315
  20
263.672
  0
SEQEND
  0
POLYLINE
  5
5ca
  8
Layer_0
  62
0
  66
1
  10
0
  20
0
  30
0
  0
VERTEX
  5
5ca
  8
Layer_0
  10
191.7749
  20
263.827
  0
VERTEX
  5
5cb
  8
Layer_0
  10
191.7863
  20
263.8844
  0
VERTEX
  5
5cc
  8
Layer_0
  10
191.8188
  20
263.93311
  0
VERTEX
  5
5cd
  8
Layer_0
  10
191.86751
  20
263.96561
  0
VERTEX
  5
5ce
  8
Layer_0
  10
191.9249
  20
263.97701
  0
VERTEX
  5
5cf
  8
Layer_0
  10
193.57491
  20
263.97701
  0
VERTEX
  5
5d0
  8
Layer_0
  10
193.63229
  20
263.96561
  0
VERTEX
  5
5d1
  8
Layer_0
  10
193.68091
  20
263.93311
  0
VERTEX
  5
5d2
  8
Layer_0
  10
193.7135
  20
263.8844
  0
VERTEX
  5
5d3
  8
Layer_0
  10
193.7249
  20
263.827
  0
VERTEX
  5
5d4
  8
Layer_0
  10
193.7249
  20
263.52701
  0
VERTEX
  5
5d5
  8
Layer_0
  10
193.7135
  20
263.4696
  0
VERTEX
  5
5d6
  8
Layer_0
  10
193.68091
  20
263.4209
  0
VERTEX
  5
5d7
  8
Layer_0
  10
193.63229
  20
263.3884
  0
VERTEX
  5
5d8
  8
Layer_0
  10
193.57491
  20
263.377
  0
VERTEX
  5
5d9
  8
Layer_0
  10
191.9249
  20
263.377
  0
VERTEX
  5
5da
  8
Layer_0
  10
191.86751
  20
263.3884
  0
VERTEX
  5
5db
  8
Layer_0
  10
191.8188
  20
263.4209
  0
VERTEX
  5
5dc
  8
Layer_0
  10
191.7863
  20
263.4696
  0
VERTEX
  5
5dd
  8
Layer_0
  10
191.7749
  20
263.52701
  0
VERTEX
  5
5de
  8
Layer_0
  10
191.7749
  20
263.827
  0
SEQEND
  0
POLYLINE
  5
5e0
  8
Layer_0
  62
0
  66
1
  10
0
  20
0
  30
0
  0
VERTEX
  5
5e0
  8
Layer_0
  10
191.7749
  20
262.55701
  0
VERTEX
  5
5e1
  8
Layer_0
  10
191.7863
  20
262.61441
  0
VERTEX
  5
5e2
  8
Layer_0
  10
191.8188
  20
262.6631
  0
VERTEX
  5
5e3
  8
Layer_0
  10
191.86751
  20
262.6956
  0
VERTEX
  5
5e4
  8
Layer_0
  10
191.9249
  20
262.707
  0
VERTEX
  5
5e5
  8
Layer_0
  10
193.57491
  20
262.707
  0
VERTEX
  5
5e6
  8
Layer_0
  10
193.63229
  20
262.6956
  0
VERTEX
  5
5e7
  8
Layer_0
  10
193.68091
  20
262.6631
  0
VERTEX
  5
5e8
  8
Layer_0
  10
193.7135
  20
262.61441
  0
VERTEX
  5
5e9
  8
Layer_0
  10
193.7249
  20
262.55701
  0
VERTEX
  5
5ea
  8
Layer_0
  10
193.7249
  20
262.257
  0
VERTEX
  5
5eb
  8
Layer_0
  10
193.7135
  20
262.1996
  0
VERTEX
  5
5ec
  8
Layer_0
  10
193.68091
  20
262.15091
  0
VERTEX
  5
5ed
  8
Layer_0
  10
193.63229
  20
262.11841
  0
VERTEX
  5
5ee
  8
Layer_0
  10
193.57491
  20
262.10699
  0
VERTEX
  5
5ef
  8
Layer_0
  10
191.9249
  20
262.10699
  0
VERTEX
  5
5f0
  8
Layer_0
  10
191.86751
  20
262.11841
  0
VERTEX
  5
5f1
  8
Layer_0
  10
191.8188
  20
262.15091
  0
VERTEX
  5
5f2
  8
Layer_0
  10
191.7863
  20
262.1996
  0
VERTEX
  5
5f3
  8
Layer_0
  10
191.7749
  20
262.257
  0
VERTEX
  5
5f4
  8
Layer_0
  10
191.7749
  20
262.55701
  0
SEQEND
  0
POLYLINE
  5
5f6
  8
Layer_0
  62
0
  66
1
  10
0
  20
0
  30
0
  0
VERTEX
  5
5f6
  8
Layer_0
  10
191.7749
  20
261.287
  0
VERTEX
  5
5f7
  8
Layer_0
  10
191.7863
  20
261.34441
  0
VERTEX
  5
5f8
  8
Layer_0
  10
191.8188
  20
261.3931
  0
VERTEX
  5
5f9
  8
Layer_0
  10
191.86751
  20
261.4256
  0
VERTEX
  5
5fa
  8
Layer_0
  10
191.9249
  20
261.43701
  0
VERTEX
  5
5fb
  8
Layer_0
  10
193.57491
  20
261.43701
  0
VERTEX
  5
5fc
  8
Layer_0
  10
193.63229
  20
261.4256
  0
VERTEX
  5
5fd
  8
Layer_0
  10
193.68091
  20
261.3931
  0
VERTEX
  5
5fe
  8
Layer_0
  10
193.7135
  20
261.34441
  0
VERTEX
  5
5ff
  8
Layer_0
  10
193.7249
  20
261.287
  0
VERTEX
  5
600
  8
Layer_0
  10
193.7249
  20
260.987
  0
VERTEX
  5
601
  8
Layer_0
  10
193.7135
  20
260.9296
  0
VERTEX
  5
602
  8
Layer_0
  10
193.68091
  20
260.88091
  0
VERTEX
  5
603
  8
Layer_0
  10
193.63229
  20
260.8484
  0
VERTEX
  5
604
  8
Layer_0
  10
193.57491
  20
260.83701
  0
VERTEX
  5
605
  8
Layer_0
  10
191.9249
  20
260.83701
  0
VERTEX
  5
606
  8
Layer_0
  10
191.86751
  20
260.8484
  0
VERTEX
  5
607
  8
Layer_0
  10
191.8188
  20
260.88091
  0
VERTEX
  5
608
  8
Layer_0
  10
191.7863
  20
260.9296
  0
VERTEX
  5
609
  8
Layer_0
  10
191.7749
  20
260.987
  0
VERTEX
  5
60a
  8
Layer_0
  10
191.7749
  20
261.287
  0
SEQEND
  0
POLYLINE
  5
60c
  8
Layer_0
  62
0
  66
1
  10
0
  20
0
  30
0
  0
VERTEX
  5
60c
  8
Layer_0
  10
191.7749
  20
260.017
  0
VERTEX
  5
60d
  8
Layer_0
  10
191.7863
  20
260.0744
  0
VERTEX
  5
60e
  8
Layer_0
  10
191.8188
  20
260.12311
  0
VERTEX
  5
60f
  8
Layer_0
  10
191.86751
  20
260.15561
  0
VERTEX
  5
610
  8
Layer_0
  10
191.9249
  20
260.16701
  0
VERTEX
  5
611
  8
Layer_0
  10
193.57491
  20
260.16701
  0
VERTEX
  5
612
  8
Layer_0
  10
193.63229
  20
260.15561
  0
VERTEX
  5
613
  8
Layer_0
  10
193.68091
  20
260.12311
  0
VERTEX
  5
614
  8
Layer_0
  10
193.7135
  20
260.0744
  0
VERTEX
  5
615
  8
Layer_0
  10
193.7249
  20
260.017
  0
VERTEX
  5
616
  8
Layer_0
  10
193.7249
  20
259.71701
  0
VERTEX
  5
617
  8
Layer_0
  10
193.7135
  20
259.65961
  0
VERTEX
  5
618
  8
Layer_0
  10
193.68091
  20
259.6109
  0
VERTEX
  5
619
  8
Layer_0
  10
193.63229
  20
259.5784
  0
VERTEX
  5
61a
  8
Layer_0
  10
193.57491
  20
259.567
  0
VERTEX
  5
61b
  8
Layer_0
  10
191.9249
  20
259.567
  0
VERTEX
  5
61c
  8
Layer_0
  10
191.86751
  20
259.5784
  0
VERTEX
  5
61d
  8
Layer_0
  10
191.8188
  20
259.6109
  0
VERTEX
  5
61e
  8
Layer_0
  10
191.7863
  20
259.65961
  0
VERTEX
  5
61f
  8
Layer_0
  10
191.7749
  20
259.71701
  0
VERTEX
  5
620
  8
Layer_0
  10
191.7749
  20
260.017
  0
SEQEND
  0
POLYLINE
  5
622
  8
Layer_0
  62
0
  66
1
  10
0
  20
0
  30
0
  0
VERTEX
  5
622
  8
Layer_0
  10
196.7249
  20
260.017
  0
VERTEX
  5
623
  8
Layer_0
  10
196.7363
  20
260.0744
  0
VERTEX
  5
624
  8
Layer_0
  10
196.7688
  20
260.12311
  0
VERTEX
  5
625
  8
Layer_0
  10
196.8175
  20
260.15561
  0
VERTEX
  5
626
  8
Layer_0
  10
196.87491
  20
260.16701
  0
VERTEX
  5
627
  8
Layer_0
  10
198.5249
  20
260.16701
  0
VERTEX
  5
628
  8
Layer_0
  10
198.58231
  20
260.15561
  0
VERTEX
  5
629
  8
Layer_0
  10
198.63091
  20
260.12311
  0
VERTEX
  5
62a
  8
Layer_0
  10
198.6635
  20
260.0744
  0
VERTEX
  5
62b
  8
Layer_0
  10
198.6749
  20
260.017
  0
VERTEX
  5
62c
  8
Layer_0
  10
198.6749
  20
259.71701
  0
VERTEX
  5
62d
  8
Layer_0
  10
198.6635
  20
259.65961
  0
VERTEX
  5
62e
  8
Layer_0
  10
198.63091
  20
259.6109
  0
VERTEX
  5
62f
  8
Layer_0
  10
198.58231
  20
259.5784
  0
VERTEX
  5
630
  8
Layer_0
  10
198.5249
  20
259.567
  0
VERTEX
  5
631
  8
Layer_0
  10
196.87491
  20
259.567
  0
VERTEX
  5
632
  8
Layer_0
  10
196.8175
  20
259.5784
  0
VERTEX
  5
633
  8
Layer_0
  10
196.7688
  20
259.6109
  0
VERTEX
  5
634
  8
Layer_0
  10
196.7363
  20
259.65961
  0
VERTEX
  5
635
  8
Layer_0
  10
196.7249
  20
259.71701
  0
VERTEX
  5
636
  8
Layer_0
  10
196.7249
  20
260.017
  0
SEQEND
  0
POLYLINE
  5
638
  8
Layer_0
  62
0
  66
1
  10
0
  20
0
  30
0
  0
VERTEX
  5
638
  8
Layer_0
  10
196.7249
  20
261.287
  0
VERTEX
  5
639
  8
Layer_0
  10
196.7363
  20
261.34441
  0
VERTEX
  5
63a
  8
Layer_0
  10
196.7688
  20
261.3931
  0
VERTEX
  5
63b
  8
Layer_0
  10
196.8175
  20
261.4256
  0
VERTEX
  5
63c
  8
Layer_0
  10
196.87491
  20
261.43701
  0
VERTEX
  5
63d
  8
Layer_0
  10
198.5249
  20
261.43701
  0
VERTEX
  5
63e
  8
Layer_0
  10
198.58231
  20
261.4256
  0
VERTEX
  5
63f
  8
Layer_0
  10
198.63091
  20
261.3931
  0
VERTEX
  5
640
  8
Layer_0
  10
198.6635
  20
261.34441
  0
VERTEX
  5
641
  8
Layer_0
  10
198.6749
  20
261.287
  0
VERTEX
  5
642
  8
Layer_0
  10
198.6749
  20
260.987
  0
VERTEX
  5
643
  8
Layer_0
  10
198.6635
  20
260.9296
  0
VERTEX
  5
644
  8
Layer_0
  10
198.63091
  20
260.88091
  0
VERTEX
  5
645
  8
Layer_0
  10
198.58231
  20
260.8484
  0
VERTEX
  5
646
  8
Layer_0
  10
198.5249
  20
260.83701
  0
VERTEX
  5
647
  8
Layer_0
  10
196.87491
  20
260.83701
  0
VERTEX
  5
648
  8
Layer_0
  10
196.8175
  20
260.8484
  0
VERTEX
  5
649
  8
Layer_0
  10
196.7688
  20
260.88091
  0
VERTEX
  5
64a
  8
Layer_0
  10
196.7363
  20
260.9296
  0
VERTEX
  5
64b
  8
Layer_0
  10
196.7249
  20
260.987
  0
VERTEX
  5
64c
  8
Layer_0
  10
196.7249
  20
261.287
  0
SEQEND
  0
POLYLINE
  5
64e
  8
Layer_0
  62
0
  66
1
  10
0
  20
0
  30
0
  0
VERTEX
  5
64e
  8
Layer_0
  10
196.7249
  20
262.55701
  0
VERTEX
  5
64f
  8
Layer_0
  10
196.7363
  20
262.61441
  0
VERTEX
  5
650
  8
Layer_0
  10
196.7688
  20
262.6631
  0
VERTEX
  5
651
  8
Layer_0
  10
196.8175
  20
262.6956
  0
VERTEX
  5
652
  8
Layer_0
  10
196.87491
  20
262.707
  0
VERTEX
  5
653
  8
Layer_0
  10
198.5249
  20
262.707
  0
VERTEX
  5
654
  8
Layer_0
  10
198.58231
  20
262.6956
  0
VERTEX
  5
655
  8
Layer_0
  10
198.63091
  20
262.6631
  0
VERTEX
  5
656
  8
Layer_0
  10
198.6635
  20
262.61441
  0
VERTEX
  5
657
  8
Layer_0
  10
198.6749
  20
262.55701
  0
VERTEX
  5
658
  8
Layer_0
  10
198.6749
  20
262.257
  0
VERTEX
  5
659
  8
Layer_0
  10
198.6635
  20
262.1996
  0
VERTEX
  5
65a
  8
Layer_0
  10
198.63091
  20
262.15091
  0
VERTEX
  5
65b
  8
Layer_0
  10
198.58231
  20
262.11841
  0
VERTEX
  5
65c
  8
Layer_0
  10
198.5249
  20
262.10699
  0
VERTEX
  5
65d
  8
Layer_0
  10
196.87491
  20
262.10699
  0
VERTEX
  5
65e
  8
Layer_0
  10
196.8175
  20
262.11841
  0
VERTEX
  5
65f
  8
Layer_0
  10
196.7688
  20
262.15091
  0
VERTEX
  5
660
  8
Layer_0
  10
196.7363
  20
262.1996
  0
VERTEX
  5
661
  8
Layer_0
  10
196.7249
  20
262.257
  0
VERTEX
  5
662
  8
Layer_0
  10
196.7249
  20
262.55701
  0
SEQEND
  0
POLYLINE
  5
664
  8
Layer_0
  62
0
  66
1
  10
0
  20
0
  30
0
  0
VERTEX
  5
664
  8
Layer_0
  10
196.7249
  20
263.827
  0
VERTEX
  5
665
  8
Layer_0
  10
196.7363
  20
263.8844
  0
VERTEX
  5
666
  8
Layer_0
  10
196.7688
  20
263.93311
  0
VERTEX
  5
667
  8
Layer_0
  10
196.8175
  20
263.96561
  0
VERTEX
  5
668
  8
Layer_0
  10
196.87491
  20
263.97701
  0
VERTEX
  5
669
  8
Layer_0
  10
198.5249
  20
263.97701
  0
VERTEX
  5
66a
  8
Layer_0
  10
198.58231
  20
263.96561
  0
VERTEX
  5
66b
  8
Layer_0
  10
198.63091
  20
263.93311
  0
VERTEX
  5
66c
  8
Layer_0
  10
198.6635
  20
263.8844
  0
VERTEX
  5
66d
  8
Layer_0
  10
198.6749
  20
263.827
  0
VERTEX
  5
66e
  8
Layer_0
  10
198.6749
  20
263.52701
  0
VERTEX
  5
66f
  8
Layer_0
  10
198.6635
  20
263.4696
  0
VERTEX
  5
670
  8
Layer_0
  10
198.63091
  20
263.4209
  0
VERTEX
  5
671
  8
Layer_0
  10
198.58231
  20
263.3884
  0
VERTEX
  5
672
  8
Layer_0
  10
198.5249
  20
263.377
  0
VERTEX
  5
673
  8
Layer_0
  10
196.87491
  20
263.377
  0
VERTEX
  5
674
  8
Layer_0
  10
196.8175
  20
263.3884
  0
VERTEX
  5
675
  8
Layer_0
  10
196.7688
  20
263.4209
  0
VERTEX
  5
676
  8
Layer_0
  10
196.7363
  20
263.4696
  0
VERTEX
  5
677
  8
Layer_0
  10
196.7249
  20
263.52701
  0
VERTEX
  5
678
  8
Layer_0
  10
196.7249
  20
263.827
  0
SEQEND
  0
POLYLINE
  5
67a
  8
Layer_0
  62
0
  66
1
  10
0
  20
0
  30
0
  0
VERTEX
  5
67a
  8
Layer_0
  10
185.35651
  20
244.147
  0
VERTEX
  5
67b
  8
Layer_0
  10
185.3755
  20
244.24271
  0
VERTEX
  5
67c
  8
Layer_0
  10
185.4297
  20
244.32381
  0
VERTEX
  5
67d
  8
Layer_0
  10
185.5108
  20
244.37801
  0
VERTEX
  5
67e
  8
Layer_0
  10
185.60651
  20
244.397
  0
VERTEX
  5
67f
  8
Layer_0
  10
186.23151
  20
244.397
  0
VERTEX
  5
680
  8
Layer_0
  10
186.32721
  20
244.37801
  0
VERTEX
  5
681
  8
Layer_0
  10
186.40829
  20
244.32381
  0
VERTEX
  5
682
  8
Layer_0
  10
186.46251
  20
244.24271
  0
VERTEX
  5
683
  8
Layer_0
  10
186.48151
  20
244.147
  0
VERTEX
  5
684
  8
Layer_0
  10
186.48151
  20
242.897
  0
VERTEX
  5
685
  8
Layer_0
  10
186.46251
  20
242.8013
  0
VERTEX
  5
686
  8
Layer_0
  10
186.40829
  20
242.7202
  0
VERTEX
  5
687
  8
Layer_0
  10
186.32721
  20
242.666
  0
VERTEX
  5
688
  8
Layer_0
  10
186.23151
  20
242.647
  0
VERTEX
  5
689
  8
Layer_0
  10
185.60651
  20
242.647
  0
VERTEX
  5
68a
  8
Layer_0
  10
185.5108
  20
242.666
  0
VERTEX
  5
68b
  8
Layer_0
  10
185.4297
  20
242.7202
  0
VERTEX
  5
68c
  8
Layer_0
  10
185.3755
  20
242.8013
  0
VERTEX
  5
68d
  8
Layer_0
  10
185.35651
  20
242.897
  0
VERTEX
  5
68e
  8
Layer_0
  10
185.35651
  20
244.147
  0
SEQEND
  0
POLYLINE
  5
690
  8
Layer_0
  62
0
  66
1
  10
0
  20
0
  30
0
  0
VERTEX
  5
690
  8
Layer_0
  10
188.28149
  20
244.147
  0
VERTEX
  5
691
  8
Layer_0
  10
188.30051
  20
244.24271
  0
VERTEX
  5
692
  8
Layer_0
  10
188.35471
  20
244.32381
  0
VERTEX
  5
693
  8
Layer_0
  10
188.43581
  20
244.37801
  0
VERTEX
  5
694
  8
Layer_0
  10
188.53149
  20
244.397
  0
VERTEX
  5
695
  8
Layer_0
  10
189.15649
  20
244.397
  0
VERTEX
  5
696
  8
Layer_0
  10
189.2522
  20
244.37801
  0
VERTEX
  5
697
  8
Layer_0
  10
189.3333
  20
244.32381
  0
VERTEX
  5
698
  8
Layer_0
  10
189.3875
  20
244.24271
  0
VERTEX
  5
699
  8
Layer_0
  10
189.40649
  20
244.147
  0
VERTEX
  5
69a
  8
Layer_0
  10
189.40649
  20
242.897
  0
VERTEX
  5
69b
  8
Layer_0
  10
189.3875
  20
242.8013
  0
VERTEX
  5
69c
  8
Layer_0
  10
189.3333
  20
242.7202
  0
VERTEX
  5
69d
  8
Layer_0
  10
189.2522
  20
242.666
  0
VERTEX
  5
69e
  8
Layer_0
  10
189.15649
  20
242.647
  0
VERTEX
  5
69f
  8
Layer_0
  10
188.53149
  20
242.647
  0
VERTEX
  5
6a0
  8
Layer_0
  10
188.43581
  20
242.666
  0
VERTEX
  5
6a1
  8
Layer_0
  10
188.35471
  20
242.7202
  0
VERTEX
  5
6a2
  8
Layer_0
  10
188.30051
  20
242.8013
  0
VERTEX
  5
6a3
  8
Layer_0
  10
188.28149
  20
242.897
  0
VERTEX
  5
6a4
  8
Layer_0
  10
188.28149
  20
244.147
  0
SEQEND
  0
POLYLINE
  5
6a6
  8
Layer_0
  62
0
  66
1
  10
0
  20
0
  30
0
  0
VERTEX
  5
6a6
  8
Layer_0
  10
224.63971
  20
235.2399
  0
VERTEX
  5
6a7
  8
Layer_0
  10
224.6207
  20
235.1443
  0
VERTEX
  5
6a8
  8
Layer_0
  10
224.5665
  20
235.06311
  0
VERTEX
  5
6a9
  8
Layer_0
  10
224.4854
  20
235.009
  0
VERTEX
  5
6aa
  8
Layer_0
  10
224.38971
  20
234.9899
  0
VERTEX
  5
6ab
  8
Layer_0
  10
223.8647
  20
234.9899
  0
VERTEX
  5
6ac
  8
Layer_0
  10
223.769
  20
235.009
  0
VERTEX
  5
6ad
  8
Layer_0
  10
223.6879
  20
235.06311
  0
VERTEX
  5
6ae
  8
Layer_0
  10
223.6338
  20
235.1443
  0
VERTEX
  5
6af
  8
Layer_0
  10
223.6147
  20
235.2399
  0
VERTEX
  5
6b0
  8
Layer_0
  10
223.6147
  20
236.13991
  0
VERTEX
  5
6b1
  8
Layer_0
  10
223.6338
  20
236.2356
  0
VERTEX
  5
6b2
  8
Layer_0
  10
223.6879
  20
236.31671
  0
VERTEX
  5
6b3
  8
Layer_0
  10
223.769
  20
236.37091
  0
VERTEX
  5
6b4
  8
Layer_0
  10
223.8647
  20
236.38991
  0
VERTEX
  5
6b5
  8
Layer_0
  10
224.38971
  20
236.38991
  0
VERTEX
  5
6b6
  8
Layer_0
  10
224.4854
  20
236.37091
  0
VERTEX
  5
6b7
  8
Layer_0
  10
224.5665
  20
236.31671
  0
VERTEX
  5
6b8
  8
Layer_0
  10
224.6207
  20
236.2356
  0
VERTEX
  5
6b9
  8
Layer_0
  10
224.63971
  20
236.13991
  0
VERTEX
  5
6ba
  8
Layer_0
  10
224.63971
  20
235.2399
  0
SEQEND
  0
POLYLINE
  5
6bc
  8
Layer_0
  62
0
  66
1
  10
0
  20
0
  30
0
  0
VERTEX
  5
6bc
  8
Layer_0
  10
222.8147
  20
235.2399
  0
VERTEX
  5
6bd
  8
Layer_0
  10
222.7957
  20
235.1443
  0
VERTEX
  5
6be
  8
Layer_0
  10
222.7415
  20
235.06311
  0
VERTEX
  5
6bf
  8
Layer_0
  10
222.6604
  20
235.009
  0
VERTEX
  5
6c0
  8
Layer_0
  10
222.5647
  20
234.9899
  0
VERTEX
  5
6c1
  8
Layer_0
  10
222.0397
  20
234.9899
  0
VERTEX
  5
6c2
  8
Layer_0
  10
221.944
  20
235.009
  0
VERTEX
  5
6c3
  8
Layer_0
  10
221.8629
  20
235.06311
  0
VERTEX
  5
6c4
  8
Layer_0
  10
221.80881
  20
235.1443
  0
VERTEX
  5
6c5
  8
Layer_0
  10
221.7897
  20
235.2399
  0
VERTEX
  5
6c6
  8
Layer_0
  10
221.7897
  20
236.13991
  0
VERTEX
  5
6c7
  8
Layer_0
  10
221.80881
  20
236.2356
  0
VERTEX
  5
6c8
  8
Layer_0
  10
221.8629
  20
236.31671
  0
VERTEX
  5
6c9
  8
Layer_0
  10
221.944
  20
236.37091
  0
VERTEX
  5
6ca
  8
Layer_0
  10
222.0397
  20
236.38991
  0
VERTEX
  5
6cb
  8
Layer_0
  10
222.5647
  20
236.38991
  0
VERTEX
  5
6cc
  8
Layer_0
  10
222.6604
  20
236.37091
  0
VERTEX
  5
6cd
  8
Layer_0
  10
222.7415
  20
236.31671
  0
VERTEX
  5
6ce
  8
Layer_0
  10
222.7957
  20
236.2356
  0
VERTEX
  5
6cf
  8
Layer_0
  10
222.8147
  20
236.13991
  0
VERTEX
  5
6d0
  8
Layer_0
  10
222.8147
  20
235.2399
  0
SEQEND
  0
POLYLINE
  5
6d2
  8
Layer_0
  62
0
  66
1
  10
0
  20
0
  30
0
  0
VERTEX
  5
6d2
  8
Layer_0
  10
204.0265
  20
253.222
  0
VERTEX
  5
6d3
  8
Layer_0
  10
204.08389
  20
253.2106
  0
VERTEX
  5
6d4
  8
Layer_0
  10
204.1326
  20
253.1781
  0
VERTEX
  5
6d5
  8
Layer_0
  10
204.1651
  20
253.12941
  0
VERTEX
  5
6d6
  8
Layer_0
  10
204.1765
  20
253.07201
  0
VERTEX
  5
6d7
  8
Layer_0
  10
204.1765
  20
251.422
  0
VERTEX
  5
6d8
  8
Layer_0
  10
204.1651
  20
251.36461
  0
VERTEX
  5
6d9
  8
Layer_0
  10
204.1326
  20
251.3159
  0
VERTEX
  5
6da
  8
Layer_0
  10
204.08389
  20
251.2834
  0
VERTEX
  5
6db
  8
Layer_0
  10
204.0265
  20
251.272
  0
VERTEX
  5
6dc
  8
Layer_0
  10
203.7265
  20
251.272
  0
VERTEX
  5
6dd
  8
Layer_0
  10
203.6691
  20
251.2834
  0
VERTEX
  5
6de
  8
Layer_0
  10
203.62041
  20
251.3159
  0
VERTEX
  5
6df
  8
Layer_0
  10
203.58791
  20
251.36461
  0
VERTEX
  5
6e0
  8
Layer_0
  10
203.57651
  20
251.422
  0
VERTEX
  5
6e1
  8
Layer_0
  10
203.57651
  20
253.07201
  0
VERTEX
  5
6e2
  8
Layer_0
  10
203.58791
  20
253.12941
  0
VERTEX
  5
6e3
  8
Layer_0
  10
203.62041
  20
253.1781
  0
VERTEX
  5
6e4
  8
Layer_0
  10
203.6691
  20
253.2106
  0
VERTEX
  5
6e5
  8
Layer_0
  10
203.7265
  20
253.222
  0
VERTEX
  5
6e6
  8
Layer_0
  10
204.0265
  20
253.222
  0
SEQEND
  0
POLYLINE
  5
6e8
  8
Layer_0
  62
0
  66
1
  10
0
  20
0
  30
0
  0
VERTEX
  5
6e8
  8
Layer_0
  10
202.7565
  20
253.222
  0
VERTEX
  5
6e9
  8
Layer_0
  10
202.8139
  20
253.2106
  0
VERTEX
  5
6ea
  8
Layer_0
  10
202.86261
  20
253.1781
  0
VERTEX
  5
6eb
  8
Layer_0
  10
202.8951
  20
253.12941
  0
VERTEX
  5
6ec
  8
Layer_0
  10
202.90649
  20
253.07201
  0
VERTEX
  5
6ed
  8
Layer_0
  10
202.90649
  20
251.422
  0
VERTEX
  5
6ee
  8
Layer_0
  10
202.8951
  20
251.36461
  0
VERTEX
  5
6ef
  8
Layer_0
  10
202.86261
  20
251.3159
  0
VERTEX
  5
6f0
  8
Layer_0
  10
202.8139
  20
251.2834
  0
VERTEX
  5
6f1
  8
Layer_0
  10
202.7565
  20
251.272
  0
VERTEX
  5
6f2
  8
Layer_0
  10
202.4565
  20
251.272
  0
VERTEX
  5
6f3
  8
Layer_0
  10
202.39911
  20
251.2834
  0
VERTEX
  5
6f4
  8
Layer_0
  10
202.3504
  20
251.3159
  0
VERTEX
  5
6f5
  8
Layer_0
  10
202.3179
  20
251.36461
  0
VERTEX
  5
6f6
  8
Layer_0
  10
202.3065
  20
251.422
  0
VERTEX
  5
6f7
  8
Layer_0
  10
202.3065
  20
253.07201
  0
VERTEX
  5
6f8
  8
Layer_0
  10
202.3179
  20
253.12941
  0
VERTEX
  5
6f9
  8
Layer_0
  10
202.3504
  20
253.1781
  0
VERTEX
  5
6fa
  8
Layer_0
  10
202.39911
  20
253.2106
  0
VERTEX
  5
6fb
  8
Layer_0
  10
202.4565
  20
253.222
  0
VERTEX
  5
6fc
  8
Layer_0
  10
202.7565
  20
253.222
  0
SEQEND
  0
POLYLINE
  5
6fe
  8
Layer_0
  62
0
  66
1
  10
0
  20
0
  30
0
  0
VERTEX
  5
6fe
  8
Layer_0
  10
201.4865
  20
253.222
  0
VERTEX
  5
6ff
  8
Layer_0
  10
201.5439
  20
253.2106
  0
VERTEX
  5
700
  8
Layer_0
  10
201.59261
  20
253.1781
  0
VERTEX
  5
701
  8
Layer_0
  10
201.62511
  20
253.12941
  0
VERTEX
  5
702
  8
Layer_0
  10
201.63651
  20
253.07201
  0
VERTEX
  5
703
  8
Layer_0
  10
201.63651
  20
251.422
  0
VERTEX
  5
704
  8
Layer_0
  10
201.62511
  20
251.36461
  0
VERTEX
  5
705
  8
Layer_0
  10
201.59261
  20
251.3159
  0
VERTEX
  5
706
  8
Layer_0
  10
201.5439
  20
251.2834
  0
VERTEX
  5
707
  8
Layer_0
  10
201.4865
  20
251.272
  0
VERTEX
  5
708
  8
Layer_0
  10
201.18651
  20
251.272
  0
VERTEX
  5
709
  8
Layer_0
  10
201.1291
  20
251.2834
  0
VERTEX
  5
70a
  8
Layer_0
  10
201.0804
  20
251.3159
  0
VERTEX
  5
70b
  8
Layer_0
  10
201.0479
  20
251.36461
  0
VERTEX
  5
70c
  8
Layer_0
  10
201.0365
  20
251.422
  0
VERTEX
  5
70d
  8
Layer_0
  10
201.0365
  20
253.07201
  0
VERTEX
  5
70e
  8
Layer_0
  10
201.0479
  20
253.12941
  0
VERTEX
  5
70f
  8
Layer_0
  10
201.0804
  20
253.1781
  0
VERTEX
  5
710
  8
Layer_0
  10
201.1291
  20
253.2106
  0
VERTEX
  5
711
  8
Layer_0
  10
201.18651
  20
253.222
  0
VERTEX
  5
712
  8
Layer_0
  10
201.4865
  20
253.222
  0
SEQEND
  0
POLYLINE
  5
714
  8
Layer_0
  62
0
  66
1
  10
0
  20
0
  30
0
  0
VERTEX
  5
714
  8
Layer_0
  10
200.21651
  20
253.222
  0
VERTEX
  5
715
  8
Layer_0
  10
200.2739
  20
253.2106
  0
VERTEX
  5
716
  8
Layer_0
  10
200.3226
  20
253.1781
  0
VERTEX
  5
717
  8
Layer_0
  10
200.3551
  20
253.12941
  0
VERTEX
  5
718
  8
Layer_0
  10
200.3665
  20
253.07201
  0
VERTEX
  5
719
  8
Layer_0
  10
200.3665
  20
251.422
  0
VERTEX
  5
71a
  8
Layer_0
  10
200.3551
  20
251.36461
  0
VERTEX
  5
71b
  8
Layer_0
  10
200.3226
  20
251.3159
  0
VERTEX
  5
71c
  8
Layer_0
  10
200.2739
  20
251.2834
  0
VERTEX
  5
71d
  8
Layer_0
  10
200.21651
  20
251.272
  0
VERTEX
  5
71e
  8
Layer_0
  10
199.9165
  20
251.272
  0
VERTEX
  5
71f
  8
Layer_0
  10
199.8591
  20
251.2834
  0
VERTEX
  5
720
  8
Layer_0
  10
199.81039
  20
251.3159
  0
VERTEX
  5
721
  8
Layer_0
  10
199.77791
  20
251.36461
  0
VERTEX
  5
722
  8
Layer_0
  10
199.76651
  20
251.422
  0
VERTEX
  5
723
  8
Layer_0
  10
199.76651
  20
253.07201
  0
VERTEX
  5
724
  8
Layer_0
  10
199.77791
  20
253.12941
  0
VERTEX
  5
725
  8
Layer_0
  10
199.81039
  20
253.1781
  0
VERTEX
  5
726
  8
Layer_0
  10
199.8591
  20
253.2106
  0
VERTEX
  5
727
  8
Layer_0
  10
199.9165
  20
253.222
  0
VERTEX
  5
728
  8
Layer_0
  10
200.21651
  20
253.222
  0
SEQEND
  0
POLYLINE
  5
72a
  8
Layer_0
  62
0
  66
1
  10
0
  20
0
  30
0
  0
VERTEX
  5
72a
  8
Layer_0
  10
198.9465
  20
253.222
  0
VERTEX
  5
72b
  8
Layer_0
  10
199.00391
  20
253.2106
  0
VERTEX
  5
72c
  8
Layer_0
  10
199.0526
  20
253.1781
  0
VERTEX
  5
72d
  8
Layer_0
  10
199.0851
  20
253.12941
  0
VERTEX
  5
72e
  8
Layer_0
  10
199.0965
  20
253.07201
  0
VERTEX
  5
72f
  8
Layer_0
  10
199.0965
  20
251.422
  0
VERTEX
  5
730
  8
Layer_0
  10
199.0851
  20
251.36461
  0
VERTEX
  5
731
  8
Layer_0
  10
199.0526
  20
251.3159
  0
VERTEX
  5
732
  8
Layer_0
  10
199.00391
  20
251.2834
  0
VERTEX
  5
733
  8
Layer_0
  10
198.9465
  20
251.272
  0
VERTEX
  5
734
  8
Layer_0
  10
198.6465
  20
251.272
  0
VERTEX
  5
735
  8
Layer_0
  10
198.5891
  20
251.2834
  0
VERTEX
  5
736
  8
Layer_0
  10
198.54041
  20
251.3159
  0
VERTEX
  5
737
  8
Layer_0
  10
198.5079
  20
251.36461
  0
VERTEX
  5
738
  8
Layer_0
  10
198.49651
  20
251.422
  0
VERTEX
  5
739
  8
Layer_0
  10
198.49651
  20
253.07201
  0
VERTEX
  5
73a
  8
Layer_0
  10
198.5079
  20
253.12941
  0
VERTEX
  5
73b
  8
Layer_0
  10
198.54041
  20
253.1781
  0
VERTEX
  5
73c
  8
Layer_0
  10
198.5891
  20
253.2106
  0
VERTEX
  5
73d
  8
Layer_0
  10
198.6465
  20
253.222
  0
VERTEX
  5
73e
  8
Layer_0
  10
198.9465
  20
253.222
  0
SEQEND
  0
POLYLINE
  5
740
  8
Layer_0
  62
0
  66
1
  10
0
  20
0
  30
0
  0
VERTEX
  5
740
  8
Layer_0
  10
197.6765
  20
253.222
  0
VERTEX
  5
741
  8
Layer_0
  10
197.7339
  20
253.2106
  0
VERTEX
  5
742
  8
Layer_0
  10
197.78261
  20
253.1781
  0
VERTEX
  5
743
  8
Layer_0
  10
197.81509
  20
253.12941
  0
VERTEX
  5
744
  8
Layer_0
  10
197.82651
  20
253.07201
  0
VERTEX
  5
745
  8
Layer_0
  10
197.82651
  20
251.422
  0
VERTEX
  5
746
  8
Layer_0
  10
197.81509
  20
251.36461
  0
VERTEX
  5
747
  8
Layer_0
  10
197.78261
  20
251.3159
  0
VERTEX
  5
748
  8
Layer_0
  10
197.7339
  20
251.2834
  0
VERTEX
  5
749
  8
Layer_0
  10
197.6765
  20
251.272
  0
VERTEX
  5
74a
  8
Layer_0
  10
197.3765
  20
251.272
  0
VERTEX
  5
74b
  8
Layer_0
  10
197.31911
  20
251.2834
  0
VERTEX
  5
74c
  8
Layer_0
  10
197.2704
  20
251.3159
  0
VERTEX
  5
74d
  8
Layer_0
  10
197.2379
  20
251.36461
  0
VERTEX
  5
74e
  8
Layer_0
  10
197.2265
  20
251.422
  0
VERTEX
  5
74f
  8
Layer_0
  10
197.2265
  20
253.07201
  0
VERTEX
  5
750
  8
Layer_0
  10
197.2379
  20
253.12941
  0
VERTEX
  5
751
  8
Layer_0
  10
197.2704
  20
253.1781
  0
VERTEX
  5
752
  8
Layer_0
  10
197.31911
  20
253.2106
  0
VERTEX
  5
753
  8
Layer_0
  10
197.3765
  20
253.222
  0
VERTEX
  5
754
  8
Layer_0
  10
197.6765
  20
253.222
  0
SEQEND
  0
POLYLINE
  5
756
  8
Layer_0
  62
0
  66
1
  10
0
  20
0
  30
0
  0
VERTEX
  5
756
  8
Layer_0
  10
196.40649
  20
253.222
  0
VERTEX
  5
757
  8
Layer_0
  10
196.4639
  20
253.2106
  0
VERTEX
  5
758
  8
Layer_0
  10
196.5126
  20
253.1781
  0
VERTEX
  5
759
  8
Layer_0
  10
196.5451
  20
253.12941
  0
VERTEX
  5
75a
  8
Layer_0
  10
196.5565
  20
253.07201
  0
VERTEX
  5
75b
  8
Layer_0
  10
196.5565
  20
251.422
  0
VERTEX
  5
75c
  8
Layer_0
  10
196.5451
  20
251.36461
  0
VERTEX
  5
75d
  8
Layer_0
  10
196.5126
  20
251.3159
  0
VERTEX
  5
75e
  8
Layer_0
  10
196.4639
  20
251.2834
  0
VERTEX
  5
75f
  8
Layer_0
  10
196.40649
  20
251.272
  0
VERTEX
  5
760
  8
Layer_0
  10
196.10651
  20
251.272
  0
VERTEX
  5
761
  8
Layer_0
  10
196.0491
  20
251.2834
  0
VERTEX
  5
762
  8
Layer_0
  10
196.0004
  20
251.3159
  0
VERTEX
  5
763
  8
Layer_0
  10
195.9679
  20
251.36461
  0
VERTEX
  5
764
  8
Layer_0
  10
195.9565
  20
251.422
  0
VERTEX
  5
765
  8
Layer_0
  10
195.9565
  20
253.07201
  0
VERTEX
  5
766
  8
Layer_0
  10
195.9679
  20
253.12941
  0
VERTEX
  5
767
  8
Layer_0
  10
196.0004
  20
253.1781
  0
VERTEX
  5
768
  8
Layer_0
  10
196.0491
  20
253.2106
  0
VERTEX
  5
769
  8
Layer_0
  10
196.10651
  20
253.222
  0
VERTEX
  5
76a
  8
Layer_0
  10
196.40649
  20
253.222
  0
SEQEND
  0
POLYLINE
  5
76c
  8
Layer_0
  62
0
  66
1
  10
0
  20
0
  30
0
  0
VERTEX
  5
76c
  8
Layer_0
  10
195.13651
  20
253.222
  0
VERTEX
  5
76d
  8
Layer_0
  10
195.19391
  20
253.2106
  0
VERTEX
  5
76e
  8
Layer_0
  10
195.2426
  20
253.1781
  0
VERTEX
  5
76f
  8
Layer_0
  10
195.2751
  20
253.12941
  0
VERTEX
  5
770
  8
Layer_0
  10
195.2865
  20
253.07201
  0
VERTEX
  5
771
  8
Layer_0
  10
195.2865
  20
251.422
  0
VERTEX
  5
772
  8
Layer_0
  10
195.2751
  20
251.36461
  0
VERTEX
  5
773
  8
Layer_0
  10
195.2426
  20
251.3159
  0
VERTEX
  5
774
  8
Layer_0
  10
195.19391
  20
251.2834
  0
VERTEX
  5
775
  8
Layer_0
  10
195.13651
  20
251.272
  0
VERTEX
  5
776
  8
Layer_0
  10
194.8365
  20
251.272
  0
VERTEX
  5
777
  8
Layer_0
  10
194.7791
  20
251.2834
  0
VERTEX
  5
778
  8
Layer_0
  10
194.73041
  20
251.3159
  0
VERTEX
  5
779
  8
Layer_0
  10
194.69791
  20
251.36461
  0
VERTEX
  5
77a
  8
Layer_0
  10
194.68651
  20
251.422
  0
VERTEX
  5
77b
  8
Layer_0
  10
194.68651
  20
253.07201
  0
VERTEX
  5
77c
  8
Layer_0
  10
194.69791
  20
253.12941
  0
VERTEX
  5
77d
  8
Layer_0
  10
194.73041
  20
253.1781
  0
VERTEX
  5
77e
  8
Layer_0
  10
194.7791
  20
253.2106
  0
VERTEX
  5
77f
  8
Layer_0
  10
194.8365
  20
253.222
  0
VERTEX
  5
780
  8
Layer_0
  10
195.13651
  20
253.222
  0
SEQEND
  0
POLYLINE
  5
782
  8
Layer_0
  62
0
  66
1
  10
0
  20
0
  30
0
  0
VERTEX
  5
782
  8
Layer_0
  10
195.13651
  20
248.272
  0
VERTEX
  5
783
  8
Layer_0
  10
195.19391
  20
248.2606
  0
VERTEX
  5
784
  8
Layer_0
  10
195.2426
  20
248.2281
  0
VERTEX
  5
785
  8
Layer_0
  10
195.2751
  20
248.1794
  0
VERTEX
  5
786
  8
Layer_0
  10
195.2865
  20
248.12201
  0
VERTEX
  5
787
  8
Layer_0
  10
195.2865
  20
246.472
  0
VERTEX
  5
788
  8
Layer_0
  10
195.2751
  20
246.41461
  0
VERTEX
  5
789
  8
Layer_0
  10
195.2426
  20
246.36591
  0
VERTEX
  5
78a
  8
Layer_0
  10
195.19391
  20
246.3334
  0
VERTEX
  5
78b
  8
Layer_0
  10
195.13651
  20
246.32201
  0
VERTEX
  5
78c
  8
Layer_0
  10
194.8365
  20
246.32201
  0
VERTEX
  5
78d
  8
Layer_0
  10
194.7791
  20
246.3334
  0
VERTEX
  5
78e
  8
Layer_0
  10
194.73041
  20
246.36591
  0
VERTEX
  5
78f
  8
Layer_0
  10
194.69791
  20
246.41461
  0
VERTEX
  5
790
  8
Layer_0
  10
194.68651
  20
246.472
  0
VERTEX
  5
791
  8
Layer_0
  10
194.68651
  20
248.12201
  0
VERTEX
  5
792
  8
Layer_0
  10
194.69791
  20
248.1794
  0
VERTEX
  5
793
  8
Layer_0
  10
194.73041
  20
248.2281
  0
VERTEX
  5
794
  8
Layer_0
  10
194.7791
  20
248.2606
  0
VERTEX
  5
795
  8
Layer_0
  10
194.8365
  20
248.272
  0
VERTEX
  5
796
  8
Layer_0
  10
195.13651
  20
248.272
  0
SEQEND
  0
POLYLINE
  5
798
  8
Layer_0
  62
0
  66
1
  10
0
  20
0
  30
0
  0
VERTEX
  5
798
  8
Layer_0
  10
196.40649
  20
248.272
  0
VERTEX
  5
799
  8
Layer_0
  10
196.4639
  20
248.2606
  0
VERTEX
  5
79a
  8
Layer_0
  10
196.5126
  20
248.2281
  0
VERTEX
  5
79b
  8
Layer_0
  10
196.5451
  20
248.1794
  0
VERTEX
  5
79c
  8
Layer_0
  10
196.5565
  20
248.12201
  0
VERTEX
  5
79d
  8
Layer_0
  10
196.5565
  20
246.472
  0
VERTEX
  5
79e
  8
Layer_0
  10
196.5451
  20
246.41461
  0
VERTEX
  5
79f
  8
Layer_0
  10
196.5126
  20
246.36591
  0
VERTEX
  5
7a0
  8
Layer_0
  10
196.4639
  20
246.3334
  0
VERTEX
  5
7a1
  8
Layer_0
  10
196.40649
  20
246.32201
  0
VERTEX
  5
7a2
  8
Layer_0
  10
196.10651
  20
246.32201
  0
VERTEX
  5
7a3
  8
Layer_0
  10
196.0491
  20
246.3334
  0
VERTEX
  5
7a4
  8
Layer_0
  10
196.0004
  20
246.36591
  0
VERTEX
  5
7a5
  8
Layer_0
  10
195.9679
  20
246.41461
  0
VERTEX
  5
7a6
  8
Layer_0
  10
195.9565
  20
246.472
  0
VERTEX
  5
7a7
  8
Layer_0
  10
195.9565
  20
248.12201
  0
VERTEX
  5
7a8
  8
Layer_0
  10
195.9679
  20
248.1794
  0
VERTEX
  5
7a9
  8
Layer_0
  10
196.0004
  20
248.2281
  0
VERTEX
  5
7aa
  8
Layer_0
  10
196.0491
  20
248.2606
  0
VERTEX
  5
7ab
  8
Layer_0
  10
196.10651
  20
248.272
  0
VERTEX
  5
7ac
  8
Layer_0
  10
196.40649
  20
248.272
  0
SEQEND
  0
POLYLINE
  5
7ae
  8
Layer_0
  62
0
  66
1
  10
0
  20
0
  30
0
  0
VERTEX
  5
7ae
  8
Layer_0
  10
197.6765
  20
248.272
  0
VERTEX
  5
7af
  8
Layer_0
  10
197.7339
  20
248.2606
  0
VERTEX
  5
7b0
  8
Layer_0
  10
197.78261
  20
248.2281
  0
VERTEX
  5
7b1
  8
Layer_0
  10
197.81509
  20
248.1794
  0
VERTEX
  5
7b2
  8
Layer_0
  10
197.82651
  20
248.12201
  0
VERTEX
  5
7b3
  8
Layer_0
  10
197.82651
  20
246.472
  0
VERTEX
  5
7b4
  8
Layer_0
  10
197.81509
  20
246.41461
  0
VERTEX
  5
7b5
  8
Layer_0
  10
197.78261
  20
246.36591
  0
VERTEX
  5
7b6
  8
Layer_0
  10
197.7339
  20
246.3334
  0
VERTEX
  5
7b7
  8
Layer_0
  10
197.6765
  20
246.32201
  0
VERTEX
  5
7b8
  8
Layer_0
  10
197.3765
  20
246.32201
  0
VERTEX
  5
7b9
  8
Layer_0
  10
197.31911
  20
246.3334
  0
VERTEX
  5
7ba
  8
Layer_0
  10
197.2704
  20
246.36591
  0
VERTEX
  5
7bb
  8
Layer_0
  10
197.2379
  20
246.41461
  0
VERTEX
  5
7bc
  8
Layer_0
  10
197.2265
  20
246.472
  0
VERTEX
  5
7bd
  8
Layer_0
  10
197.2265
  20
248.12201
  0
VERTEX
  5
7be
  8
Layer_0
  10
197.2379
  20
248.1794
  0
VERTEX
  5
7bf
  8
Layer_0
  10
197.2704
  20
248.2281
  0
VERTEX
  5
7c0
  8
Layer_0
  10
197.31911
  20
248.2606
  0
VERTEX
  5
7c1
  8
Layer_0
  10
197.3765
  20
248.272
  0
VERTEX
  5
7c2
  8
Layer_0
  10
197.6765
  20
248.272
  0
SEQEND
  0
POLYLINE
  5
7c4
  8
Layer_0
  62
0
  66
1
  10
0
  20
0
  30
0
  0
VERTEX
  5
7c4
  8
Layer_0
  10
198.9465
  20
248.272
  0
VERTEX
  5
7c5
  8
Layer_0
  10
199.00391
  20
248.2606
  0
VERTEX
  5
7c6
  8
Layer_0
  10
199.0526
  20
248.2281
  0
VERTEX
  5
7c7
  8
Layer_0
  10
199.0851
  20
248.1794
  0
VERTEX
  5
7c8
  8
Layer_0
  10
199.0965
  20
248.12201
  0
VERTEX
  5
7c9
  8
Layer_0
  10
199.0965
  20
246.472
  0
VERTEX
  5
7ca
  8
Layer_0
  10
199.0851
  20
246.41461
  0
VERTEX
  5
7cb
  8
Layer_0
  10
199.0526
  20
246.36591
  0
VERTEX
  5
7cc
  8
Layer_0
  10
199.00391
  20
246.3334
  0
VERTEX
  5
7cd
  8
Layer_0
  10
198.9465
  20
246.32201
  0
VERTEX
  5
7ce
  8
Layer_0
  10
198.6465
  20
246.32201
  0
VERTEX
  5
7cf
  8
Layer_0
  10
198.5891
  20
246.3334
  0
VERTEX
  5
7d0
  8
Layer_0
  10
198.54041
  20
246.36591
  0
VERTEX
  5
7d1
  8
Layer_0
  10
198.5079
  20
246.41461
  0
VERTEX
  5
7d2
  8
Layer_0
  10
198.49651
  20
246.472
  0
VERTEX
  5
7d3
  8
Layer_0
  10
198.49651
  20
248.12201
  0
VERTEX
  5
7d4
  8
Layer_0
  10
198.5079
  20
248.1794
  0
VERTEX
  5
7d5
  8
Layer_0
  10
198.54041
  20
248.2281
  0
VERTEX
  5
7d6
  8
Layer_0
  10
198.5891
  20
248.2606
  0
VERTEX
  5
7d7
  8
Layer_0
  10
198.6465
  20
248.272
  0
VERTEX
  5
7d8
  8
Layer_0
  10
198.9465
  20
248.272
  0
SEQEND
  0
POLYLINE
  5
7da
  8
Layer_0
  62
0
  66
1
  10
0
  20
0
  30
0
  0
VERTEX
  5
7da
  8
Layer_0
  10
200.21651
  20
248.272
  0
VERTEX
  5
7db
  8
Layer_0
  10
200.2739
  20
248.2606
  0
VERTEX
  5
7dc
  8
Layer_0
  10
200.3226
  20
248.2281
  0
VERTEX
  5
7dd
  8
Layer_0
  10
200.3551
  20
248.1794
  0
VERTEX
  5
7de
  8
Layer_0
  10
200.3665
  20
248.12201
  0
VERTEX
  5
7df
  8
Layer_0
  10
200.3665
  20
246.472
  0
VERTEX
  5
7e0
  8
Layer_0
  10
200.3551
  20
246.41461
  0
VERTEX
  5
7e1
  8
Layer_0
  10
200.3226
  20
246.36591
  0
VERTEX
  5
7e2
  8
Layer_0
  10
200.2739
  20
246.3334
  0
VERTEX
  5
7e3
  8
Layer_0
  10
200.21651
  20
246.32201
  0
VERTEX
  5
7e4
  8
Layer_0
  10
199.9165
  20
246.32201
  0
VERTEX
  5
7e5
  8
Layer_0
  10
199.8591
  20
246.3334
  0
VERTEX
  5
7e6
  8
Layer_0
  10
199.81039
  20
246.36591
  0
VERTEX
  5
7e7
  8
Layer_0
  10
199.77791
  20
246.41461
  0
VERTEX
  5
7e8
  8
Layer_0
  10
199.76651
  20
246.472
  0
VERTEX
  5
7e9
  8
Layer_0
  10
199.76651
  20
248.12201
  0
VERTEX
  5
7ea
  8
Layer_0
  10
199.77791
  20
248.1794
  0
VERTEX
  5
7eb
  8
Layer_0
  10
199.81039
  20
248.2281
  0
VERTEX
  5
7ec
  8
Layer_0
  10
199.8591
  20
248.2606
  0
VERTEX
  5
7ed
  8
Layer_0
  10
199.9165
  20
248.272
  0
VERTEX
  5
7ee
  8
Layer_0
  10
200.21651
  20
248.272
  0
SEQEND
  0
POLYLINE
  5
7f0
  8
Layer_0
  62
0
  66
1
  10
0
  20
0
  30
0
  0
VERTEX
  5
7f0
  8
Layer_0
  10
201.4865
  20
248.272
  0
VERTEX
  5
7f1
  8
Layer_0
  10
201.5439
  20
248.2606
  0
VERTEX
  5
7f2
  8
Layer_0
  10
201.59261
  20
248.2281
  0
VERTEX
  5
7f3
  8
Layer_0
  10
201.62511
  20
248.1794
  0
VERTEX
  5
7f4
  8
Layer_0
  10
201.63651
  20
248.12201
  0
VERTEX
  5
7f5
  8
Layer_0
  10
201.63651
  20
246.472
  0
VERTEX
  5
7f6
  8
Layer_0
  10
201.62511
  20
246.41461
  0
VERTEX
  5
7f7
  8
Layer_0
  10
201.59261
  20
246.36591
  0
VERTEX
  5
7f8
  8
Layer_0
  10
201.5439
  20
246.3334
  0
VERTEX
  5
7f9
  8
Layer_0
  10
201.4865
  20
246.32201
  0
VERTEX
  5
7fa
  8
Layer_0
  10
201.18651
  20
246.32201
  0
VERTEX
  5
7fb
  8
Layer_0
  10
201.1291
  20
246.3334
  0
VERTEX
  5
7fc
  8
Layer_0
  10
201.0804
  20
246.36591
  0
VERTEX
  5
7fd
  8
Layer_0
  10
201.0479
  20
246.41461
  0
VERTEX
  5
7fe
  8
Layer_0
  10
201.0365
  20
246.472
  0
VERTEX
  5
7ff
  8
Layer_0
  10
201.0365
  20
248.12201
  0
VERTEX
  5
800
  8
Layer_0
  10
201.0479
  20
248.1794
  0
VERTEX
  5
801
  8
Layer_0
  10
201.0804
  20
248.2281
  0
VERTEX
  5
802
  8
Layer_0
  10
201.1291
  20
248.2606
  0
VERTEX
  5
803
  8
Layer_0
  10
201.18651
  20
248.272
  0
VERTEX
  5
804
  8
Layer_0
  10
201.4865
  20
248.272
  0
SEQEND
  0
POLYLINE
  5
806
  8
Layer_0
  62
0
  66
1
  10
0
  20
0
  30
0
  0
VERTEX
  5
806
  8
Layer_0
  10
202.7565
  20
248.272
  0
VERTEX
  5
807
  8
Layer_0
  10
202.8139
  20
248.2606
  0
VERTEX
  5
808
  8
Layer_0
  10
202.86261
  20
248.2281
  0
VERTEX
  5
809
  8
Layer_0
  10
202.8951
  20
248.1794
  0
VERTEX
  5
80a
  8
Layer_0
  10
202.90649
  20
248.12201
  0
VERTEX
  5
80b
  8
Layer_0
  10
202.90649
  20
246.472
  0
VERTEX
  5
80c
  8
Layer_0
  10
202.8951
  20
246.41461
  0
VERTEX
  5
80d
  8
Layer_0
  10
202.86261
  20
246.36591
  0
VERTEX
  5
80e
  8
Layer_0
  10
202.8139
  20
246.3334
  0
VERTEX
  5
80f
  8
Layer_0
  10
202.7565
  20
246.32201
  0
VERTEX
  5
810
  8
Layer_0
  10
202.4565
  20
246.32201
  0
VERTEX
  5
811
  8
Layer_0
  10
202.39911
  20
246.3334
  0
VERTEX
  5
812
  8
Layer_0
  10
202.3504
  20
246.36591
  0
VERTEX
  5
813
  8
Layer_0
  10
202.3179
  20
246.41461
  0
VERTEX
  5
814
  8
Layer_0
  10
202.3065
  20
246.472
  0
VERTEX
  5
815
  8
Layer_0
  10
202.3065
  20
248.12201
  0
VERTEX
  5
816
  8
Layer_0
  10
202.3179
  20
248.1794
  0
VERTEX
  5
817
  8
Layer_0
  10
202.3504
  20
248.2281
  0
VERTEX
  5
818
  8
Layer_0
  10
202.39911
  20
248.2606
  0
VERTEX
  5
819
  8
Layer_0
  10
202.4565
  20
248.272
  0
VERTEX
  5
81a
  8
Layer_0
  10
202.7565
  20
248.272
  0
SEQEND
  0
POLYLINE
  5
81c
  8
Layer_0
  62
0
  66
1
  10
0
  20
0
  30
0
  0
VERTEX
  5
81c
  8
Layer_0
  10
204.0265
  20
248.272
  0
VERTEX
  5
81d
  8
Layer_0
  10
204.08389
  20
248.2606
  0
VERTEX
  5
81e
  8
Layer_0
  10
204.1326
  20
248.2281
  0
VERTEX
  5
81f
  8
Layer_0
  10
204.1651
  20
248.1794
  0
VERTEX
  5
820
  8
Layer_0
  10
204.1765
  20
248.12201
  0
VERTEX
  5
821
  8
Layer_0
  10
204.1765
  20
246.472
  0
VERTEX
  5
822
  8
Layer_0
  10
204.1651
  20
246.41461
  0
VERTEX
  5
823
  8
Layer_0
  10
204.1326
  20
246.36591
  0
VERTEX
  5
824
  8
Layer_0
  10
204.08389
  20
246.3334
  0
VERTEX
  5
825
  8
Layer_0
  10
204.0265
  20
246.32201
  0
VERTEX
  5
826
  8
Layer_0
  10
203.7265
  20
246.32201
  0
VERTEX
  5
827
  8
Layer_0
  10
203.6691
  20
246.3334
  0
VERTEX
  5
828
  8
Layer_0
  10
203.62041
  20
246.36591
  0
VERTEX
  5
829
  8
Layer_0
  10
203.58791
  20
246.41461
  0
VERTEX
  5
82a
  8
Layer_0
  10
203.57651
  20
246.472
  0
VERTEX
  5
82b
  8
Layer_0
  10
203.57651
  20
248.12201
  0
VERTEX
  5
82c
  8
Layer_0
  10
203.58791
  20
248.1794
  0
VERTEX
  5
82d
  8
Layer_0
  10
203.62041
  20
248.2281
  0
VERTEX
  5
82e
  8
Layer_0
  10
203.6691
  20
248.2606
  0
VERTEX
  5
82f
  8
Layer_0
  10
203.7265
  20
248.272
  0
VERTEX
  5
830
  8
Layer_0
  10
204.0265
  20
248.272
  0
SEQEND
  0
POLYLINE
  5
832
  8
Layer_0
  62
0
  66
1
  10
0
  20
0
  30
0
  0
VERTEX
  5
832
  8
Layer_0
  10
205.1615
  20
230.83701
  0
VERTEX
  5
833
  8
Layer_0
  10
205.1512
  20
230.78531
  0
VERTEX
  5
834
  8
Layer_0
  10
205.12201
  20
230.7415
  0
VERTEX
  5
835
  8
Layer_0
  10
205.0782
  20
230.71231
  0
VERTEX
  5
836
  8
Layer_0
  10
205.0265
  20
230.702
  0
VERTEX
  5
837
  8
Layer_0
  10
204.7565
  20
230.702
  0
VERTEX
  5
838
  8
Layer_0
  10
204.7048
  20
230.71231
  0
VERTEX
  5
839
  8
Layer_0
  10
204.66101
  20
230.7415
  0
VERTEX
  5
83a
  8
Layer_0
  10
204.63181
  20
230.78531
  0
VERTEX
  5
83b
  8
Layer_0
  10
204.62151
  20
230.83701
  0
VERTEX
  5
83c
  8
Layer_0
  10
204.62151
  20
231.207
  0
VERTEX
  5
83d
  8
Layer_0
  10
204.63181
  20
231.2587
  0
VERTEX
  5
83e
  8
Layer_0
  10
204.66101
  20
231.30251
  0
VERTEX
  5
83f
  8
Layer_0
  10
204.7048
  20
231.3317
  0
VERTEX
  5
840
  8
Layer_0
  10
204.7565
  20
231.34201
  0
VERTEX
  5
841
  8
Layer_0
  10
205.0265
  20
231.34201
  0
VERTEX
  5
842
  8
Layer_0
  10
205.0782
  20
231.3317
  0
VERTEX
  5
843
  8
Layer_0
  10
205.12201
  20
231.30251
  0
VERTEX
  5
844
  8
Layer_0
  10
205.1512
  20
231.2587
  0
VERTEX
  5
845
  8
Layer_0
  10
205.1615
  20
231.207
  0
VERTEX
  5
846
  8
Layer_0
  10
205.1615
  20
230.83701
  0
SEQEND
  0
POLYLINE
  5
848
  8
Layer_0
  62
0
  66
1
  10
0
  20
0
  30
0
  0
VERTEX
  5
848
  8
Layer_0
  10
204.14151
  20
230.83701
  0
VERTEX
  5
849
  8
Layer_0
  10
204.1312
  20
230.78531
  0
VERTEX
  5
84a
  8
Layer_0
  10
204.10201
  20
230.7415
  0
VERTEX
  5
84b
  8
Layer_0
  10
204.0582
  20
230.71231
  0
VERTEX
  5
84c
  8
Layer_0
  10
204.0065
  20
230.702
  0
VERTEX
  5
84d
  8
Layer_0
  10
203.73651
  20
230.702
  0
VERTEX
  5
84e
  8
Layer_0
  10
203.6848
  20
230.71231
  0
VERTEX
  5
84f
  8
Layer_0
  10
203.64101
  20
230.7415
  0
VERTEX
  5
850
  8
Layer_0
  10
203.6118
  20
230.78531
  0
VERTEX
  5
851
  8
Layer_0
  10
203.6015
  20
230.83701
  0
VERTEX
  5
852
  8
Layer_0
  10
203.6015
  20
231.207
  0
VERTEX
  5
853
  8
Layer_0
  10
203.6118
  20
231.2587
  0
VERTEX
  5
854
  8
Layer_0
  10
203.64101
  20
231.30251
  0
VERTEX
  5
855
  8
Layer_0
  10
203.6848
  20
231.3317
  0
VERTEX
  5
856
  8
Layer_0
  10
203.73651
  20
231.34201
  0
VERTEX
  5
857
  8
Layer_0
  10
204.0065
  20
231.34201
  0
VERTEX
  5
858
  8
Layer_0
  10
204.0582
  20
231.3317
  0
VERTEX
  5
859
  8
Layer_0
  10
204.10201
  20
231.30251
  0
VERTEX
  5
85a
  8
Layer_0
  10
204.1312
  20
231.2587
  0
VERTEX
  5
85b
  8
Layer_0
  10
204.14151
  20
231.207
  0
VERTEX
  5
85c
  8
Layer_0
  10
204.14151
  20
230.83701
  0
SEQEND
  0
POLYLINE
  5
85e
  8
Layer_0
  62
0
  66
1
  10
0
  20
0
  30
0
  0
VERTEX
  5
85e
  8
Layer_0
  10
244.8723
  20
243.63991
  0
VERTEX
  5
85f
  8
Layer_0
  10
244.8914
  20
243.7356
  0
VERTEX
  5
860
  8
Layer_0
  10
244.9456
  20
243.81671
  0
VERTEX
  5
861
  8
Layer_0
  10
245.0267
  20
243.87091
  0
VERTEX
  5
862
  8
Layer_0
  10
245.1223
  20
243.88991
  0
VERTEX
  5
863
  8
Layer_0
  10
245.64731
  20
243.88991
  0
VERTEX
  5
864
  8
Layer_0
  10
245.74301
  20
243.87091
  0
VERTEX
  5
865
  8
Layer_0
  10
245.8241
  20
243.81671
  0
VERTEX
  5
866
  8
Layer_0
  10
245.8783
  20
243.7356
  0
VERTEX
  5
867
  8
Layer_0
  10
245.89731
  20
243.63991
  0
VERTEX
  5
868
  8
Layer_0
  10
245.89731
  20
242.7399
  0
VERTEX
  5
869
  8
Layer_0
  10
245.8783
  20
242.6443
  0
VERTEX
  5
86a
  8
Layer_0
  10
245.8241
  20
242.56311
  0
VERTEX
  5
86b
  8
Layer_0
  10
245.74301
  20
242.509
  0
VERTEX
  5
86c
  8
Layer_0
  10
245.64731
  20
242.4899
  0
VERTEX
  5
86d
  8
Layer_0
  10
245.1223
  20
242.4899
  0
VERTEX
  5
86e
  8
Layer_0
  10
245.0267
  20
242.509
  0
VERTEX
  5
86f
  8
Layer_0
  10
244.9456
  20
242.56311
  0
VERTEX
  5
870
  8
Layer_0
  10
244.8914
  20
242.6443
  0
VERTEX
  5
871
  8
Layer_0
  10
244.8723
  20
242.7399
  0
VERTEX
  5
872
  8
Layer_0
  10
244.8723
  20
243.63991
  0
SEQEND
  0
POLYLINE
  5
874
  8
Layer_0
  62
0
  66
1
  10
0
  20
0
  30
0
  0
VERTEX
  5
874
  8
Layer_0
  10
246.6973
  20
243.63991
  0
VERTEX
  5
875
  8
Layer_0
  10
246.7164
  20
243.7356
  0
VERTEX
  5
876
  8
Layer_0
  10
246.7706
  20
243.81671
  0
VERTEX
  5
877
  8
Layer_0
  10
246.8517
  20
243.87091
  0
VERTEX
  5
878
  8
Layer_0
  10
246.9473
  20
243.88991
  0
VERTEX
  5
879
  8
Layer_0
  10
247.47231
  20
243.88991
  0
VERTEX
  5
87a
  8
Layer_0
  10
247.56799
  20
243.87091
  0
VERTEX
  5
87b
  8
Layer_0
  10
247.64911
  20
243.81671
  0
VERTEX
  5
87c
  8
Layer_0
  10
247.70331
  20
243.7356
  0
VERTEX
  5
87d
  8
Layer_0
  10
247.72231
  20
243.63991
  0
VERTEX
  5
87e
  8
Layer_0
  10
247.72231
  20
242.7399
  0
VERTEX
  5
87f
  8
Layer_0
  10
247.70331
  20
242.6443
  0
VERTEX
  5
880
  8
Layer_0
  10
247.64911
  20
242.56311
  0
VERTEX
  5
881
  8
Layer_0
  10
247.56799
  20
242.509
  0
VERTEX
  5
882
  8
Layer_0
  10
247.47231
  20
242.4899
  0
VERTEX
  5
883
  8
Layer_0
  10
246.9473
  20
242.4899
  0
VERTEX
  5
884
  8
Layer_0
  10
246.8517
  20
242.509
  0
VERTEX
  5
885
  8
Layer_0
  10
246.7706
  20
242.56311
  0
VERTEX
  5
886
  8
Layer_0
  10
246.7164
  20
242.6443
  0
VERTEX
  5
887
  8
Layer_0
  10
246.6973
  20
242.7399
  0
VERTEX
  5
888
  8
Layer_0
  10
246.6973
  20
243.63991
  0
SEQEND
  0
POLYLINE
  5
88a
  8
Layer_0
  62
0
  66
1
  10
0
  20
0
  30
0
  0
VERTEX
  5
88a
  8
Layer_0
  10
195.15649
  20
241.772
  0
VERTEX
  5
88b
  8
Layer_0
  10
195.1736
  20
241.85811
  0
VERTEX
  5
88c
  8
Layer_0
  10
195.2224
  20
241.93111
  0
VERTEX
  5
88d
  8
Layer_0
  10
195.29541
  20
241.9799
  0
VERTEX
  5
88e
  8
Layer_0
  10
195.3815
  20
241.99701
  0
VERTEX
  5
88f
  8
Layer_0
  10
195.8315
  20
241.99701
  0
VERTEX
  5
890
  8
Layer_0
  10
195.9176
  20
241.9799
  0
VERTEX
  5
891
  8
Layer_0
  10
195.9906
  20
241.93111
  0
VERTEX
  5
892
  8
Layer_0
  10
196.0394
  20
241.85811
  0
VERTEX
  5
893
  8
Layer_0
  10
196.0565
  20
241.772
  0
VERTEX
  5
894
  8
Layer_0
  10
196.0565
  20
241.272
  0
VERTEX
  5
895
  8
Layer_0
  10
196.0394
  20
241.1859
  0
VERTEX
  5
896
  8
Layer_0
  10
195.9906
  20
241.1129
  0
VERTEX
  5
897
  8
Layer_0
  10
195.9176
  20
241.0641
  0
VERTEX
  5
898
  8
Layer_0
  10
195.8315
  20
241.047
  0
VERTEX
  5
899
  8
Layer_0
  10
195.3815
  20
241.047
  0
VERTEX
  5
89a
  8
Layer_0
  10
195.29541
  20
241.0641
  0
VERTEX
  5
89b
  8
Layer_0
  10
195.2224
  20
241.1129
  0
VERTEX
  5
89c
  8
Layer_0
  10
195.1736
  20
241.1859
  0
VERTEX
  5
89d
  8
Layer_0
  10
195.15649
  20
241.272
  0
VERTEX
  5
89e
  8
Layer_0
  10
195.15649
  20
241.772
  0
SEQEND
  0
POLYLINE
  5
8a0
  8
Layer_0
  62
0
  66
1
  10
0
  20
0
  30
0
  0
VERTEX
  5
8a0
  8
Layer_0
  10
196.7065
  20
241.772
  0
VERTEX
  5
8a1
  8
Layer_0
  10
196.7236
  20
241.85811
  0
VERTEX
  5
8a2
  8
Layer_0
  10
196.7724
  20
241.93111
  0
VERTEX
  5
8a3
  8
Layer_0
  10
196.8454
  20
241.9799
  0
VERTEX
  5
8a4
  8
Layer_0
  10
196.9315
  20
241.99701
  0
VERTEX
  5
8a5
  8
Layer_0
  10
197.3815
  20
241.99701
  0
VERTEX
  5
8a6
  8
Layer_0
  10
197.46761
  20
241.9799
  0
VERTEX
  5
8a7
  8
Layer_0
  10
197.5406
  20
241.93111
  0
VERTEX
  5
8a8
  8
Layer_0
  10
197.5894
  20
241.85811
  0
VERTEX
  5
8a9
  8
Layer_0
  10
197.60651
  20
241.772
  0
VERTEX
  5
8aa
  8
Layer_0
  10
197.60651
  20
241.272
  0
VERTEX
  5
8ab
  8
Layer_0
  10
197.5894
  20
241.1859
  0
VERTEX
  5
8ac
  8
Layer_0
  10
197.5406
  20
241.1129
  0
VERTEX
  5
8ad
  8
Layer_0
  10
197.46761
  20
241.0641
  0
VERTEX
  5
8ae
  8
Layer_0
  10
197.3815
  20
241.047
  0
VERTEX
  5
8af
  8
Layer_0
  10
196.9315
  20
241.047
  0
VERTEX
  5
8b0
  8
Layer_0
  10
196.8454
  20
241.0641
  0
VERTEX
  5
8b1
  8
Layer_0
  10
196.7724
  20
241.1129
  0
VERTEX
  5
8b2
  8
Layer_0
  10
196.7236
  20
241.1859
  0
VERTEX
  5
8b3
  8
Layer_0
  10
196.7065
  20
241.272
  0
VERTEX
  5
8b4
  8
Layer_0
  10
196.7065
  20
241.772
  0
SEQEND
  0
POLYLINE
  5
8b6
  8
Layer_0
  62
0
  66
1
  10
0
  20
0
  30
0
  0
VERTEX
  5
8b6
  8
Layer_0
  10
185.35651
  20
230.147
  0
VERTEX
  5
8b7
  8
Layer_0
  10
185.3755
  20
230.24271
  0
VERTEX
  5
8b8
  8
Layer_0
  10
185.4297
  20
230.32381
  0
VERTEX
  5
8b9
  8
Layer_0
  10
185.5108
  20
230.37801
  0
VERTEX
  5
8ba
  8
Layer_0
  10
185.60651
  20
230.397
  0
VERTEX
  5
8bb
  8
Layer_0
  10
186.23151
  20
230.397
  0
VERTEX
  5
8bc
  8
Layer_0
  10
186.32721
  20
230.37801
  0
VERTEX
  5
8bd
  8
Layer_0
  10
186.40829
  20
230.32381
  0
VERTEX
  5
8be
  8
Layer_0
  10
186.46251
  20
230.24271
  0
VERTEX
  5
8bf
  8
Layer_0
  10
186.48151
  20
230.147
  0
VERTEX
  5
8c0
  8
Layer_0
  10
186.48151
  20
228.897
  0
VERTEX
  5
8c1
  8
Layer_0
  10
186.46251
  20
228.8013
  0
VERTEX
  5
8c2
  8
Layer_0
  10
186.40829
  20
228.7202
  0
VERTEX
  5
8c3
  8
Layer_0
  10
186.32721
  20
228.666
  0
VERTEX
  5
8c4
  8
Layer_0
  10
186.23151
  20
228.647
  0
VERTEX
  5
8c5
  8
Layer_0
  10
185.60651
  20
228.647
  0
VERTEX
  5
8c6
  8
Layer_0
  10
185.5108
  20
228.666
  0
VERTEX
  5
8c7
  8
Layer_0
  10
185.4297
  20
228.7202
  0
VERTEX
  5
8c8
  8
Layer_0
  10
185.3755
  20
228.8013
  0
VERTEX
  5
8c9
  8
Layer_0
  10
185.35651
  20
228.897
  0
VERTEX
  5
8ca
  8
Layer_0
  10
185.35651
  20
230.147
  0
SEQEND
  0
POLYLINE
  5
8cc
  8
Layer_0
  62
0
  66
1
  10
0
  20
0
  30
0
  0
VERTEX
  5
8cc
  8
Layer_0
  10
188.28149
  20
230.147
  0
VERTEX
  5
8cd
  8
Layer_0
  10
188.30051
  20
230.24271
  0
VERTEX
  5
8ce
  8
Layer_0
  10
188.35471
  20
230.32381
  0
VERTEX
  5
8cf
  8
Layer_0
  10
188.43581
  20
230.37801
  0
VERTEX
  5
8d0
  8
Layer_0
  10
188.53149
  20
230.397
  0
VERTEX
  5
8d1
  8
Layer_0
  10
189.15649
  20
230.397
  0
VERTEX
  5
8d2
  8
Layer_0
  10
189.2522
  20
230.37801
  0
VERTEX
  5
8d3
  8
Layer_0
  10
189.3333
  20
230.32381
  0
VERTEX
  5
8d4
  8
Layer_0
  10
189.3875
  20
230.24271
  0
VERTEX
  5
8d5
  8
Layer_0
  10
189.40649
  20
230.147
  0
VERTEX
  5
8d6
  8
Layer_0
  10
189.40649
  20
228.897
  0
VERTEX
  5
8d7
  8
Layer_0
  10
189.3875
  20
228.8013
  0
VERTEX
  5
8d8
  8
Layer_0
  10
189.3333
  20
228.7202
  0
VERTEX
  5
8d9
  8
Layer_0
  10
189.2522
  20
228.666
  0
VERTEX
  5
8da
  8
Layer_0
  10
189.15649
  20
228.647
  0
VERTEX
  5
8db
  8
Layer_0
  10
188.53149
  20
228.647
  0
VERTEX
  5
8dc
  8
Layer_0
  10
188.43581
  20
228.666
  0
VERTEX
  5
8dd
  8
Layer_0
  10
188.35471
  20
228.7202
  0
VERTEX
  5
8de
  8
Layer_0
  10
188.30051
  20
228.8013
  0
VERTEX
  5
8df
  8
Layer_0
  10
188.28149
  20
228.897
  0
VERTEX
  5
8e0
  8
Layer_0
  10
188.28149
  20
230.147
  0
SEQEND
  0
POLYLINE
  5
8e2
  8
Layer_0
  62
0
  66
1
  10
0
  20
0
  30
0
  0
VERTEX
  5
8e2
  8
Layer_0
  10
239.42331
  20
260.4104
  0
VERTEX
  5
8e3
  8
Layer_0
  10
239.44229
  20
260.5061
  0
VERTEX
  5
8e4
  8
Layer_0
  10
239.49651
  20
260.5872
  0
VERTEX
  5
8e5
  8
Layer_0
  10
239.57761
  20
260.6414
  0
VERTEX
  5
8e6
  8
Layer_0
  10
239.67331
  20
260.6604
  0
VERTEX
  5
8e7
  8
Layer_0
  10
240.1983
  20
260.6604
  0
VERTEX
  5
8e8
  8
Layer_0
  10
240.2939
  20
260.6414
  0
VERTEX
  5
8e9
  8
Layer_0
  10
240.37509
  20
260.5872
  0
VERTEX
  5
8ea
  8
Layer_0
  10
240.4292
  20
260.5061
  0
VERTEX
  5
8eb
  8
Layer_0
  10
240.4483
  20
260.4104
  0
VERTEX
  5
8ec
  8
Layer_0
  10
240.4483
  20
259.51041
  0
VERTEX
  5
8ed
  8
Layer_0
  10
240.4292
  20
259.41479
  0
VERTEX
  5
8ee
  8
Layer_0
  10
240.37509
  20
259.33371
  0
VERTEX
  5
8ef
  8
Layer_0
  10
240.2939
  20
259.27951
  0
VERTEX
  5
8f0
  8
Layer_0
  10
240.1983
  20
259.26041
  0
VERTEX
  5
8f1
  8
Layer_0
  10
239.67331
  20
259.26041
  0
VERTEX
  5
8f2
  8
Layer_0
  10
239.57761
  20
259.27951
  0
VERTEX
  5
8f3
  8
Layer_0
  10
239.49651
  20
259.33371
  0
VERTEX
  5
8f4
  8
Layer_0
  10
239.44229
  20
259.41479
  0
VERTEX
  5
8f5
  8
Layer_0
  10
239.42331
  20
259.51041
  0
VERTEX
  5
8f6
  8
Layer_0
  10
239.42331
  20
260.4104
  0
SEQEND
  0
POLYLINE
  5
8f8
  8
Layer_0
  62
0
  66
1
  10
0
  20
0
  30
0
  0
VERTEX
  5
8f8
  8
Layer_0
  10
241.24829
  20
260.4104
  0
VERTEX
  5
8f9
  8
Layer_0
  10
241.2673
  20
260.5061
  0
VERTEX
  5
8fa
  8
Layer_0
  10
241.3215
  20
260.5872
  0
VERTEX
  5
8fb
  8
Layer_0
  10
241.4026
  20
260.6414
  0
VERTEX
  5
8fc
  8
Layer_0
  10
241.49829
  20
260.6604
  0
VERTEX
  5
8fd
  8
Layer_0
  10
242.0233
  20
260.6604
  0
VERTEX
  5
8fe
  8
Layer_0
  10
242.1189
  20
260.6414
  0
VERTEX
  5
8ff
  8
Layer_0
  10
242.2001
  20
260.5872
  0
VERTEX
  5
900
  8
Layer_0
  10
242.25421
  20
260.5061
  0
VERTEX
  5
901
  8
Layer_0
  10
242.2733
  20
260.4104
  0
VERTEX
  5
902
  8
Layer_0
  10
242.2733
  20
259.51041
  0
VERTEX
  5
903
  8
Layer_0
  10
242.25421
  20
259.41479
  0
VERTEX
  5
904
  8
Layer_0
  10
242.2001
  20
259.33371
  0
VERTEX
  5
905
  8
Layer_0
  10
242.1189
  20
259.27951
  0
VERTEX
  5
906
  8
Layer_0
  10
242.0233
  20
259.26041
  0
VERTEX
  5
907
  8
Layer_0
  10
241.49829
  20
259.26041
  0
VERTEX
  5
908
  8
Layer_0
  10
241.4026
  20
259.27951
  0
VERTEX
  5
909
  8
Layer_0
  10
241.3215
  20
259.33371
  0
VERTEX
  5
90a
  8
Layer_0
  10
241.2673
  20
259.41479
  0
VERTEX
  5
90b
  8
Layer_0
  10
241.24829
  20
259.51041
  0
VERTEX
  5
90c
  8
Layer_0
  10
241.24829
  20
260.4104
  0
SEQEND
  0
POLYLINE
  5
90e
  8
Layer_0
  62
0
  66
1
  10
0
  20
0
  30
0
  0
VERTEX
  5
90e
  8
Layer_0
  10
230.44681
  20
268.5479
  0
VERTEX
  5
90f
  8
Layer_0
  10
230.4653
  20
268.6412
  0
VERTEX
  5
910
  8
Layer_0
  10
230.5181
  20
268.72031
  0
VERTEX
  5
911
  8
Layer_0
  10
230.5972
  20
268.7731
  0
VERTEX
  5
912
  8
Layer_0
  10
230.69051
  20
268.7917
  0
VERTEX
  5
913
  8
Layer_0
  10
231.17801
  20
268.7917
  0
VERTEX
  5
914
  8
Layer_0
  10
231.2713
  20
268.7731
  0
VERTEX
  5
915
  8
Layer_0
  10
231.3504
  20
268.72031
  0
VERTEX
  5
916
  8
Layer_0
  10
231.4032
  20
268.6412
  0
VERTEX
  5
917
  8
Layer_0
  10
231.4218
  20
268.5479
  0
VERTEX
  5
918
  8
Layer_0
  10
231.4218
  20
267.63541
  0
VERTEX
  5
919
  8
Layer_0
  10
231.4032
  20
267.5421
  0
VERTEX
  5
91a
  8
Layer_0
  10
231.3504
  20
267.4631
  0
VERTEX
  5
91b
  8
Layer_0
  10
231.2713
  20
267.4102
  0
VERTEX
  5
91c
  8
Layer_0
  10
231.17801
  20
267.39171
  0
VERTEX
  5
91d
  8
Layer_0
  10
230.69051
  20
267.39171
  0
VERTEX
  5
91e
  8
Layer_0
  10
230.5972
  20
267.4102
  0
VERTEX
  5
91f
  8
Layer_0
  10
230.5181
  20
267.4631
  0
VERTEX
  5
920
  8
Layer_0
  10
230.4653
  20
267.5421
  0
VERTEX
  5
921
  8
Layer_0
  10
230.44681
  20
267.63541
  0
VERTEX
  5
922
  8
Layer_0
  10
230.44681
  20
268.5479
  0
SEQEND
  0
POLYLINE
  5
924
  8
Layer_0
  62
0
  66
1
  10
0
  20
0
  30
0
  0
VERTEX
  5
924
  8
Layer_0
  10
232.32181
  20
268.5479
  0
VERTEX
  5
925
  8
Layer_0
  10
232.3403
  20
268.6412
  0
VERTEX
  5
926
  8
Layer_0
  10
232.3931
  20
268.72031
  0
VERTEX
  5
927
  8
Layer_0
  10
232.4722
  20
268.7731
  0
VERTEX
  5
928
  8
Layer_0
  10
232.56551
  20
268.7917
  0
VERTEX
  5
929
  8
Layer_0
  10
233.05301
  20
268.7917
  0
VERTEX
  5
92a
  8
Layer_0
  10
233.1463
  20
268.7731
  0
VERTEX
  5
92b
  8
Layer_0
  10
233.2254
  20
268.72031
  0
VERTEX
  5
92c
  8
Layer_0
  10
233.2782
  20
268.6412
  0
VERTEX
  5
92d
  8
Layer_0
  10
233.2968
  20
268.5479
  0
VERTEX
  5
92e
  8
Layer_0
  10
233.2968
  20
267.63541
  0
VERTEX
  5
92f
  8
Layer_0
  10
233.2782
  20
267.5421
  0
VERTEX
  5
930
  8
Layer_0
  10
233.2254
  20
267.4631
  0
VERTEX
  5
931
  8
Layer_0
  10
233.1463
  20
267.4102
  0
VERTEX
  5
932
  8
Layer_0
  10
233.05301
  20
267.39171
  0
VERTEX
  5
933
  8
Layer_0
  10
232.56551
  20
267.39171
  0
VERTEX
  5
934
  8
Layer_0
  10
232.4722
  20
267.4102
  0
VERTEX
  5
935
  8
Layer_0
  10
232.3931
  20
267.4631
  0
VERTEX
  5
936
  8
Layer_0
  10
232.3403
  20
267.5421
  0
VERTEX
  5
937
  8
Layer_0
  10
232.32181
  20
267.63541
  0
VERTEX
  5
938
  8
Layer_0
  10
232.32181
  20
268.5479
  0
SEQEND
  0
POLYLINE
  5
93a
  8
Layer_0
  62
0
  66
1
  10
0
  20
0
  30
0
  0
VERTEX
  5
93a
  8
Layer_0
  10
195.15649
  20
229.772
  0
VERTEX
  5
93b
  8
Layer_0
  10
195.1736
  20
229.85811
  0
VERTEX
  5
93c
  8
Layer_0
  10
195.2224
  20
229.93111
  0
VERTEX
  5
93d
  8
Layer_0
  10
195.29541
  20
229.9799
  0
VERTEX
  5
93e
  8
Layer_0
  10
195.3815
  20
229.99701
  0
VERTEX
  5
93f
  8
Layer_0
  10
195.8315
  20
229.99701
  0
VERTEX
  5
940
  8
Layer_0
  10
195.9176
  20
229.9799
  0
VERTEX
  5
941
  8
Layer_0
  10
195.9906
  20
229.93111
  0
VERTEX
  5
942
  8
Layer_0
  10
196.0394
  20
229.85811
  0
VERTEX
  5
943
  8
Layer_0
  10
196.0565
  20
229.772
  0
VERTEX
  5
944
  8
Layer_0
  10
196.0565
  20
229.272
  0
VERTEX
  5
945
  8
Layer_0
  10
196.0394
  20
229.1859
  0
VERTEX
  5
946
  8
Layer_0
  10
195.9906
  20
229.1129
  0
VERTEX
  5
947
  8
Layer_0
  10
195.9176
  20
229.0641
  0
VERTEX
  5
948
  8
Layer_0
  10
195.8315
  20
229.047
  0
VERTEX
  5
949
  8
Layer_0
  10
195.3815
  20
229.047
  0
VERTEX
  5
94a
  8
Layer_0
  10
195.29541
  20
229.0641
  0
VERTEX
  5
94b
  8
Layer_0
  10
195.2224
  20
229.1129
  0
VERTEX
  5
94c
  8
Layer_0
  10
195.1736
  20
229.1859
  0
VERTEX
  5
94d
  8
Layer_0
  10
195.15649
  20
229.272
  0
VERTEX
  5
94e
  8
Layer_0
  10
195.15649
  20
229.772
  0
SEQEND
  0
POLYLINE
  5
950
  8
Layer_0
  62
0
  66
1
  10
0
  20
0
  30
0
  0
VERTEX
  5
950
  8
Layer_0
  10
196.7065
  20
229.772
  0
VERTEX
  5
951
  8
Layer_0
  10
196.7236
  20
229.85811
  0
VERTEX
  5
952
  8
Layer_0
  10
196.7724
  20
229.93111
  0
VERTEX
  5
953
  8
Layer_0
  10
196.8454
  20
229.9799
  0
VERTEX
  5
954
  8
Layer_0
  10
196.9315
  20
229.99701
  0
VERTEX
  5
955
  8
Layer_0
  10
197.3815
  20
229.99701
  0
VERTEX
  5
956
  8
Layer_0
  10
197.46761
  20
229.9799
  0
VERTEX
  5
957
  8
Layer_0
  10
197.5406
  20
229.93111
  0
VERTEX
  5
958
  8
Layer_0
  10
197.5894
  20
229.85811
  0
VERTEX
  5
959
  8
Layer_0
  10
197.60651
  20
229.772
  0
VERTEX
  5
95a
  8
Layer_0
  10
197.60651
  20
229.272
  0
VERTEX
  5
95b
  8
Layer_0
  10
197.5894
  20
229.1859
  0
VERTEX
  5
95c
  8
Layer_0
  10
197.5406
  20
229.1129
  0
VERTEX
  5
95d
  8
Layer_0
  10
197.46761
  20
229.0641
  0
VERTEX
  5
95e
  8
Layer_0
  10
197.3815
  20
229.047
  0
VERTEX
  5
95f
  8
Layer_0
  10
196.9315
  20
229.047
  0
VERTEX
  5
960
  8
Layer_0
  10
196.8454
  20
229.0641
  0
VERTEX
  5
961
  8
Layer_0
  10
196.7724
  20
229.1129
  0
VERTEX
  5
962
  8
Layer_0
  10
196.7236
  20
229.1859
  0
VERTEX
  5
963
  8
Layer_0
  10
196.7065
  20
229.272
  0
VERTEX
  5
964
  8
Layer_0
  10
196.7065
  20
229.772
  0
SEQEND
  0
POLYLINE
  5
966
  8
Layer_0
  62
0
  66
1
  10
0
  20
0
  30
0
  0
VERTEX
  5
966
  8
Layer_0
  10
203.6015
  20
228.707
  0
VERTEX
  5
967
  8
Layer_0
  10
203.6118
  20
228.7587
  0
VERTEX
  5
968
  8
Layer_0
  10
203.64101
  20
228.80251
  0
VERTEX
  5
969
  8
Layer_0
  10
203.6848
  20
228.8317
  0
VERTEX
  5
96a
  8
Layer_0
  10
203.73651
  20
228.84201
  0
VERTEX
  5
96b
  8
Layer_0
  10
204.0065
  20
228.84201
  0
VERTEX
  5
96c
  8
Layer_0
  10
204.0582
  20
228.8317
  0
VERTEX
  5
96d
  8
Layer_0
  10
204.10201
  20
228.80251
  0
VERTEX
  5
96e
  8
Layer_0
  10
204.1312
  20
228.7587
  0
VERTEX
  5
96f
  8
Layer_0
  10
204.14151
  20
228.707
  0
VERTEX
  5
970
  8
Layer_0
  10
204.14151
  20
228.33701
  0
VERTEX
  5
971
  8
Layer_0
  10
204.1312
  20
228.28531
  0
VERTEX
  5
972
  8
Layer_0
  10
204.10201
  20
228.2415
  0
VERTEX
  5
973
  8
Layer_0
  10
204.0582
  20
228.21231
  0
VERTEX
  5
974
  8
Layer_0
  10
204.0065
  20
228.202
  0
VERTEX
  5
975
  8
Layer_0
  10
203.73651
  20
228.202
  0
VERTEX
  5
976
  8
Layer_0
  10
203.6848
  20
228.21231
  0
VERTEX
  5
977
  8
Layer_0
  10
203.64101
  20
228.2415
  0
VERTEX
  5
978
  8
Layer_0
  10
203.6118
  20
228.28531
  0
VERTEX
  5
979
  8
Layer_0
  10
203.6015
  20
228.33701
  0
VERTEX
  5
97a
  8
Layer_0
  10
203.6015
  20
228.707
  0
SEQEND
  0
POLYLINE
  5
97c
  8
Layer_0
  62
0
  66
1
  10
0
  20
0
  30
0
  0
VERTEX
  5
97c
  8
Layer_0
  10
204.62151
  20
228.707
  0
VERTEX
  5
97d
  8
Layer_0
  10
204.63181
  20
228.7587
  0
VERTEX
  5
97e
  8
Layer_0
  10
204.66101
  20
228.80251
  0
VERTEX
  5
97f
  8
Layer_0
  10
204.7048
  20
228.8317
  0
VERTEX
  5
980
  8
Layer_0
  10
204.7565
  20
228.84201
  0
VERTEX
  5
981
  8
Layer_0
  10
205.0265
  20
228.84201
  0
VERTEX
  5
982
  8
Layer_0
  10
205.0782
  20
228.8317
  0
VERTEX
  5
983
  8
Layer_0
  10
205.12201
  20
228.80251
  0
VERTEX
  5
984
  8
Layer_0
  10
205.1512
  20
228.7587
  0
VERTEX
  5
985
  8
Layer_0
  10
205.1615
  20
228.707
  0
VERTEX
  5
986
  8
Layer_0
  10
205.1615
  20
228.33701
  0
VERTEX
  5
987
  8
Layer_0
  10
205.1512
  20
228.28531
  0
VERTEX
  5
988
  8
Layer_0
  10
205.12201
  20
228.2415
  0
VERTEX
  5
989
  8
Layer_0
  10
205.0782
  20
228.21231
  0
VERTEX
  5
98a
  8
Layer_0
  10
205.0265
  20
228.202
  0
VERTEX
  5
98b
  8
Layer_0
  10
204.7565
  20
228.202
  0
VERTEX
  5
98c
  8
Layer_0
  10
204.7048
  20
228.21231
  0
VERTEX
  5
98d
  8
Layer_0
  10
204.66101
  20
228.2415
  0
VERTEX
  5
98e
  8
Layer_0
  10
204.63181
  20
228.28531
  0
VERTEX
  5
98f
  8
Layer_0
  10
204.62151
  20
228.33701
  0
VERTEX
  5
990
  8
Layer_0
  10
204.62151
  20
228.707
  0
SEQEND
  0
POLYLINE
  5
992
  8
Layer_0
  62
0
  66
1
  10
0
  20
0
  30
0
  0
VERTEX
  5
992
  8
Layer_0
  10
206.24991
  20
260.3732
  0
VERTEX
  5
993
  8
Layer_0
  10
206.3455
  20
260.3542
  0
VERTEX
  5
994
  8
Layer_0
  10
206.4267
  20
260.3
  0
VERTEX
  5
995
  8
Layer_0
  10
206.4808
  20
260.2189
  0
VERTEX
  5
996
  8
Layer_0
  10
206.49991
  20
260.1232
  0
VERTEX
  5
997
  8
Layer_0
  10
206.49991
  20
259.6232
  0
VERTEX
  5
998
  8
Layer_0
  10
206.4808
  20
259.5276
  0
VERTEX
  5
999
  8
Layer_0
  10
206.4267
  20
259.4465
  0
VERTEX
  5
99a
  8
Layer_0
  10
206.3455
  20
259.3923
  0
VERTEX
  5
99b
  8
Layer_0
  10
206.24991
  20
259.3732
  0
VERTEX
  5
99c
  8
Layer_0
  10
205.2999
  20
259.3732
  0
VERTEX
  5
99d
  8
Layer_0
  10
205.20419
  20
259.3923
  0
VERTEX
  5
99e
  8
Layer_0
  10
205.12311
  20
259.4465
  0
VERTEX
  5
99f
  8
Layer_0
  10
205.06891
  20
259.5276
  0
VERTEX
  5
9a0
  8
Layer_0
  10
205.0499
  20
259.6232
  0
VERTEX
  5
9a1
  8
Layer_0
  10
205.0499
  20
260.1232
  0
VERTEX
  5
9a2
  8
Layer_0
  10
205.06891
  20
260.2189
  0
VERTEX
  5
9a3
  8
Layer_0
  10
205.12311
  20
260.3
  0
VERTEX
  5
9a4
  8
Layer_0
  10
205.20419
  20
260.3542
  0
VERTEX
  5
9a5
  8
Layer_0
  10
205.2999
  20
260.3732
  0
VERTEX
  5
9a6
  8
Layer_0
  10
206.24991
  20
260.3732
  0
SEQEND
  0
POLYLINE
  5
9a8
  8
Layer_0
  62
0
  66
1
  10
0
  20
0
  30
0
  0
VERTEX
  5
9a8
  8
Layer_0
  10
206.24991
  20
258.47321
  0
VERTEX
  5
9a9
  8
Layer_0
  10
206.3455
  20
258.45421
  0
VERTEX
  5
9aa
  8
Layer_0
  10
206.4267
  20
258.40001
  0
VERTEX
  5
9ab
  8
Layer_0
  10
206.4808
  20
258.31891
  0
VERTEX
  5
9ac
  8
Layer_0
  10
206.49991
  20
258.22321
  0
VERTEX
  5
9ad
  8
Layer_0
  10
206.49991
  20
257.72321
  0
VERTEX
  5
9ae
  8
Layer_0
  10
206.4808
  20
257.62761
  0
VERTEX
  5
9af
  8
Layer_0
  10
206.4267
  20
257.54651
  0
VERTEX
  5
9b0
  8
Layer_0
  10
206.3455
  20
257.49231
  0
VERTEX
  5
9b1
  8
Layer_0
  10
206.24991
  20
257.47321
  0
VERTEX
  5
9b2
  8
Layer_0
  10
205.2999
  20
257.47321
  0
VERTEX
  5
9b3
  8
Layer_0
  10
205.20419
  20
257.49231
  0
VERTEX
  5
9b4
  8
Layer_0
  10
205.12311
  20
257.54651
  0
VERTEX
  5
9b5
  8
Layer_0
  10
205.06891
  20
257.62761
  0
VERTEX
  5
9b6
  8
Layer_0
  10
205.0499
  20
257.72321
  0
VERTEX
  5
9b7
  8
Layer_0
  10
205.0499
  20
258.22321
  0
VERTEX
  5
9b8
  8
Layer_0
  10
205.06891
  20
258.31891
  0
VERTEX
  5
9b9
  8
Layer_0
  10
205.12311
  20
258.40001
  0
VERTEX
  5
9ba
  8
Layer_0
  10
205.20419
  20
258.45421
  0
VERTEX
  5
9bb
  8
Layer_0
  10
205.2999
  20
258.47321
  0
VERTEX
  5
9bc
  8
Layer_0
  10
206.24991
  20
258.47321
  0
SEQEND
  0
POLYLINE
  5
9be
  8
Layer_0
  62
0
  66
1
  10
0
  20
0
  30
0
  0
VERTEX
  5
9be
  8
Layer_0
  10
221.0025
  20
249.795
  0
VERTEX
  5
9bf
  8
Layer_0
  10
221.08861
  20
249.77791
  0
VERTEX
  5
9c0
  8
Layer_0
  10
221.16161
  20
249.7291
  0
VERTEX
  5
9c1
  8
Layer_0
  10
221.2104
  20
249.6561
  0
VERTEX
  5
9c2
  8
Layer_0
  10
221.22751
  20
249.57001
  0
VERTEX
  5
9c3
  8
Layer_0
  10
221.22751
  20
249.12
  0
VERTEX
  5
9c4
  8
Layer_0
  10
221.2104
  20
249.03391
  0
VERTEX
  5
9c5
  8
Layer_0
  10
221.16161
  20
248.96091
  0
VERTEX
  5
9c6
  8
Layer_0
  10
221.08861
  20
248.91211
  0
VERTEX
  5
9c7
  8
Layer_0
  10
221.0025
  20
248.895
  0
VERTEX
  5
9c8
  8
Layer_0
  10
220.2525
  20
248.895
  0
VERTEX
  5
9c9
  8
Layer_0
  10
220.1664
  20
248.91211
  0
VERTEX
  5
9ca
  8
Layer_0
  10
220.0934
  20
248.96091
  0
VERTEX
  5
9cb
  8
Layer_0
  10
220.0446
  20
249.03391
  0
VERTEX
  5
9cc
  8
Layer_0
  10
220.0275
  20
249.12
  0
VERTEX
  5
9cd
  8
Layer_0
  10
220.0275
  20
249.57001
  0
VERTEX
  5
9ce
  8
Layer_0
  10
220.0446
  20
249.6561
  0
VERTEX
  5
9cf
  8
Layer_0
  10
220.0934
  20
249.7291
  0
VERTEX
  5
9d0
  8
Layer_0
  10
220.1664
  20
249.77791
  0
VERTEX
  5
9d1
  8
Layer_0
  10
220.2525
  20
249.795
  0
VERTEX
  5
9d2
  8
Layer_0
  10
221.0025
  20
249.795
  0
SEQEND
  0
POLYLINE
  5
9d4
  8
Layer_0
  62
0
  66
1
  10
0
  20
0
  30
0
  0
VERTEX
  5
9d4
  8
Layer_0
  10
221.0025
  20
246.495
  0
VERTEX
  5
9d5
  8
Layer_0
  10
221.08861
  20
246.47791
  0
VERTEX
  5
9d6
  8
Layer_0
  10
221.16161
  20
246.42911
  0
VERTEX
  5
9d7
  8
Layer_0
  10
221.2104
  20
246.35611
  0
VERTEX
  5
9d8
  8
Layer_0
  10
221.22751
  20
246.27
  0
VERTEX
  5
9d9
  8
Layer_0
  10
221.22751
  20
245.82001
  0
VERTEX
  5
9da
  8
Layer_0
  10
221.2104
  20
245.7339
  0
VERTEX
  5
9db
  8
Layer_0
  10
221.16161
  20
245.6609
  0
VERTEX
  5
9dc
  8
Layer_0
  10
221.08861
  20
245.61211
  0
VERTEX
  5
9dd
  8
Layer_0
  10
221.0025
  20
245.595
  0
VERTEX
  5
9de
  8
Layer_0
  10
220.2525
  20
245.595
  0
VERTEX
  5
9df
  8
Layer_0
  10
220.1664
  20
245.61211
  0
VERTEX
  5
9e0
  8
Layer_0
  10
220.0934
  20
245.6609
  0
VERTEX
  5
9e1
  8
Layer_0
  10
220.0446
  20
245.7339
  0
VERTEX
  5
9e2
  8
Layer_0
  10
220.0275
  20
245.82001
  0
VERTEX
  5
9e3
  8
Layer_0
  10
220.0275
  20
246.27
  0
VERTEX
  5
9e4
  8
Layer_0
  10
220.0446
  20
246.35611
  0
VERTEX
  5
9e5
  8
Layer_0
  10
220.0934
  20
246.42911
  0
VERTEX
  5
9e6
  8
Layer_0
  10
220.1664
  20
246.47791
  0
VERTEX
  5
9e7
  8
Layer_0
  10
220.2525
  20
246.495
  0
VERTEX
  5
9e8
  8
Layer_0
  10
221.0025
  20
246.495
  0
SEQEND
  0
POLYLINE
  5
9ea
  8
Layer_0
  62
0
  66
1
  10
0
  20
0
  30
0
  0
VERTEX
  5
9ea
  8
Layer_0
  10
221.7897
  20
260.4104
  0
VERTEX
  5
9eb
  8
Layer_0
  10
221.80881
  20
260.5061
  0
VERTEX
  5
9ec
  8
Layer_0
  10
221.8629
  20
260.5872
  0
VERTEX
  5
9ed
  8
Layer_0
  10
221.944
  20
260.6414
  0
VERTEX
  5
9ee
  8
Layer_0
  10
222.0397
  20
260.6604
  0
VERTEX
  5
9ef
  8
Layer_0
  10
222.5647
  20
260.6604
  0
VERTEX
  5
9f0
  8
Layer_0
  10
222.6604
  20
260.6414
  0
VERTEX
  5
9f1
  8
Layer_0
  10
222.7415
  20
260.5872
  0
VERTEX
  5
9f2
  8
Layer_0
  10
222.7957
  20
260.5061
  0
VERTEX
  5
9f3
  8
Layer_0
  10
222.8147
  20
260.4104
  0
VERTEX
  5
9f4
  8
Layer_0
  10
222.8147
  20
259.51041
  0
VERTEX
  5
9f5
  8
Layer_0
  10
222.7957
  20
259.41479
  0
VERTEX
  5
9f6
  8
Layer_0
  10
222.7415
  20
259.33371
  0
VERTEX
  5
9f7
  8
Layer_0
  10
222.6604
  20
259.27951
  0
VERTEX
  5
9f8
  8
Layer_0
  10
222.5647
  20
259.26041
  0
VERTEX
  5
9f9
  8
Layer_0
  10
222.0397
  20
259.26041
  0
VERTEX
  5
9fa
  8
Layer_0
  10
221.944
  20
259.27951
  0
VERTEX
  5
9fb
  8
Layer_0
  10
221.8629
  20
259.33371
  0
VERTEX
  5
9fc
  8
Layer_0
  10
221.80881
  20
259.41479
  0
VERTEX
  5
9fd
  8
Layer_0
  10
221.7897
  20
259.51041
  0
VERTEX
  5
9fe
  8
Layer_0
  10
221.7897
  20
260.4104
  0
SEQEND
  0
POLYLINE
  5
a00
  8
Layer_0
  62
0
  66
1
  10
0
  20
0
  30
0
  0
VERTEX
  5
a00
  8
Layer_0
  10
223.6147
  20
260.4104
  0
VERTEX
  5
a01
  8
Layer_0
  10
223.6338
  20
260.5061
  0
VERTEX
  5
a02
  8
Layer_0
  10
223.6879
  20
260.5872
  0
VERTEX
  5
a03
  8
Layer_0
  10
223.769
  20
260.6414
  0
VERTEX
  5
a04
  8
Layer_0
  10
223.8647
  20
260.6604
  0
VERTEX
  5
a05
  8
Layer_0
  10
224.38971
  20
260.6604
  0
VERTEX
  5
a06
  8
Layer_0
  10
224.4854
  20
260.6414
  0
VERTEX
  5
a07
  8
Layer_0
  10
224.5665
  20
260.5872
  0
VERTEX
  5
a08
  8
Layer_0
  10
224.6207
  20
260.5061
  0
VERTEX
  5
a09
  8
Layer_0
  10
224.63971
  20
260.4104
  0
VERTEX
  5
a0a
  8
Layer_0
  10
224.63971
  20
259.51041
  0
VERTEX
  5
a0b
  8
Layer_0
  10
224.6207
  20
259.41479
  0
VERTEX
  5
a0c
  8
Layer_0
  10
224.5665
  20
259.33371
  0
VERTEX
  5
a0d
  8
Layer_0
  10
224.4854
  20
259.27951
  0
VERTEX
  5
a0e
  8
Layer_0
  10
224.38971
  20
259.26041
  0
VERTEX
  5
a0f
  8
Layer_0
  10
223.8647
  20
259.26041
  0
VERTEX
  5
a10
  8
Layer_0
  10
223.769
  20
259.27951
  0
VERTEX
  5
a11
  8
Layer_0
  10
223.6879
  20
259.33371
  0
VERTEX
  5
a12
  8
Layer_0
  10
223.6338
  20
259.41479
  0
VERTEX
  5
a13
  8
Layer_0
  10
223.6147
  20
259.51041
  0
VERTEX
  5
a14
  8
Layer_0
  10
223.6147
  20
260.4104
  0
SEQEND
  0
ENDSEC
  0
EOF
