%TF.GenerationSoftware,KiCad,Pcbnew,7.0.1*%
%TF.CreationDate,2023-04-18T15:39:04-07:00*%
%TF.ProjectId,makerspace-smt-training,6d616b65-7273-4706-9163-652d736d742d,rev?*%
%TF.SameCoordinates,Original*%
%TF.FileFunction,Copper,L1,Top*%
%TF.FilePolarity,Positive*%
%FSLAX46Y46*%
G04 Gerber Fmt 4.6, Leading zero omitted, Abs format (unit mm)*
G04 Created by KiCad (PCBNEW 7.0.1) date 2023-04-18 15:39:04*
%MOMM*%
%LPD*%
G01*
G04 APERTURE LIST*
G04 Aperture macros list*
%AMRoundRect*
0 Rectangle with rounded corners*
0 $1 Rounding radius*
0 $2 $3 $4 $5 $6 $7 $8 $9 X,Y pos of 4 corners*
0 Add a 4 corners polygon primitive as box body*
4,1,4,$2,$3,$4,$5,$6,$7,$8,$9,$2,$3,0*
0 Add four circle primitives for the rounded corners*
1,1,$1+$1,$2,$3*
1,1,$1+$1,$4,$5*
1,1,$1+$1,$6,$7*
1,1,$1+$1,$8,$9*
0 Add four rect primitives between the rounded corners*
20,1,$1+$1,$2,$3,$4,$5,0*
20,1,$1+$1,$4,$5,$6,$7,0*
20,1,$1+$1,$6,$7,$8,$9,0*
20,1,$1+$1,$8,$9,$2,$3,0*%
G04 Aperture macros list end*
%TA.AperFunction,SMDPad,CuDef*%
%ADD10R,0.800000X0.600000*%
%TD*%
%TA.AperFunction,ComponentPad*%
%ADD11R,2.000000X4.600000*%
%TD*%
%TA.AperFunction,ComponentPad*%
%ADD12O,2.000000X4.200000*%
%TD*%
%TA.AperFunction,ComponentPad*%
%ADD13O,4.200000X2.000000*%
%TD*%
%TA.AperFunction,SMDPad,CuDef*%
%ADD14RoundRect,0.225000X-0.375000X0.225000X-0.375000X-0.225000X0.375000X-0.225000X0.375000X0.225000X0*%
%TD*%
%TA.AperFunction,SMDPad,CuDef*%
%ADD15RoundRect,0.243750X-0.243750X-0.456250X0.243750X-0.456250X0.243750X0.456250X-0.243750X0.456250X0*%
%TD*%
%TA.AperFunction,SMDPad,CuDef*%
%ADD16RoundRect,0.250000X-0.262500X-0.450000X0.262500X-0.450000X0.262500X0.450000X-0.262500X0.450000X0*%
%TD*%
%TA.AperFunction,SMDPad,CuDef*%
%ADD17RoundRect,0.225000X-0.225000X-0.250000X0.225000X-0.250000X0.225000X0.250000X-0.225000X0.250000X0*%
%TD*%
%TA.AperFunction,SMDPad,CuDef*%
%ADD18C,1.500000*%
%TD*%
%TA.AperFunction,SMDPad,CuDef*%
%ADD19RoundRect,0.250000X0.312500X0.625000X-0.312500X0.625000X-0.312500X-0.625000X0.312500X-0.625000X0*%
%TD*%
%TA.AperFunction,SMDPad,CuDef*%
%ADD20RoundRect,0.135000X-0.135000X-0.185000X0.135000X-0.185000X0.135000X0.185000X-0.135000X0.185000X0*%
%TD*%
%TA.AperFunction,ComponentPad*%
%ADD21C,2.000000*%
%TD*%
%TA.AperFunction,SMDPad,CuDef*%
%ADD22RoundRect,0.250000X-0.312500X-0.625000X0.312500X-0.625000X0.312500X0.625000X-0.312500X0.625000X0*%
%TD*%
%TA.AperFunction,SMDPad,CuDef*%
%ADD23RoundRect,0.250000X0.450000X-0.262500X0.450000X0.262500X-0.450000X0.262500X-0.450000X-0.262500X0*%
%TD*%
%TA.AperFunction,SMDPad,CuDef*%
%ADD24RoundRect,0.250000X-0.450000X0.262500X-0.450000X-0.262500X0.450000X-0.262500X0.450000X0.262500X0*%
%TD*%
%TA.AperFunction,SMDPad,CuDef*%
%ADD25RoundRect,0.250000X0.475000X-0.250000X0.475000X0.250000X-0.475000X0.250000X-0.475000X-0.250000X0*%
%TD*%
%TA.AperFunction,SMDPad,CuDef*%
%ADD26RoundRect,0.250000X0.262500X0.450000X-0.262500X0.450000X-0.262500X-0.450000X0.262500X-0.450000X0*%
%TD*%
%TA.AperFunction,SMDPad,CuDef*%
%ADD27RoundRect,0.135000X0.135000X0.185000X-0.135000X0.185000X-0.135000X-0.185000X0.135000X-0.185000X0*%
%TD*%
%TA.AperFunction,SMDPad,CuDef*%
%ADD28RoundRect,0.150000X-0.825000X-0.150000X0.825000X-0.150000X0.825000X0.150000X-0.825000X0.150000X0*%
%TD*%
%TA.AperFunction,SMDPad,CuDef*%
%ADD29RoundRect,0.150000X-0.150000X0.825000X-0.150000X-0.825000X0.150000X-0.825000X0.150000X0.825000X0*%
%TD*%
%TA.AperFunction,SMDPad,CuDef*%
%ADD30RoundRect,0.250000X-0.475000X0.250000X-0.475000X-0.250000X0.475000X-0.250000X0.475000X0.250000X0*%
%TD*%
%TA.AperFunction,ViaPad*%
%ADD31C,0.800000*%
%TD*%
%TA.AperFunction,Conductor*%
%ADD32C,0.250000*%
%TD*%
%TA.AperFunction,Conductor*%
%ADD33C,0.300000*%
%TD*%
%TA.AperFunction,Conductor*%
%ADD34C,0.500000*%
%TD*%
G04 APERTURE END LIST*
D10*
%TO.P,Q1,3*%
%TO.N,Net-(D7-K)*%
X134360000Y-76200000D03*
%TO.P,Q1,1*%
%TO.N,Net-(Q1-Pad1)*%
X132340000Y-75250000D03*
%TO.P,Q1,2*%
%TO.N,GND*%
X132340000Y-77150000D03*
%TD*%
D11*
%TO.P,J1,1*%
%TO.N,VDD*%
X93705000Y-68479000D03*
D12*
%TO.P,J1,2*%
%TO.N,GND*%
X87405000Y-68479000D03*
D13*
%TO.P,J1,3*%
%TO.N,unconnected-(J1-Pad3)*%
X90805000Y-73279000D03*
%TD*%
D14*
%TO.P,D12,1,K*%
%TO.N,Net-(D12-K)*%
X126746000Y-74677000D03*
%TO.P,D12,2,A*%
%TO.N,Net-(D12-A)*%
X126746000Y-77977000D03*
%TD*%
D15*
%TO.P,D10,1,K*%
%TO.N,GND*%
X118031625Y-69750000D03*
%TO.P,D10,2,A*%
%TO.N,Net-(D10-A)*%
X119906625Y-69750000D03*
%TD*%
%TO.P,D6,1,K*%
%TO.N,GND*%
X137052756Y-95930340D03*
%TO.P,D6,2,A*%
%TO.N,Net-(D6-A)*%
X138927756Y-95930340D03*
%TD*%
D16*
%TO.P,R3,1*%
%TO.N,Net-(D7-A)*%
X140900000Y-76196823D03*
%TO.P,R3,2*%
%TO.N,VDD*%
X142725000Y-76196823D03*
%TD*%
D17*
%TO.P,C5,1*%
%TO.N,Net-(C3-Pad1)*%
X101725000Y-88500000D03*
%TO.P,C5,2*%
%TO.N,Net-(C3-Pad2)*%
X103275000Y-88500000D03*
%TD*%
D18*
%TO.P,FID2,*%
%TO.N,*%
X149500000Y-100000000D03*
%TD*%
D15*
%TO.P,D9,1,K*%
%TO.N,GND*%
X118031625Y-82110679D03*
%TO.P,D9,2,A*%
%TO.N,Net-(D9-A)*%
X119906625Y-82110679D03*
%TD*%
D18*
%TO.P,TP6,1,1*%
%TO.N,Net-(R24-Pad2)*%
X112000000Y-97500000D03*
%TD*%
D17*
%TO.P,C4,1*%
%TO.N,Net-(C3-Pad1)*%
X101725000Y-85500000D03*
%TO.P,C4,2*%
%TO.N,Net-(C3-Pad2)*%
X103275000Y-85500000D03*
%TD*%
D19*
%TO.P,R18,1*%
%TO.N,Net-(R17-Pad2)*%
X94962500Y-91000000D03*
%TO.P,R18,2*%
%TO.N,Net-(R18-Pad2)*%
X92037500Y-91000000D03*
%TD*%
D15*
%TO.P,D3,1,K*%
%TO.N,GND*%
X156073886Y-69750000D03*
%TO.P,D3,2,A*%
%TO.N,Net-(D3-A)*%
X157948886Y-69750000D03*
%TD*%
%TO.P,D5,1,K*%
%TO.N,GND*%
X148808461Y-92110679D03*
%TO.P,D5,2,A*%
%TO.N,Net-(D5-A)*%
X150683461Y-92110679D03*
%TD*%
%TO.P,D7,1,K*%
%TO.N,Net-(D7-K)*%
X136875000Y-76196823D03*
%TO.P,D7,2,A*%
%TO.N,Net-(D7-A)*%
X138750000Y-76196823D03*
%TD*%
D16*
%TO.P,R7,1*%
%TO.N,Net-(U2-Q4)*%
X146054278Y-88332077D03*
%TO.P,R7,2*%
%TO.N,Net-(D5-A)*%
X147879278Y-88332077D03*
%TD*%
D15*
%TO.P,D8,1,K*%
%TO.N,GND*%
X125297050Y-92110679D03*
%TO.P,D8,2,A*%
%TO.N,Net-(D8-A)*%
X127172050Y-92110679D03*
%TD*%
D20*
%TO.P,R22,1*%
%TO.N,Net-(R21-Pad2)*%
X109990000Y-90500000D03*
%TO.P,R22,2*%
%TO.N,Net-(R22-Pad2)*%
X111010000Y-90500000D03*
%TD*%
D16*
%TO.P,R4,1*%
%TO.N,Net-(U2-Q2)*%
X151503347Y-71561568D03*
%TO.P,R4,2*%
%TO.N,Net-(D3-A)*%
X153328347Y-71561568D03*
%TD*%
D18*
%TO.P,TP1,1,1*%
%TO.N,Net-(R15-Pad1)*%
X92000000Y-97500000D03*
%TD*%
D21*
%TO.P,TP8,1,1*%
%TO.N,GND*%
X85600000Y-55650000D03*
%TD*%
%TO.P,TP7,1,1*%
%TO.N,/Output_555*%
X91800000Y-55500000D03*
%TD*%
D22*
%TO.P,R17,1*%
%TO.N,Net-(R16-Pad2)*%
X92037500Y-87500000D03*
%TO.P,R17,2*%
%TO.N,Net-(R17-Pad2)*%
X94962500Y-87500000D03*
%TD*%
D23*
%TO.P,R11,1*%
%TO.N,Net-(U1-THR)*%
X111868375Y-61750000D03*
%TO.P,R11,2*%
%TO.N,Net-(U1-DIS)*%
X111868375Y-59925000D03*
%TD*%
D16*
%TO.P,R12,1*%
%TO.N,Net-(U2-Q8)*%
X122971652Y-71561568D03*
%TO.P,R12,2*%
%TO.N,Net-(D10-A)*%
X124796652Y-71561568D03*
%TD*%
D15*
%TO.P,D11,1,K*%
%TO.N,GND*%
X125297050Y-59750000D03*
%TO.P,D11,2,A*%
%TO.N,Net-(D11-A)*%
X127172050Y-59750000D03*
%TD*%
D24*
%TO.P,R14,2*%
%TO.N,Net-(Q1-Pad1)*%
X129794000Y-77112500D03*
%TO.P,R14,1*%
%TO.N,Net-(D12-K)*%
X129794000Y-75287500D03*
%TD*%
D18*
%TO.P,TP5,1,1*%
%TO.N,Net-(R20-Pad1)*%
X109000000Y-97500000D03*
%TD*%
D20*
%TO.P,R20,1*%
%TO.N,Net-(R20-Pad1)*%
X109990000Y-85500000D03*
%TO.P,R20,2*%
%TO.N,Net-(R20-Pad2)*%
X111010000Y-85500000D03*
%TD*%
D19*
%TO.P,R16,1*%
%TO.N,Net-(R15-Pad2)*%
X94962500Y-84000000D03*
%TO.P,R16,2*%
%TO.N,Net-(R16-Pad2)*%
X92037500Y-84000000D03*
%TD*%
D16*
%TO.P,R1,1*%
%TO.N,Net-(U2-Q0)*%
X137237500Y-61196823D03*
%TO.P,R1,2*%
%TO.N,Net-(D1-A)*%
X139062500Y-61196823D03*
%TD*%
D25*
%TO.P,C1,1*%
%TO.N,Net-(U1-CV)*%
X107000000Y-65753177D03*
%TO.P,C1,2*%
%TO.N,GND*%
X107000000Y-63853177D03*
%TD*%
D15*
%TO.P,D4,1,K*%
%TO.N,GND*%
X156073886Y-82110679D03*
%TO.P,D4,2,A*%
%TO.N,Net-(D4-A)*%
X157948886Y-82110679D03*
%TD*%
D26*
%TO.P,R10,1*%
%TO.N,Net-(U2-Q7)*%
X124796652Y-80832077D03*
%TO.P,R10,2*%
%TO.N,Net-(D9-A)*%
X122971652Y-80832077D03*
%TD*%
D18*
%TO.P,FID1,*%
%TO.N,*%
X91950000Y-48350000D03*
%TD*%
D17*
%TO.P,C6,1*%
%TO.N,Net-(C3-Pad1)*%
X101725000Y-91500000D03*
%TO.P,C6,2*%
%TO.N,Net-(C3-Pad2)*%
X103275000Y-91500000D03*
%TD*%
D27*
%TO.P,R21,1*%
%TO.N,Net-(R20-Pad2)*%
X111010000Y-88000000D03*
%TO.P,R21,2*%
%TO.N,Net-(R21-Pad2)*%
X109990000Y-88000000D03*
%TD*%
D26*
%TO.P,R8,1*%
%TO.N,Net-(U2-Q5)*%
X139062500Y-91196823D03*
%TO.P,R8,2*%
%TO.N,Net-(D6-A)*%
X137237500Y-91196823D03*
%TD*%
D15*
%TO.P,D2,1,K*%
%TO.N,GND*%
X148808461Y-59750000D03*
%TO.P,D2,2,A*%
%TO.N,Net-(D2-A)*%
X150683461Y-59750000D03*
%TD*%
D18*
%TO.P,TP4,1,1*%
%TO.N,Net-(C3-Pad2)*%
X104000000Y-97400000D03*
%TD*%
D23*
%TO.P,R6,1*%
%TO.N,Net-(U1-DIS)*%
X107000000Y-61662500D03*
%TO.P,R6,2*%
%TO.N,VDD*%
X107000000Y-59837500D03*
%TD*%
D28*
%TO.P,U1,1,GND*%
%TO.N,GND*%
X98868375Y-60345000D03*
%TO.P,U1,2,TR*%
%TO.N,Net-(U1-THR)*%
X98868375Y-61615000D03*
%TO.P,U1,3,Q*%
%TO.N,/Output_555*%
X98868375Y-62885000D03*
%TO.P,U1,4,R*%
%TO.N,VDD*%
X98868375Y-64155000D03*
%TO.P,U1,5,CV*%
%TO.N,Net-(U1-CV)*%
X103818375Y-64155000D03*
%TO.P,U1,6,THR*%
%TO.N,Net-(U1-THR)*%
X103818375Y-62885000D03*
%TO.P,U1,7,DIS*%
%TO.N,Net-(U1-DIS)*%
X103818375Y-61615000D03*
%TO.P,U1,8,VCC*%
%TO.N,VDD*%
X103818375Y-60345000D03*
%TD*%
D22*
%TO.P,R15,1*%
%TO.N,Net-(R15-Pad1)*%
X92037500Y-80500000D03*
%TO.P,R15,2*%
%TO.N,Net-(R15-Pad2)*%
X94962500Y-80500000D03*
%TD*%
D26*
%TO.P,R9,1*%
%TO.N,Net-(U2-Q6)*%
X130245721Y-88332077D03*
%TO.P,R9,2*%
%TO.N,Net-(D8-A)*%
X128420721Y-88332077D03*
%TD*%
D29*
%TO.P,U2,1,Q5*%
%TO.N,Net-(U2-Q5)*%
X109995000Y-71775000D03*
%TO.P,U2,2,Q1*%
%TO.N,Net-(U2-Q1)*%
X108725000Y-71775000D03*
%TO.P,U2,3,Q0*%
%TO.N,Net-(U2-Q0)*%
X107455000Y-71775000D03*
%TO.P,U2,4,Q2*%
%TO.N,Net-(U2-Q2)*%
X106185000Y-71775000D03*
%TO.P,U2,5,Q6*%
%TO.N,Net-(U2-Q6)*%
X104915000Y-71775000D03*
%TO.P,U2,6,Q7*%
%TO.N,Net-(U2-Q7)*%
X103645000Y-71775000D03*
%TO.P,U2,7,Q3*%
%TO.N,Net-(U2-Q3)*%
X102375000Y-71775000D03*
%TO.P,U2,8,VSS*%
%TO.N,GND*%
X101105000Y-71775000D03*
%TO.P,U2,9,Q8*%
%TO.N,Net-(U2-Q8)*%
X101105000Y-76725000D03*
%TO.P,U2,10,Q4*%
%TO.N,Net-(U2-Q4)*%
X102375000Y-76725000D03*
%TO.P,U2,11,Q9*%
%TO.N,Net-(U2-Q9)*%
X103645000Y-76725000D03*
%TO.P,U2,12,Cout*%
%TO.N,Net-(D12-A)*%
X104915000Y-76725000D03*
%TO.P,U2,13,CKEN*%
%TO.N,GND*%
X106185000Y-76725000D03*
%TO.P,U2,14,CLK*%
%TO.N,/Output_555*%
X107455000Y-76725000D03*
%TO.P,U2,15,Reset*%
%TO.N,GND*%
X108725000Y-76725000D03*
%TO.P,U2,16,VDD*%
%TO.N,VDD*%
X109995000Y-76725000D03*
%TD*%
D27*
%TO.P,R23,1*%
%TO.N,Net-(R22-Pad2)*%
X111010000Y-93000000D03*
%TO.P,R23,2*%
%TO.N,Net-(R23-Pad2)*%
X109990000Y-93000000D03*
%TD*%
D16*
%TO.P,R5,1*%
%TO.N,Net-(U2-Q3)*%
X151503347Y-80832077D03*
%TO.P,R5,2*%
%TO.N,Net-(D4-A)*%
X153328347Y-80832077D03*
%TD*%
D17*
%TO.P,C3,1*%
%TO.N,Net-(C3-Pad1)*%
X101725000Y-82500000D03*
%TO.P,C3,2*%
%TO.N,Net-(C3-Pad2)*%
X103275000Y-82500000D03*
%TD*%
D22*
%TO.P,R19,1*%
%TO.N,Net-(R18-Pad2)*%
X92037500Y-94500000D03*
%TO.P,R19,2*%
%TO.N,Net-(R19-Pad2)*%
X94962500Y-94500000D03*
%TD*%
D18*
%TO.P,TP3,1,1*%
%TO.N,Net-(C3-Pad1)*%
X101000000Y-97400000D03*
%TD*%
%TO.P,TP2,1,1*%
%TO.N,Net-(R19-Pad2)*%
X95000000Y-97500000D03*
%TD*%
D16*
%TO.P,R2,1*%
%TO.N,Net-(U2-Q1)*%
X146054278Y-64061568D03*
%TO.P,R2,2*%
%TO.N,Net-(D2-A)*%
X147879278Y-64061568D03*
%TD*%
D15*
%TO.P,D1,1,K*%
%TO.N,GND*%
X137052756Y-55930340D03*
%TO.P,D1,2,A*%
%TO.N,Net-(D1-A)*%
X138927756Y-55930340D03*
%TD*%
D17*
%TO.P,C7,1*%
%TO.N,Net-(C3-Pad1)*%
X101725000Y-94500000D03*
%TO.P,C7,2*%
%TO.N,Net-(C3-Pad2)*%
X103275000Y-94500000D03*
%TD*%
D20*
%TO.P,R24,1*%
%TO.N,Net-(R23-Pad2)*%
X109990000Y-95500000D03*
%TO.P,R24,2*%
%TO.N,Net-(R24-Pad2)*%
X111010000Y-95500000D03*
%TD*%
D30*
%TO.P,C2,1*%
%TO.N,Net-(U1-THR)*%
X111893375Y-64148752D03*
%TO.P,C2,2*%
%TO.N,GND*%
X111893375Y-66048752D03*
%TD*%
D16*
%TO.P,R13,1*%
%TO.N,Net-(U2-Q9)*%
X128420721Y-64061568D03*
%TO.P,R13,2*%
%TO.N,Net-(D11-A)*%
X130245721Y-64061568D03*
%TD*%
D31*
%TO.N,GND*%
X132080000Y-78740000D03*
X154650000Y-82400000D03*
X147200000Y-92700000D03*
X124350000Y-61300000D03*
X154700000Y-69750000D03*
X113400000Y-66050000D03*
X135300000Y-95900000D03*
X124150000Y-92100000D03*
X135350000Y-55850000D03*
X147500000Y-58000000D03*
X101100000Y-70250000D03*
X106250000Y-78450000D03*
X116450000Y-82100000D03*
X88450000Y-55700000D03*
X118100000Y-72100000D03*
X96500000Y-60350000D03*
X108450000Y-63850000D03*
%TO.N,Net-(U1-THR)*%
X100055500Y-61602079D03*
X102200000Y-61600000D03*
%TO.N,Net-(U2-Q0)*%
X114850000Y-68586481D03*
X115500000Y-66750000D03*
%TO.N,Net-(U2-Q1)*%
X109108982Y-73500500D03*
X141300000Y-71150000D03*
%TO.N,Net-(U2-Q2)*%
X106700000Y-70085981D03*
X144050000Y-70550000D03*
%TO.N,Net-(U2-Q3)*%
X149100000Y-79550000D03*
X103500000Y-69200000D03*
%TO.N,Net-(U2-Q5)*%
X116950000Y-75350000D03*
X119200000Y-77450000D03*
X115150000Y-73650000D03*
X121850000Y-84300000D03*
%TO.N,Net-(U2-Q6)*%
X125250000Y-87950000D03*
X105250000Y-73500500D03*
%TO.N,Net-(U2-Q7)*%
X127100000Y-81700000D03*
X103250000Y-73500500D03*
%TO.N,Net-(U2-Q8)*%
X120900000Y-73250500D03*
X110000000Y-81199500D03*
%TO.N,Net-(U2-Q9)*%
X127200000Y-68586481D03*
X111800000Y-79581607D03*
X127200000Y-66887481D03*
X112550000Y-78000000D03*
%TO.N,/Output_555*%
X95750000Y-67650000D03*
X95750000Y-69499500D03*
%TD*%
D32*
%TO.N,Net-(D7-K)*%
X136871823Y-76200000D02*
X134360000Y-76200000D01*
X136875000Y-76196823D02*
X136871823Y-76200000D01*
%TO.N,Net-(D12-K)*%
X129565677Y-75287500D02*
X129794000Y-75287500D01*
X127938177Y-73660000D02*
X129565677Y-75287500D01*
X127127000Y-73660000D02*
X127938177Y-73660000D01*
X126746000Y-74041000D02*
X127127000Y-73660000D01*
X126746000Y-74677000D02*
X126746000Y-74041000D01*
%TO.N,Net-(Q1-Pad1)*%
X130477500Y-77112500D02*
X129794000Y-77112500D01*
X132340000Y-75250000D02*
X130477500Y-77112500D01*
D33*
%TO.N,Net-(D12-A)*%
X126746000Y-78613000D02*
X126746000Y-77977000D01*
X109225000Y-78832107D02*
X126526893Y-78832107D01*
X108607107Y-79450000D02*
X109225000Y-78832107D01*
X105700000Y-79450000D02*
X108607107Y-79450000D01*
X104915000Y-78665000D02*
X105700000Y-79450000D01*
X104915000Y-76725000D02*
X104915000Y-78665000D01*
X126526893Y-78832107D02*
X126746000Y-78613000D01*
D32*
%TO.N,GND*%
X132340000Y-78480000D02*
X132080000Y-78740000D01*
X132340000Y-77150000D02*
X132340000Y-78480000D01*
D33*
%TO.N,Net-(U1-CV)*%
X103818375Y-64155000D02*
X104605000Y-64155000D01*
X106203177Y-65753177D02*
X107000000Y-65753177D01*
X104605000Y-64155000D02*
X106203177Y-65753177D01*
%TO.N,GND*%
X108725000Y-76725000D02*
X108725000Y-78625000D01*
D34*
X124350000Y-61300000D02*
X124350000Y-60697050D01*
X147500000Y-58441539D02*
X148808461Y-59750000D01*
X137052756Y-55930340D02*
X135430340Y-55930340D01*
X124350000Y-60697050D02*
X125297050Y-59750000D01*
X116460679Y-82110679D02*
X116450000Y-82100000D01*
D33*
X106425000Y-78625000D02*
X106250000Y-78450000D01*
D34*
X148808461Y-92110679D02*
X147789321Y-92110679D01*
X156073886Y-69750000D02*
X154700000Y-69750000D01*
X156073886Y-82110679D02*
X154939321Y-82110679D01*
X118031625Y-69750000D02*
X118031625Y-72031625D01*
X96505000Y-60345000D02*
X96500000Y-60350000D01*
X107000000Y-63853177D02*
X108446823Y-63853177D01*
D33*
X88400000Y-55650000D02*
X88450000Y-55700000D01*
D34*
X135430340Y-55930340D02*
X135350000Y-55850000D01*
D33*
X106185000Y-76725000D02*
X106185000Y-78385000D01*
X135330340Y-95930340D02*
X135300000Y-95900000D01*
D34*
X147789321Y-92110679D02*
X147200000Y-92700000D01*
X147500000Y-58000000D02*
X147500000Y-58441539D01*
D33*
X85600000Y-55650000D02*
X88400000Y-55650000D01*
D34*
X113398752Y-66048752D02*
X113400000Y-66050000D01*
D33*
X137052756Y-95930340D02*
X135330340Y-95930340D01*
D34*
X154939321Y-82110679D02*
X154650000Y-82400000D01*
X98868375Y-60345000D02*
X96505000Y-60345000D01*
X101105000Y-70255000D02*
X101100000Y-70250000D01*
D32*
X124160679Y-92110679D02*
X124150000Y-92100000D01*
D33*
X108725000Y-78625000D02*
X106425000Y-78625000D01*
D34*
X118031625Y-82110679D02*
X116460679Y-82110679D01*
D32*
X125297050Y-92110679D02*
X124160679Y-92110679D01*
D34*
X108446823Y-63853177D02*
X108450000Y-63850000D01*
X111893375Y-66048752D02*
X113398752Y-66048752D01*
X118031625Y-72031625D02*
X118100000Y-72100000D01*
D33*
X106185000Y-78385000D02*
X106250000Y-78450000D01*
D34*
X101105000Y-71775000D02*
X101105000Y-70255000D01*
D33*
%TO.N,Net-(U1-THR)*%
X102885000Y-62885000D02*
X103818375Y-62885000D01*
X109850000Y-62650000D02*
X109900000Y-62700000D01*
X105565000Y-62885000D02*
X105800000Y-62650000D01*
X111868375Y-61750000D02*
X111868375Y-64123752D01*
X110900000Y-61750000D02*
X111868375Y-61750000D01*
X103818375Y-62885000D02*
X105565000Y-62885000D01*
X109900000Y-62700000D02*
X109950000Y-62700000D01*
X102200000Y-62200000D02*
X102885000Y-62885000D01*
X105800000Y-62650000D02*
X109850000Y-62650000D01*
X109950000Y-62700000D02*
X110900000Y-61750000D01*
X111868375Y-64123752D02*
X111893375Y-64148752D01*
X100042579Y-61615000D02*
X100055500Y-61602079D01*
X98868375Y-61615000D02*
X100042579Y-61615000D01*
X102200000Y-61600000D02*
X102200000Y-62200000D01*
%TO.N,Net-(D1-A)*%
X138927756Y-55930340D02*
X139830340Y-55930340D01*
X139830340Y-55930340D02*
X140650000Y-56750000D01*
X140650000Y-60400000D02*
X139853177Y-61196823D01*
X140650000Y-56750000D02*
X140650000Y-60400000D01*
X139853177Y-61196823D02*
X139062500Y-61196823D01*
%TO.N,Net-(D2-A)*%
X149900000Y-65150000D02*
X148257084Y-65150000D01*
X151850000Y-61550000D02*
X151850000Y-63200000D01*
X151850000Y-63200000D02*
X149900000Y-65150000D01*
X150683461Y-60383461D02*
X150683461Y-59750000D01*
X148257084Y-65150000D02*
X147705006Y-64597922D01*
X151850000Y-61550000D02*
X150683461Y-60383461D01*
%TO.N,Net-(D3-A)*%
X156738432Y-71561568D02*
X157948886Y-70351114D01*
X153328347Y-71561568D02*
X156738432Y-71561568D01*
X157948886Y-70351114D02*
X157948886Y-69750000D01*
%TO.N,Net-(D4-A)*%
X157300000Y-80750000D02*
X157948886Y-81398886D01*
X157217923Y-80832077D02*
X157300000Y-80750000D01*
X153328347Y-80832077D02*
X157217923Y-80832077D01*
X157948886Y-81398886D02*
X157948886Y-82110679D01*
%TO.N,Net-(D5-A)*%
X150683461Y-89983461D02*
X150683461Y-92110679D01*
X147879278Y-88332077D02*
X149032077Y-88332077D01*
X149032077Y-88332077D02*
X150683461Y-89983461D01*
%TO.N,Net-(D6-A)*%
X137237500Y-92937500D02*
X137237500Y-91196823D01*
X138927756Y-94627756D02*
X137237500Y-92937500D01*
X138927756Y-95930340D02*
X138927756Y-94627756D01*
%TO.N,Net-(D7-A)*%
X138750000Y-76196823D02*
X140900000Y-76196823D01*
%TO.N,Net-(D8-A)*%
X127172050Y-89127950D02*
X127172050Y-92110679D01*
X127967923Y-88332077D02*
X127172050Y-89127950D01*
X128420721Y-88332077D02*
X127967923Y-88332077D01*
%TO.N,Net-(D9-A)*%
X120239321Y-82110679D02*
X121517923Y-80832077D01*
X121517923Y-80832077D02*
X122971652Y-80832077D01*
X119906625Y-82110679D02*
X120239321Y-82110679D01*
%TO.N,Net-(D10-A)*%
X124200000Y-69750000D02*
X124796652Y-70346652D01*
X119906625Y-69750000D02*
X124200000Y-69750000D01*
X124796652Y-70346652D02*
X124796652Y-71561568D01*
%TO.N,Net-(D11-A)*%
X126993003Y-59198951D02*
X127341954Y-58850000D01*
X130071449Y-60521449D02*
X130071449Y-63525214D01*
X127341954Y-58850000D02*
X128400000Y-58850000D01*
X128400000Y-58850000D02*
X130071449Y-60521449D01*
D34*
%TO.N,VDD*%
X98195000Y-67805000D02*
X96800000Y-69200000D01*
X103818375Y-60345000D02*
X105155000Y-60345000D01*
X105700000Y-59800000D02*
X106962500Y-59800000D01*
X109995000Y-75045000D02*
X109995000Y-76725000D01*
X102155000Y-60345000D02*
X103818375Y-60345000D01*
X98450000Y-74350000D02*
X109300000Y-74350000D01*
X103818375Y-67805000D02*
X106555000Y-67805000D01*
X103818375Y-67805000D02*
X98195000Y-67805000D01*
X142725000Y-74375000D02*
X142725000Y-76196823D01*
X93850000Y-68650000D02*
X96250000Y-68650000D01*
X100905000Y-64155000D02*
X100905000Y-61595000D01*
X106962500Y-59800000D02*
X107000000Y-59837500D01*
X100905000Y-64155000D02*
X103818375Y-67068375D01*
X98868375Y-64155000D02*
X100905000Y-64155000D01*
X96250000Y-68650000D02*
X96800000Y-69200000D01*
X96800000Y-72700000D02*
X98450000Y-74350000D01*
X100905000Y-61595000D02*
X102155000Y-60345000D01*
X136086981Y-67736981D02*
X142725000Y-74375000D01*
X105155000Y-60345000D02*
X105700000Y-59800000D01*
X109300000Y-74350000D02*
X109995000Y-75045000D01*
X103818375Y-67068375D02*
X103818375Y-67805000D01*
X96800000Y-69200000D02*
X96800000Y-72700000D01*
X106623019Y-67736981D02*
X136086981Y-67736981D01*
X106555000Y-67805000D02*
X106623019Y-67736981D01*
D33*
%TO.N,Net-(U2-Q0)*%
X137046823Y-61196823D02*
X137237500Y-61196823D01*
X118650000Y-59700000D02*
X121600000Y-56750000D01*
X121600000Y-56750000D02*
X132600000Y-56750000D01*
X107455000Y-69195000D02*
X108050000Y-68600000D01*
X108050000Y-68600000D02*
X108063519Y-68586481D01*
X118650000Y-63600000D02*
X118650000Y-59700000D01*
X107455000Y-71775000D02*
X107455000Y-69195000D01*
X115500000Y-66750000D02*
X118650000Y-63600000D01*
X108063519Y-68586481D02*
X114850000Y-68586481D01*
X132600000Y-56750000D02*
X137046823Y-61196823D01*
%TO.N,Net-(U2-Q1)*%
X141300000Y-66800000D02*
X144700000Y-63400000D01*
X141300000Y-71150000D02*
X141300000Y-66800000D01*
X144700000Y-63400000D02*
X146103336Y-63400000D01*
X108725000Y-73116518D02*
X109108982Y-73500500D01*
X146103336Y-63400000D02*
X146228550Y-63525214D01*
X108725000Y-71775000D02*
X108725000Y-73116518D01*
%TO.N,Net-(U2-Q2)*%
X106185000Y-70600981D02*
X106700000Y-70085981D01*
X148650000Y-70550000D02*
X149661568Y-71561568D01*
X149661568Y-71561568D02*
X151503347Y-71561568D01*
X144050000Y-70550000D02*
X148650000Y-70550000D01*
X106185000Y-71775000D02*
X106185000Y-70600981D01*
%TO.N,Net-(U2-Q3)*%
X149100000Y-79550000D02*
X149100000Y-80300000D01*
X102400000Y-69500000D02*
X102700000Y-69200000D01*
X102400000Y-71750000D02*
X102400000Y-69500000D01*
X149632077Y-80832077D02*
X151503347Y-80832077D01*
X102375000Y-71775000D02*
X102400000Y-71750000D01*
X102700000Y-69200000D02*
X103500000Y-69200000D01*
X149100000Y-80300000D02*
X149632077Y-80832077D01*
%TO.N,Net-(U2-Q4)*%
X143400000Y-98150000D02*
X143400000Y-89400000D01*
X144467923Y-88332077D02*
X146054278Y-88332077D01*
X121200000Y-97350000D02*
X123950000Y-100100000D01*
X104150000Y-80450000D02*
X110700000Y-80450000D01*
X102375000Y-78675000D02*
X104150000Y-80450000D01*
X110700000Y-80450000D02*
X121200000Y-90950000D01*
X102375000Y-76725000D02*
X102375000Y-78675000D01*
X121200000Y-90950000D02*
X121200000Y-97350000D01*
X143400000Y-89400000D02*
X144467923Y-88332077D01*
X123950000Y-100100000D02*
X141450000Y-100100000D01*
X141450000Y-100100000D02*
X143400000Y-98150000D01*
%TO.N,Net-(U2-Q5)*%
X139062500Y-89412500D02*
X139062500Y-91196823D01*
X109995000Y-71775000D02*
X113275000Y-71775000D01*
X135000000Y-85350000D02*
X139062500Y-89412500D01*
X119050000Y-77450000D02*
X119200000Y-77450000D01*
X116950000Y-75350000D02*
X119050000Y-77450000D01*
X122900000Y-85350000D02*
X135000000Y-85350000D01*
X113275000Y-71775000D02*
X115150000Y-73650000D01*
X121850000Y-84300000D02*
X122900000Y-85350000D01*
%TO.N,Net-(U2-Q6)*%
X130071449Y-87692482D02*
X130071449Y-88868431D01*
X126554119Y-86645881D02*
X129495881Y-86645881D01*
X125250000Y-87950000D02*
X126554119Y-86645881D01*
X104915000Y-73165500D02*
X105250000Y-73500500D01*
X104915000Y-71775000D02*
X104915000Y-73165500D01*
X130245721Y-87395721D02*
X130245721Y-88332077D01*
X129495881Y-86645881D02*
X130245721Y-87395721D01*
%TO.N,Net-(U2-Q7)*%
X125664575Y-81700000D02*
X124796652Y-80832077D01*
X103645000Y-71775000D02*
X103645000Y-73105500D01*
X127100000Y-81700000D02*
X125664575Y-81700000D01*
X103645000Y-73105500D02*
X103250000Y-73500500D01*
%TO.N,Net-(U2-Q8)*%
X121788432Y-71561568D02*
X122971652Y-71561568D01*
X101105000Y-76725000D02*
X101105000Y-78112106D01*
X104192394Y-81199500D02*
X110000000Y-81199500D01*
X120900000Y-72450000D02*
X121788432Y-71561568D01*
X120900000Y-73250500D02*
X120900000Y-72450000D01*
X101105000Y-78112106D02*
X104192394Y-81199500D01*
%TO.N,Net-(U2-Q9)*%
X116550000Y-74000000D02*
X125050000Y-74000000D01*
X104900000Y-79950000D02*
X111431607Y-79950000D01*
X127200000Y-65992915D02*
X128594993Y-64597922D01*
X112550000Y-78000000D02*
X116550000Y-74000000D01*
X103645000Y-78695000D02*
X104900000Y-79950000D01*
X127200000Y-66887481D02*
X127200000Y-65992915D01*
X103645000Y-76725000D02*
X103645000Y-78695000D01*
X127050000Y-72000000D02*
X127200000Y-71850000D01*
X125050000Y-74000000D02*
X127050000Y-72000000D01*
X111431607Y-79950000D02*
X111800000Y-79581607D01*
X127200000Y-71850000D02*
X127200000Y-68586481D01*
%TO.N,Net-(R15-Pad1)*%
X93500000Y-81962500D02*
X92037500Y-80500000D01*
X92000000Y-97500000D02*
X93500000Y-96000000D01*
X93500000Y-96000000D02*
X93500000Y-81962500D01*
%TO.N,Net-(R15-Pad2)*%
X94962500Y-84000000D02*
X94962500Y-80500000D01*
%TO.N,Net-(R16-Pad2)*%
X92037500Y-84000000D02*
X92037500Y-87500000D01*
%TO.N,Net-(R17-Pad2)*%
X94962500Y-87500000D02*
X94962500Y-91000000D01*
%TO.N,Net-(R18-Pad2)*%
X92037500Y-91000000D02*
X92037500Y-94500000D01*
%TO.N,Net-(R20-Pad1)*%
X109990000Y-85500000D02*
X109500000Y-85500000D01*
X109500000Y-85500000D02*
X109000000Y-86000000D01*
X109000000Y-86000000D02*
X109000000Y-97500000D01*
%TO.N,Net-(R20-Pad2)*%
X111010000Y-85500000D02*
X111010000Y-88000000D01*
%TO.N,Net-(R21-Pad2)*%
X109990000Y-88000000D02*
X109990000Y-90500000D01*
%TO.N,Net-(R22-Pad2)*%
X111010000Y-90500000D02*
X111010000Y-93000000D01*
%TO.N,Net-(R23-Pad2)*%
X109990000Y-93000000D02*
X109990000Y-95500000D01*
%TO.N,/Output_555*%
X107455000Y-75655000D02*
X107455000Y-76725000D01*
X96635000Y-62885000D02*
X96365000Y-62885000D01*
X91800000Y-59450000D02*
X91800000Y-55500000D01*
X96100000Y-72848528D02*
X96098528Y-72848528D01*
X95750000Y-63675000D02*
X95750000Y-63400000D01*
X96100000Y-72848528D02*
X98201472Y-74950000D01*
X95750000Y-63500000D02*
X96365000Y-62885000D01*
X98201472Y-74950000D02*
X106750000Y-74950000D01*
X95750000Y-63400000D02*
X91800000Y-59450000D01*
X96098528Y-72848528D02*
X95775000Y-72525000D01*
X98868375Y-62885000D02*
X96635000Y-62885000D01*
X95775000Y-72525000D02*
X95750000Y-72500000D01*
X95750000Y-67650000D02*
X95750000Y-63675000D01*
X95750000Y-72500000D02*
X95750000Y-69499500D01*
X106750000Y-74950000D02*
X107455000Y-75655000D01*
X95750000Y-63675000D02*
X95750000Y-63500000D01*
%TO.N,Net-(C3-Pad1)*%
X101750000Y-96650000D02*
X101000000Y-97400000D01*
X101725000Y-95725000D02*
X101750000Y-95750000D01*
X101725000Y-82500000D02*
X101725000Y-95725000D01*
X101750000Y-95750000D02*
X101750000Y-96650000D01*
%TO.N,Net-(C3-Pad2)*%
X103250000Y-82525000D02*
X103275000Y-82500000D01*
X103250000Y-96650000D02*
X103250000Y-82525000D01*
X104000000Y-97400000D02*
X103250000Y-96650000D01*
%TO.N,Net-(U1-DIS)*%
X109525000Y-59925000D02*
X111868375Y-59925000D01*
X103818375Y-61615000D02*
X106952500Y-61615000D01*
X107787500Y-61662500D02*
X109525000Y-59925000D01*
X106952500Y-61615000D02*
X107000000Y-61662500D01*
X107000000Y-61662500D02*
X107787500Y-61662500D01*
%TO.N,Net-(R19-Pad2)*%
X94962500Y-94500000D02*
X95000000Y-94537500D01*
X95000000Y-94537500D02*
X95000000Y-97500000D01*
%TO.N,Net-(R24-Pad2)*%
X111010000Y-96490000D02*
X111000000Y-96500000D01*
X111000000Y-96500000D02*
X112000000Y-97500000D01*
X111010000Y-95500000D02*
X111010000Y-96490000D01*
%TD*%
M02*
