M48
; DRILL file {KiCad 7.0.1} date Tue Apr 18 15:39:13 2023
; FORMAT={-:-/ absolute / metric / decimal}
; #@! TF.CreationDate,2023-04-18T15:39:13-07:00
; #@! TF.GenerationSoftware,Kicad,Pcbnew,7.0.1
; #@! TF.FileFunction,MixedPlating,1,2
FMAT,2
METRIC
; #@! TA.AperFunction,Plated,PTH,ViaDrill
T1C0.400
; #@! TA.AperFunction,Plated,PTH,ComponentDrill
T2C1.000
; #@! TA.AperFunction,NonPlated,NPTH,ComponentDrill
T3C3.200
%
G90
G05
T1
X88.45Y-55.7
X95.75Y-67.65
X95.75Y-69.499
X96.5Y-60.35
X100.055Y-61.602
X101.1Y-70.25
X102.2Y-61.6
X103.25Y-73.501
X103.5Y-69.2
X105.25Y-73.501
X106.25Y-78.45
X106.7Y-70.086
X108.45Y-63.85
X109.109Y-73.501
X110.0Y-81.2
X111.8Y-79.582
X112.55Y-78.0
X113.4Y-66.05
X114.85Y-68.586
X115.15Y-73.65
X115.5Y-66.75
X116.45Y-82.1
X116.95Y-75.35
X118.1Y-72.1
X119.2Y-77.45
X120.9Y-73.251
X121.85Y-84.3
X124.15Y-92.1
X124.35Y-61.3
X125.25Y-87.95
X127.1Y-81.7
X127.2Y-66.887
X127.2Y-68.586
X132.08Y-78.74
X135.3Y-95.9
X135.35Y-55.85
X141.3Y-71.15
X144.05Y-70.55
X147.2Y-92.7
X147.5Y-58.0
X149.1Y-79.55
X154.65Y-82.4
X154.7Y-69.75
T2
X85.6Y-55.65
X91.8Y-55.5
T3
X86.0Y-49.0
X86.0Y-99.0
X156.0Y-49.0
X156.0Y-99.0
T2
G00X87.405Y-67.379
M15
G01X87.405Y-69.579
M16
G05
G00X91.905Y-73.279
M15
G01X89.705Y-73.279
M16
G05
G00X93.705Y-67.179
M15
G01X93.705Y-69.779
M16
G05
T0
M30
