%TF.GenerationSoftware,KiCad,Pcbnew,7.0.1*%
%TF.CreationDate,2023-04-18T15:39:04-07:00*%
%TF.ProjectId,makerspace-smt-training,6d616b65-7273-4706-9163-652d736d742d,rev?*%
%TF.SameCoordinates,Original*%
%TF.FileFunction,Paste,Top*%
%TF.FilePolarity,Positive*%
%FSLAX46Y46*%
G04 Gerber Fmt 4.6, Leading zero omitted, Abs format (unit mm)*
G04 Created by KiCad (PCBNEW 7.0.1) date 2023-04-18 15:39:04*
%MOMM*%
%LPD*%
G01*
G04 APERTURE LIST*
G04 Aperture macros list*
%AMRoundRect*
0 Rectangle with rounded corners*
0 $1 Rounding radius*
0 $2 $3 $4 $5 $6 $7 $8 $9 X,Y pos of 4 corners*
0 Add a 4 corners polygon primitive as box body*
4,1,4,$2,$3,$4,$5,$6,$7,$8,$9,$2,$3,0*
0 Add four circle primitives for the rounded corners*
1,1,$1+$1,$2,$3*
1,1,$1+$1,$4,$5*
1,1,$1+$1,$6,$7*
1,1,$1+$1,$8,$9*
0 Add four rect primitives between the rounded corners*
20,1,$1+$1,$2,$3,$4,$5,0*
20,1,$1+$1,$4,$5,$6,$7,0*
20,1,$1+$1,$6,$7,$8,$9,0*
20,1,$1+$1,$8,$9,$2,$3,0*%
G04 Aperture macros list end*
%ADD10R,0.800000X0.600000*%
%ADD11RoundRect,0.225000X-0.375000X0.225000X-0.375000X-0.225000X0.375000X-0.225000X0.375000X0.225000X0*%
%ADD12RoundRect,0.243750X-0.243750X-0.456250X0.243750X-0.456250X0.243750X0.456250X-0.243750X0.456250X0*%
%ADD13RoundRect,0.250000X-0.262500X-0.450000X0.262500X-0.450000X0.262500X0.450000X-0.262500X0.450000X0*%
%ADD14RoundRect,0.225000X-0.225000X-0.250000X0.225000X-0.250000X0.225000X0.250000X-0.225000X0.250000X0*%
%ADD15RoundRect,0.250000X0.312500X0.625000X-0.312500X0.625000X-0.312500X-0.625000X0.312500X-0.625000X0*%
%ADD16RoundRect,0.135000X-0.135000X-0.185000X0.135000X-0.185000X0.135000X0.185000X-0.135000X0.185000X0*%
%ADD17RoundRect,0.250000X-0.312500X-0.625000X0.312500X-0.625000X0.312500X0.625000X-0.312500X0.625000X0*%
%ADD18RoundRect,0.250000X0.450000X-0.262500X0.450000X0.262500X-0.450000X0.262500X-0.450000X-0.262500X0*%
%ADD19RoundRect,0.250000X-0.450000X0.262500X-0.450000X-0.262500X0.450000X-0.262500X0.450000X0.262500X0*%
%ADD20RoundRect,0.250000X0.475000X-0.250000X0.475000X0.250000X-0.475000X0.250000X-0.475000X-0.250000X0*%
%ADD21RoundRect,0.250000X0.262500X0.450000X-0.262500X0.450000X-0.262500X-0.450000X0.262500X-0.450000X0*%
%ADD22RoundRect,0.135000X0.135000X0.185000X-0.135000X0.185000X-0.135000X-0.185000X0.135000X-0.185000X0*%
%ADD23RoundRect,0.150000X-0.825000X-0.150000X0.825000X-0.150000X0.825000X0.150000X-0.825000X0.150000X0*%
%ADD24RoundRect,0.150000X-0.150000X0.825000X-0.150000X-0.825000X0.150000X-0.825000X0.150000X0.825000X0*%
%ADD25RoundRect,0.250000X-0.475000X0.250000X-0.475000X-0.250000X0.475000X-0.250000X0.475000X0.250000X0*%
G04 APERTURE END LIST*
D10*
%TO.C,Q1*%
X134360000Y-76200000D03*
X132340000Y-75250000D03*
X132340000Y-77150000D03*
%TD*%
D11*
%TO.C,D12*%
X126746000Y-74677000D03*
X126746000Y-77977000D03*
%TD*%
D12*
%TO.C,D10*%
X118031625Y-69750000D03*
X119906625Y-69750000D03*
%TD*%
%TO.C,D6*%
X137052756Y-95930340D03*
X138927756Y-95930340D03*
%TD*%
D13*
%TO.C,R3*%
X140900000Y-76196823D03*
X142725000Y-76196823D03*
%TD*%
D14*
%TO.C,C5*%
X101725000Y-88500000D03*
X103275000Y-88500000D03*
%TD*%
D12*
%TO.C,D9*%
X118031625Y-82110679D03*
X119906625Y-82110679D03*
%TD*%
D14*
%TO.C,C4*%
X101725000Y-85500000D03*
X103275000Y-85500000D03*
%TD*%
D15*
%TO.C,R18*%
X94962500Y-91000000D03*
X92037500Y-91000000D03*
%TD*%
D12*
%TO.C,D3*%
X156073886Y-69750000D03*
X157948886Y-69750000D03*
%TD*%
%TO.C,D5*%
X148808461Y-92110679D03*
X150683461Y-92110679D03*
%TD*%
%TO.C,D7*%
X136875000Y-76196823D03*
X138750000Y-76196823D03*
%TD*%
D13*
%TO.C,R7*%
X146054278Y-88332077D03*
X147879278Y-88332077D03*
%TD*%
D12*
%TO.C,D8*%
X125297050Y-92110679D03*
X127172050Y-92110679D03*
%TD*%
D16*
%TO.C,R22*%
X109990000Y-90500000D03*
X111010000Y-90500000D03*
%TD*%
D13*
%TO.C,R4*%
X151503347Y-71561568D03*
X153328347Y-71561568D03*
%TD*%
D17*
%TO.C,R17*%
X92037500Y-87500000D03*
X94962500Y-87500000D03*
%TD*%
D18*
%TO.C,R11*%
X111868375Y-61750000D03*
X111868375Y-59925000D03*
%TD*%
D13*
%TO.C,R12*%
X122971652Y-71561568D03*
X124796652Y-71561568D03*
%TD*%
D12*
%TO.C,D11*%
X125297050Y-59750000D03*
X127172050Y-59750000D03*
%TD*%
D19*
%TO.C,R14*%
X129794000Y-77112500D03*
X129794000Y-75287500D03*
%TD*%
D16*
%TO.C,R20*%
X109990000Y-85500000D03*
X111010000Y-85500000D03*
%TD*%
D15*
%TO.C,R16*%
X94962500Y-84000000D03*
X92037500Y-84000000D03*
%TD*%
D13*
%TO.C,R1*%
X137237500Y-61196823D03*
X139062500Y-61196823D03*
%TD*%
D20*
%TO.C,C1*%
X107000000Y-65753177D03*
X107000000Y-63853177D03*
%TD*%
D12*
%TO.C,D4*%
X156073886Y-82110679D03*
X157948886Y-82110679D03*
%TD*%
D21*
%TO.C,R10*%
X124796652Y-80832077D03*
X122971652Y-80832077D03*
%TD*%
D14*
%TO.C,C6*%
X101725000Y-91500000D03*
X103275000Y-91500000D03*
%TD*%
D22*
%TO.C,R21*%
X111010000Y-88000000D03*
X109990000Y-88000000D03*
%TD*%
D21*
%TO.C,R8*%
X139062500Y-91196823D03*
X137237500Y-91196823D03*
%TD*%
D12*
%TO.C,D2*%
X148808461Y-59750000D03*
X150683461Y-59750000D03*
%TD*%
D18*
%TO.C,R6*%
X107000000Y-61662500D03*
X107000000Y-59837500D03*
%TD*%
D23*
%TO.C,U1*%
X98868375Y-60345000D03*
X98868375Y-61615000D03*
X98868375Y-62885000D03*
X98868375Y-64155000D03*
X103818375Y-64155000D03*
X103818375Y-62885000D03*
X103818375Y-61615000D03*
X103818375Y-60345000D03*
%TD*%
D17*
%TO.C,R15*%
X92037500Y-80500000D03*
X94962500Y-80500000D03*
%TD*%
D21*
%TO.C,R9*%
X130245721Y-88332077D03*
X128420721Y-88332077D03*
%TD*%
D24*
%TO.C,U2*%
X109995000Y-71775000D03*
X108725000Y-71775000D03*
X107455000Y-71775000D03*
X106185000Y-71775000D03*
X104915000Y-71775000D03*
X103645000Y-71775000D03*
X102375000Y-71775000D03*
X101105000Y-71775000D03*
X101105000Y-76725000D03*
X102375000Y-76725000D03*
X103645000Y-76725000D03*
X104915000Y-76725000D03*
X106185000Y-76725000D03*
X107455000Y-76725000D03*
X108725000Y-76725000D03*
X109995000Y-76725000D03*
%TD*%
D22*
%TO.C,R23*%
X111010000Y-93000000D03*
X109990000Y-93000000D03*
%TD*%
D13*
%TO.C,R5*%
X151503347Y-80832077D03*
X153328347Y-80832077D03*
%TD*%
D14*
%TO.C,C3*%
X101725000Y-82500000D03*
X103275000Y-82500000D03*
%TD*%
D17*
%TO.C,R19*%
X92037500Y-94500000D03*
X94962500Y-94500000D03*
%TD*%
D13*
%TO.C,R2*%
X146054278Y-64061568D03*
X147879278Y-64061568D03*
%TD*%
D12*
%TO.C,D1*%
X137052756Y-55930340D03*
X138927756Y-55930340D03*
%TD*%
D14*
%TO.C,C7*%
X101725000Y-94500000D03*
X103275000Y-94500000D03*
%TD*%
D16*
%TO.C,R24*%
X109990000Y-95500000D03*
X111010000Y-95500000D03*
%TD*%
D25*
%TO.C,C2*%
X111893375Y-64148752D03*
X111893375Y-66048752D03*
%TD*%
D13*
%TO.C,R13*%
X128420721Y-64061568D03*
X130245721Y-64061568D03*
%TD*%
M02*
